<svg xmlns="http://www.w3.org/2000/svg" xmlns:xlink="http://www.w3.org/1999/xlink" version="1.1" x="0px" y="0px" viewBox="0 0 100 90.48" enable-background="new 0 0 100 90.48" xml:space="preserve"><path d="M75.768,56.268l19.974-20.075l3.15,3.122l0,0c1.478,1.488,1.478,3.877,0,5.348L84.179,59.315  c-1.465,1.471-3.874,1.471-5.365,0l0,0L75.768,56.268z"></path><path d="M0,79.705c1.403,5.17,5.863,9.336,10.746,10.775L49.68,51.893L38.916,41.122L0,79.705z"></path><path d="M73.456,49.166c0.163,0.348,0.312,0.68,0.437,1.028c0.098,0.276,0.188,0.547,0.254,0.774c0.13,0.521,0.26,1.016,0.299,1.504  c5.735-5.699,11.484-11.399,17.227-17.083c0,0-10.911-0.608-14.265-14.287c-1.016-1.019-2.05-2.035-3.065-3.066  C60.227,3.944,45.354-1.068,31.38,0.185c-0.768,0.062-2.308,0.29-3.708,0.485c-2.478,0.381-2.708,4.004-0.007,4.033  c1.267,0.013,2.582,0.029,3.19,0.104c2.558,0.348,5.042,0.609,7.483,1.517c10.433,3.984,17.174,15.306,8.278,24.127  c-2.383,2.35-7.129,7.047-7.129,7.047l14.333,14.082c0,0,1.028-1.233,1.66-1.78c2.864-2.36,8.749-6.228,14.7-3.877  c0.931,0.362,1.66,0.954,2.239,1.622c0.28,0.348,0.566,0.713,0.788,1.119C73.3,48.833,73.378,49,73.456,49.166z"></path></svg>
