<svg xmlns="http://www.w3.org/2000/svg" xmlns:xlink="http://www.w3.org/1999/xlink" version="1.1" x="0px" y="0px" viewBox="0 0 95.235 100.004" enable-background="new 0 0 95.235 100.004" xml:space="preserve"><path d="M80.834,62.324c1.868,3.73,10.273,23.334,10.273,26.146c0,15.378-20.541,15.378-20.541,0  C70.567,85.658,78.972,65.124,80.834,62.324z"></path><path d="M92.969,51.895c0-2.122,0-5.654,0-11.858c0-7.513-6.822-14.007-15.865-14.007c0,0-0.053,0-21.127,0l-0.117-6.592  c0-1.895-1.543-3.441-3.444-3.441h-8.261v-4.232c0.716-0.423,1.309-0.954,1.81-1.604c2.481,0,7.5,0,17.591,0  c1.179,1.51,2.917,2.559,4.974,2.559c3.503,0,6.354-2.842,6.354-6.354C74.883,2.848,72.032,0,68.529,0  c-2.103,0-3.887,1.11-5.039,2.692c-2.779,0-7.981,0-17.441,0C44.877,1.11,43.106,0,40.997,0C38.9,0,37.11,1.11,35.958,2.692  c-5.397,0-11.797,0-19.258,0C15.547,1.11,13.77,0,11.673,0C8.158,0,5.312,2.848,5.312,6.364c0,3.513,2.845,6.354,6.361,6.354  c2.044,0,3.789-1.048,4.941-2.559c3.184,0,8.984,0,19.421,0c0.508,0.664,1.113,1.204,1.842,1.611v4.225h-8.77  c-1.895,0-3.438,1.546-3.438,3.441v6.592c-2.155,0-8.327,0-25.671,0v20.541c0.605,0,4.766,0,28.555,0  c2.799,5.615,6.53,8.396,12.135,8.396c5.599,0,10.267-2.78,13.067-8.396c0,0,0,0,10.273,0c3.066,0,4.199,1.973,4.524,5.755  c-0.898,0.612-1.517,1.605-1.517,2.78c0,1.901,1.543,3.444,3.438,3.444h21.315c1.9,0,3.443-1.543,3.443-3.444  C95.235,53.617,94.292,52.377,92.969,51.895z"></path></svg>
