<svg xmlns="http://www.w3.org/2000/svg" xmlns:xlink="http://www.w3.org/1999/xlink" version="1.1" x="0px" y="0px" viewBox="0 0 71.432 100.003" enable-background="new 0 0 71.432 100.003" xml:space="preserve"><path d="M71.432,11.615c0-0.547-0.488-0.967-1.458-1.228l-2.077-0.739c-2.35-0.902-3.802-1.338-4.349-1.338  c-0.078,0-0.488,0.094-1.257,0.316c-0.768,0.198-1.927,0.569-3.528,1.136c-0.13,0.059-1.035,0.248-2.702,0.56  c-1.653,0.312-4.153,0.811-7.474,1.514L15.684,0.101C15.619,0.033,15.384,0,14.961,0c-1.172,0-2.181,0.55-3.021,1.657l20.977,12.861  l-7.058,1.361l-6.12-4.87l-1.667,0.312v3.838l-7.064-2.699l-1.348,0.83l6.23,5.495v0.31c0,0.967,0.651,1.455,1.966,1.455  l3.131,3.838l1.549-0.511l0.521-2.799h16.394l3.438,2.594v8.307h3.105l6.341-13.711c2.129-0.338,4.388-0.781,6.738-1.292  c2.363-0.531,4.876-1.064,7.578-1.608c0.481-0.208,0.996-0.472,1.556-0.784c0.561-0.31,1.081-0.642,1.569-0.983  c0.476-0.342,0.866-0.69,1.179-1.042C71.276,12.21,71.432,11.898,71.432,11.615z"></path><path d="M58.854,82.425h-0.898v-2.317c0-4.193-0.247-8.061-0.768-11.562c-0.014-0.059-0.02-0.111-0.039-0.17V45.049h-1.387v-5.42  h-1.855v5.42h-1.4v15.924c-0.325-0.215-0.664-0.416-1.028-0.611V44.066c0-1.332-6.341-5.456-21.549-5.456  c-15.222,0-21.387,4.125-21.387,5.456v16.419c-2.949,1.628-4.766,4.311-5.462,8.061c-0.521,3.502-0.768,7.369-0.768,11.562v2.317  H1.413C0.469,82.425,0,83.702,0,86.26c0,2.486,0.469,3.73,1.413,3.73h5.905v1.152c0,1.725,0.065,3.131,0.195,4.238  c0.124,1.106,0.28,2.012,0.456,2.695c0.762,1.282,2.181,1.927,4.232,1.927c1.959,0,3.34-0.645,4.115-1.927  c0.501-1.029,0.768-3.086,0.768-6.146v-1.939h26.101v1.939c0,3.061,0.26,5.117,0.774,6.146c0.769,1.282,2.142,1.927,4.108,1.927  c2.051,0,3.47-0.645,4.238-1.927c0.162-0.684,0.325-1.589,0.449-2.695c0.123-1.107,0.188-2.514,0.188-4.238v-1.152h5.911  c0.938,0,1.413-1.244,1.413-3.73C60.267,83.702,59.792,82.425,58.854,82.425z M13.229,77.829c-2.123,0-3.841-1.719-3.841-3.834  c0-2.116,1.719-3.835,3.841-3.835c2.116,0,3.841,1.719,3.841,3.835C17.07,76.11,15.345,77.829,13.229,77.829z M15.566,60.707  c-1.321,0-2.415-1.081-2.415-2.419v-5.452c0-1.348,0.963-2.529,2.415-3.197c0,0,5.886-2.018,14.57-2.018  c8.672,0,14.596,2.018,14.596,2.018c1.901,0.947,2.402,2.572,2.402,3.917v4.732c0,1.338-1.074,2.419-2.402,2.419H15.566z   M40.235,78.421H20.033c-0.371,0-0.684-0.306-0.684-0.684s0.312-0.677,0.684-0.677h20.202c0.371,0,0.677,0.299,0.677,0.677  S40.606,78.421,40.235,78.421z M40.235,74.561H20.033c-0.371,0-0.684-0.3-0.684-0.678c0-0.377,0.312-0.689,0.684-0.689h20.202  c0.371,0,0.677,0.312,0.677,0.689C40.912,74.261,40.606,74.561,40.235,74.561z M40.235,70.7H20.033  c-0.371,0-0.684-0.306-0.684-0.684c0-0.364,0.312-0.677,0.684-0.677h20.202c0.371,0,0.677,0.312,0.677,0.677  C40.912,70.394,40.606,70.7,40.235,70.7z M47.005,77.829c-2.116,0-3.835-1.719-3.835-3.834c0-2.116,1.719-3.835,3.835-3.835  s3.835,1.719,3.835,3.835C50.84,76.11,49.122,77.829,47.005,77.829z"></path></svg>
