<svg xmlns="http://www.w3.org/2000/svg" xmlns:xlink="http://www.w3.org/1999/xlink" version="1.1" x="0px" y="0px" viewBox="0 0 100.003 80.949" enable-background="new 0 0 100.003 80.949" xml:space="preserve"><g><path d="M36.002,31.327c0,2.542-2.061,4.606-4.606,4.606c-2.549,0-4.613-2.064-4.613-4.606c0-2.546,2.064-4.606,4.613-4.606   C33.941,26.72,36.002,28.781,36.002,31.327z"></path><path d="M31.881,62.875l0.99,16.992c0,0.6,0.488,1.081,1.081,1.081c0.599,0,1.081-0.481,1.081-1.081l0.924-16.992h3.004   L35.855,43.82l6.253,12.454c0.234,0.554,0.869,0.82,1.422,0.58c0.544-0.229,0.808-0.866,0.57-1.413c0,0-4.583-12.408-5.719-14.717   c-1.13-2.308-2.246-3.714-6.546-3.714H30.95c-4.291,0-5.414,1.406-6.546,3.714c-1.126,2.309-5.723,14.717-5.723,14.717   c-0.228,0.547,0.026,1.185,0.573,1.413c0.554,0.24,1.185-0.026,1.419-0.58l6.26-12.454l-3.115,19.056h3.004l0.931,16.992   c0,0.6,0.488,1.081,1.081,1.081c0.605,0,1.087-0.481,1.087-1.081l0.924-16.992H31.881z"></path></g><g><path d="M68.619,26.708c-2.552,0-4.616,2.061-4.616,4.609c0,2.542,2.064,4.603,4.616,4.603c2.539,0,4.597-2.061,4.597-4.603   C73.216,28.768,71.158,26.708,68.619,26.708z"></path><path d="M73.392,53.827l0.312-10.013l5.625,12.454c0.234,0.553,0.872,0.807,1.419,0.579c0.547-0.234,0.808-0.866,0.573-1.426   c0,0-3.959-12.402-5.092-14.71c-1.133-2.308-2.877-3.714-7.174-3.714H68.17c-4.297,0-6.055,1.406-7.175,3.714   c-1.133,2.308-5.091,14.71-5.091,14.71c-0.234,0.56,0.02,1.191,0.573,1.426c0.547,0.228,1.185-0.026,1.412-0.579l5.632-12.454   l0.312,10.013l-0.886,25.182c-0.078,1.003,0.678,1.869,1.674,1.94c0.045,0,0.091,0,0.123,0c0.951,0,1.745-0.729,1.816-1.68   l2.045-19.473l2.051,19.473c0.064,0.95,0.865,1.68,1.81,1.68c0.039,0,0.091,0,0.13,0c0.996-0.071,1.745-0.938,1.68-1.94   l-0.892-25.182H73.392z"></path></g><g><path d="M50,54.711c-1.562,0-2.829,1.27-2.829,2.826c0,1.562,1.266,2.825,2.829,2.825c1.562,0,2.832-1.263,2.832-2.825   C52.831,55.981,51.562,54.711,50,54.711z"></path><path d="M50,71.366c0,0,1.273,8.834,1.276,8.841c0.169,0.43,0.579,0.742,1.071,0.742c0.511,0,0.934-0.339,1.084-0.794   c0.013-0.026,0.039-0.547,0.013-0.639l-0.518-10.859l0.159-3.73c0.15-1.27,0.176-0.892,1.621-1.751   c1.472-0.886,3.979-4.766,4.102-4.961c0.117-0.195,0.352-0.534,0.391-0.755c0.072-0.391-0.182-0.756-0.572-0.834   c-0.287-0.052-0.541,0.104-0.729,0.307c-0.195,0.208-3.079,4.049-5.241,4.414c-0.481-0.072-1.006-0.319-2.382-0.319h-0.547   c-1.371,0-1.895,0.247-2.383,0.319c-2.162-0.365-5.049-4.206-5.241-4.414c-0.189-0.202-0.433-0.358-0.729-0.307   c-0.387,0.078-0.641,0.443-0.569,0.834c0.042,0.221,0.276,0.56,0.394,0.755c0.121,0.195,2.63,4.075,4.099,4.961   c1.445,0.859,1.475,0.481,1.621,1.751l0.156,3.73l-0.515,10.859c-0.029,0.092,0,0.612,0.013,0.639   c0.153,0.455,0.57,0.794,1.084,0.794c0.488,0,0.905-0.312,1.071-0.742C48.73,80.2,50,71.366,50,71.366"></path></g><path d="M99.212,36.675c1.393-1.996,0.898-4.746-1.107-6.139L57.35,2.183c-4.189-2.91-10.508-2.91-14.69,0L1.894,30.536  c-1.999,1.393-2.497,4.144-1.104,6.139c1.394,2.002,4.141,2.497,6.143,1.104L47.691,9.426c1.146-0.794,3.477-0.794,4.619,0  l40.755,28.353c0.769,0.534,1.654,0.791,2.514,0.791C96.979,38.569,98.353,37.909,99.212,36.675z"></path></svg>
