<svg xmlns="http://www.w3.org/2000/svg" xmlns:xlink="http://www.w3.org/1999/xlink" version="1.1" x="0px" y="0px" viewBox="0 0 100.003 100" enable-background="new 0 0 100.003 100" xml:space="preserve"><path d="M99.977,58.574h0.013c-0.286,7.383-2.799,15.391-6.653,22.767c0,0-9.219,18.659-38.145,18.659  c-28.929,0-38.307-18.496-38.307-18.496c-3.867-7.422-6.211-15.364-6.504-22.93h0.022c-0.016-0.195-0.022-0.381-0.022-0.583  c0-3.545,2.194-6.865,5.973-9.736l4.03,2.581c-2.49,1.673-3.936,3.539-3.936,5.524c0,6.992,17.347,12.656,38.743,12.656  c21.394,0,38.744-5.664,38.744-12.656c0-4.834-8.32-9.033-20.534-11.165l0.052-5.078c15.639,3.06,26.55,9.906,26.55,17.874  C100.003,58.193,99.99,58.379,99.977,58.574z"></path><path d="M25.273,28.493c-0.153,1.185-0.345,3.089,1.11,5.673c1.813,3.132,4.131,4.216,4.889,4.746  c-0.127-0.807,0.094-3.216-1.605-6.155c-1.465-2.633-3.069-3.802-4.017-4.71c-2.676-3.86-5.7-6.953-7.995-9.395l-5.485-5.693  c-0.01,0,1.966,2.282,5.254,5.879C19.675,21.371,22.656,24.577,25.273,28.493z"></path><path d="M38.988,58.626c1.175,1.107,2.656,2.917,5.951,4.746c3.694,2.064,6.816,2.064,7.868,2.299  c-0.593-0.964-1.784-4.023-5.866-6.276c-3.347-1.846-5.85-1.491-7.386-1.233c-5.049-2.939-9.375-5.941-12.868-8.093  c-4.984-3.076-8.226-4.639-8.213-4.642c-0.013,0.01,3.141,1.726,8.018,4.951C29.844,52.598,34.021,55.647,38.988,58.626z"></path><path d="M41.966,42.559c-0.397,1.357-0.97,3.558,0.316,6.797c1.543,3.958,4.108,5.605,4.902,6.354  c0.006-0.964,0.677-3.715-0.771-7.438c-1.292-3.307-2.966-4.955-3.929-6.166c-2.503-4.951-5.543-9.069-7.887-12.265l-5.593-7.539  l5.287,7.708C36.566,33.324,39.535,37.555,41.966,42.559z"></path><path d="M32.565,50.599c1.11,0.99,2.532,2.653,5.645,4.291c3.483,1.836,6.393,1.771,7.363,1.959  c-0.576-0.875-1.758-3.668-5.603-5.683c-3.141-1.647-5.459-1.283-6.885-1.016c-4.756-2.646-8.841-5.371-12.116-7.337  c-4.697-2.796-7.741-4.212-7.725-4.225c-0.01,0.013,2.949,1.579,7.533,4.521C23.936,45.133,27.884,47.91,32.565,50.599z"></path><path d="M25.856,42.682c1.045,0.905,2.393,2.425,5.296,3.88c3.255,1.647,5.944,1.533,6.853,1.693  c-0.547-0.801-1.699-3.34-5.283-5.146c-2.937-1.472-5.072-1.097-6.39-0.843c-4.447-2.379-8.262-4.86-11.325-6.641  C10.625,33.08,7.79,31.793,7.8,31.781c-0.01,0.02,2.75,1.442,7.041,4.114C17.793,37.731,21.481,40.264,25.856,42.682z"></path><path d="M19.014,31.152c1.962,1.751,3.831,1.855,4.889,2.201c-0.228-0.853-0.033-2.972-2.269-4.958  c-1.911-1.644-3.841-1.777-4.831-1.849C8.939,19.808,1.966,15.476,0.355,14.443L0,14.203c-0.059,0.055,7.624,5.121,16.627,13.014  C16.915,28.193,17.442,29.805,19.014,31.152z"></path><path d="M18.877,34.876c0.973,0.823,2.226,2.213,4.928,3.506c3.004,1.491,5.485,1.338,6.325,1.471  c-0.521-0.723-1.621-3.001-4.925-4.642c-2.728-1.299-4.688-0.97-5.892-0.723c-4.118-2.139-7.646-4.414-10.495-6.002  c-4.046-2.337-6.683-3.47-6.68-3.483c-0.003,0.013,2.571,1.273,6.526,3.734C11.407,30.378,14.821,32.695,18.877,34.876z"></path><path d="M33.845,35.303c-0.277,1.276-0.658,3.336,0.732,6.24c1.686,3.558,4.157,4.912,4.932,5.547  c-0.065-0.885,0.354-3.467-1.218-6.807c-1.413-2.965-3.043-4.375-4.007-5.439c-2.611-4.397-5.648-8.011-7.985-10.823l-5.56-6.615  l5.293,6.793C28.32,27.119,31.296,30.843,33.845,35.303z"></path><path d="M64.769,42.868c-0.886,0.873-2.266,2.318-2.708,5.319c-0.561,3.649,0.65,5.951,0.924,6.849  c0.424-0.723,2.136-2.539,2.663-5.983c0.456-3.057-0.098-5-0.293-6.325c0.247-4.808-0.293-9.203-0.69-12.607  c-0.599-4.961-1.035-8.047-1.028-8.047l0.716,8.053C64.665,33.594,65.094,38.05,64.769,42.868z"></path><path d="M61.93,34.694c-0.768,0.859-1.953,2.285-2.174,5.091c-0.273,3.412,0.982,5.469,1.295,6.279  c0.346-0.703,1.804-2.503,2.077-5.703c0.234-2.861-0.391-4.619-0.664-5.833c-0.052-4.456-0.794-8.479-1.354-11.601l-1.367-7.38  l1.094,7.402C61.305,26.13,61.957,30.218,61.93,34.694z"></path><path d="M58.643,26.68c-0.658,0.837-1.66,2.227-1.687,4.821c-0.039,3.161,1.27,4.974,1.608,5.7c0.254-0.677,1.478-2.429,1.517-5.394  c0.039-2.646-0.638-4.212-0.964-5.312c-0.325-4.095-1.23-7.747-1.934-10.583l-1.673-6.696l1.413,6.738  C57.542,18.851,58.375,22.568,58.643,26.68z"></path><path d="M64.444,64.095c0.501-0.742,2.474-2.539,3.307-6.201c0.717-3.248,0.261-5.374,0.131-6.813  c0.592-5.146,0.286-9.912,0.052-13.6c-0.345-5.375-0.638-8.714-0.638-8.714l0.306,8.708c0.124,3.737,0.312,8.558-0.358,13.704  c-1.016,0.885-2.591,2.337-3.281,5.514C63.116,60.56,64.209,63.118,64.444,64.095z"></path><path d="M47.995,21.416c0.407,0.921,0.817,2.36,2.311,4.199c1.647,2.093,3.486,2.796,4.046,3.174c-0.13-0.7-0.104-2.741-1.917-5.032  c-1.507-1.862-3.031-2.269-3.991-2.48c-2.214-2.939-3.952-5.771-5.449-7.881c-2.093-3.057-3.601-4.756-3.584-4.766  c-0.017,0.01,1.399,1.784,3.385,4.893C44.193,15.645,45.837,18.477,47.995,21.416z"></path><path d="M49.404,18.728c0.804,1.934,2.113,2.63,2.754,3.226c0.133-0.696,1.019-2.184,0.113-4.385  c-0.797-1.833-2.151-2.571-2.832-2.949C46.14,7.074,42.646,1.585,41.849,0.296L41.677,0c-0.059,0.023,3.691,6.279,7.399,15.052  C48.939,15.859,48.747,17.217,49.404,18.728z"></path><path d="M52.711,34.053c1.771,2.279,3.75,3.086,4.35,3.502c-0.104-0.768-0.039-3.008-1.992-5.524  c-1.589-2.047-3.271-2.49-4.307-2.731c-2.374-3.219-4.251-6.299-5.831-8.62c-2.256-3.317-3.841-5.195-3.841-5.205  c0,0.01,1.484,1.966,3.626,5.348c1.481,2.324,3.246,5.404,5.55,8.629C50.704,30.462,51.143,32.012,52.711,34.053z"></path><path d="M54.86,18.851c-0.527,0.814-1.334,2.152-1.197,4.525c0.195,2.9,1.49,4.463,1.849,5.098c0.195-0.628,1.198-2.324,1.016-5.042  c-0.13-2.416-0.872-3.805-1.237-4.789c-0.56-3.711-1.653-6.982-2.441-9.531l-1.946-5.999c-0.007-0.003,0.615,2.334,1.712,6.058  C53.336,11.774,54.352,15.111,54.86,18.851z"></path><path d="M52.318,37.474c0.442,1.104,0.882,2.79,2.542,5.013c1.869,2.503,3.984,3.415,4.636,3.88c-0.11-0.84,0.013-3.275-2.038-6.022  c-1.692-2.25-3.482-2.751-4.612-3.027c-2.503-3.522-4.479-6.869-6.149-9.391c-2.396-3.607-4.092-5.651-4.085-5.661  c-0.006,0.01,1.572,2.136,3.848,5.814C48.018,30.605,49.88,33.955,52.318,37.474z"></path><path d="M28.054,59.499c-0.01,0.013,2.757,1.575,7.083,4.635c0.306,0.065,0.609,0.131,0.921,0.195  C31.214,61.101,28.044,59.512,28.054,59.499z"></path><path d="M62.569,65.586c-0.645-1.022-1.328-1.765-1.999-2.337c-0.228-0.625-0.469-1.198-0.71-1.719  c1.465,1.497,2.839,2.246,3.347,2.656c0-0.065,0-0.156,0-0.248c0.183,0.586,0.352,1.198,0.521,1.797  c0.28-0.02,0.561-0.039,0.827-0.059c-0.501-1.731-1.062-3.404-1.673-5.006c-0.215-0.847-0.573-1.791-1.133-2.793  c-0.541-1.26-1.081-2.458-1.615-3.607c0.651,0.449,1.186,0.749,1.459,0.961c-0.092-0.912,0.13-3.545-2.019-6.553  c-1.257-1.758-2.604-2.542-3.711-2.969l-3.405-6.618c-0.006,0,1.101,2.412,3.021,6.478c-0.287-0.091-0.554-0.173-0.788-0.234  c-2.614-3.832-4.674-7.468-6.432-10.199c-2.507-3.906-4.297-6.12-4.287-6.126c-0.007,0.013,1.657,2.311,4.033,6.292  c1.631,2.738,3.574,6.364,6.1,10.189c0.456,1.191,0.892,3.014,2.617,5.449c0.813,1.139,1.667,1.972,2.448,2.607  c0.299,0.674,0.611,1.367,0.911,2.084c-1.458-1.475-2.937-1.943-3.933-2.24c-0.286-0.442-0.56-0.882-0.833-1.324  c-1.687-3.614-3.493-6.807-5.01-9.47c-3.336-5.83-5.504-9.408-5.495-9.408l5.107,9.567c0.387,0.726,0.791,1.5,1.214,2.295  c-0.557-0.957-1.094-1.859-1.595-2.683c-2.601-4.215-4.482-6.598-4.473-6.608c-0.01,0.01,1.731,2.484,4.192,6.781  c1.446,2.529,3.116,5.762,5.199,9.245c0.911,2.031,1.784,4.192,2.552,6.468c-0.208,0.476-0.449,1.049-0.657,1.726  c-2.298-3.933-4.163-7.575-5.84-10.381c-0.537-0.931-1.035-1.748-1.507-2.506c-2.106-4.326-4.512-8.047-6.452-11.039  c-3.389-5.231-5.57-8.454-5.563-8.454l5.225,8.623c2.243,3.711,5.172,8.463,7.435,14.007c-0.527,1.436-1.299,3.753-0.159,7.331  c1.374,4.359,3.998,6.312,4.798,7.178c0.078-0.977,0.898-3.613-0.072-7.347c0.593,1.13,1.23,2.288,1.921,3.474  c-0.286,1.348-0.352,3.033,0.163,5.182c2.168-0.013,4.303-0.091,6.399-0.234C62.647,65.735,62.621,65.671,62.569,65.586z"></path><path d="M32.097,57.49c-5.264-3.369-8.698-5.075-8.688-5.085c-0.01,0.01,3.32,1.882,8.46,5.417  c2.982,2.054,6.621,4.763,10.807,7.549c0.515,0.052,1.045,0.091,1.566,0.149C39.528,62.559,35.439,59.642,32.097,57.49z"></path><path d="M70.003,59.577c0.989-5.469,0.918-10.609,0.911-14.574l-0.182-9.378c-0.014-0.003-0.092,3.581-0.17,9.352  c-0.11,4.017-0.176,9.2-1.25,14.665c-1.139,0.873-2.891,2.318-3.893,5.651c-0.026,0.117-0.039,0.208-0.065,0.325  c1.511-0.143,2.976-0.312,4.414-0.521C70.238,62.649,70.03,60.84,70.003,59.577z"></path></svg>
