<svg xmlns="http://www.w3.org/2000/svg" xmlns:xlink="http://www.w3.org/1999/xlink" version="1.1" x="0px" y="0px" viewBox="0 0 100 90.465" enable-background="new 0 0 100 90.465" xml:space="preserve"><path d="M16.543,34.736L39.518,58.31v32.051h-0.182v0.104H20.495V76.63L1.27,51.23C0.501,50.283,0,49.118,0,47.841V8.812  c0-3.054,2.48-5.541,5.547-5.541c3.047,0,5.534,2.487,5.534,5.541v22.539c-1.341,0.293-2.617,0.856-3.639,1.855  c-2.936,2.874-3.008,7.594-0.143,10.537l10.488,10.784l1.426-1.394L8.711,42.376c-2.096-2.171-2.051-5.642,0.098-7.757  c0.677-0.635,1.471-1.087,2.324-1.328c0.912-0.26,1.855-0.273,2.76-0.084C14.916,33.46,15.827,33.984,16.543,34.736z"></path><path d="M83.464,34.736L60.476,58.31v32.051h0.182v0.104h18.854V76.63l19.219-25.4c0.769-0.947,1.27-2.112,1.27-3.389V8.812  c0-3.054-2.48-5.541-5.547-5.541c-3.047,0-5.534,2.487-5.534,5.541v22.539c1.348,0.293,2.617,0.856,3.64,1.855  c2.942,2.874,3.015,7.594,0.149,10.537L82.214,54.528l-1.433-1.394l10.508-10.758c2.097-2.171,2.051-5.642-0.104-7.757  c-0.664-0.635-1.478-1.087-2.324-1.328c-0.898-0.26-1.849-0.273-2.754-0.084C85.091,33.46,84.18,33.984,83.464,34.736z"></path><path d="M49.994,43.512c6.015,0,11.107-2.168,15.377-6.399c4.258-4.255,6.38-9.353,6.38-15.384c0-5.993-2.122-11.139-6.38-15.387  C61.101,2.08,56.009,0,49.994,0c-6.003,0-11.152,2.08-15.358,6.341c-4.29,4.248-6.387,9.395-6.387,15.387  c0,6.032,2.097,11.129,6.387,15.384C38.841,41.344,43.991,43.512,49.994,43.512z"></path></svg>
