<svg xmlns="http://www.w3.org/2000/svg" xmlns:xlink="http://www.w3.org/1999/xlink" version="1.1" x="0px" y="0px" viewBox="0 0 100 99.987" enable-background="new 0 0 100 99.987" xml:space="preserve"><path d="M35.41,17.702c0,9.798-7.917,17.708-17.695,17.708S0,27.5,0,17.702C0,7.937,7.936,0,17.715,0S35.41,7.937,35.41,17.702z"></path><path d="M17.715,64.577C7.936,64.577,0,72.5,0,82.279s7.936,17.708,17.715,17.708s17.695-7.93,17.695-17.708  S27.494,64.577,17.715,64.577z"></path><path d="M82.278,64.577c-9.778,0-17.701,7.924-17.701,17.702S72.5,99.987,82.278,99.987c9.772,0,17.722-7.93,17.722-17.708  S92.051,64.577,82.278,64.577z"></path><path d="M82.278,0C72.5,0,64.577,7.937,64.577,17.702c0,9.798,7.923,17.708,17.701,17.708C92.051,35.41,100,27.5,100,17.702  C100,7.937,92.051,0,82.278,0z"></path><path d="M49.994,32.285c-9.785,0-17.708,7.93-17.708,17.715c0,9.779,7.923,17.708,17.708,17.708c9.785,0,17.708-7.93,17.708-17.708  C67.702,40.215,59.778,32.285,49.994,32.285z"></path></svg>