<svg xmlns="http://www.w3.org/2000/svg" xmlns:xlink="http://www.w3.org/1999/xlink" version="1.1" x="0px" y="0px" viewBox="0 0 91.839 100" enable-background="new 0 0 91.839 100" xml:space="preserve"><path d="M87.015,61.706c-4.271-8.718-10.886-14.024-27.103-14.024h-1.693h-1.646c-5.898,0-9.226,0.443-14.238,2.025  C33.649,52.441,1.475,91.113,1.475,91.113c-1.966,1.966-1.966,5.149,0,7.116C2.458,99.212,3.74,99.7,5.022,99.7  c1.289,0,2.578-0.488,3.562-1.471l30.618-28.242C39.254,70.716,39.814,100,39.814,100h36.829l0.794-25.579L79.918,100h11.921  C90.315,84.05,88.271,64.265,87.015,61.706z M50.335,99.766h-8.372l27.799-49.727c2.768,0.56,5.059,1.399,7.012,2.448L50.335,99.766  z"></path><path d="M75.621,26.211c0,9.616-7.786,17.396-17.389,17.396h-0.014c-0.013,0-0.013,0-0.025,0c-9.59,0-17.383-7.78-17.383-17.396  c0-1.862,0.371-3.633,0.905-5.306h16.503h16.498C75.264,22.578,75.621,24.349,75.621,26.211z"></path><polygon points="76.155,4.623 74.717,18.216 58.219,18.216 41.715,18.216 40.276,4.623 58.219,0 "></polygon></svg>