<svg xmlns="http://www.w3.org/2000/svg" xmlns:xlink="http://www.w3.org/1999/xlink" version="1.1" x="0px" y="0px" viewBox="0 0 99.999 52.057" enable-background="new 0 0 99.999 52.057" xml:space="preserve"><path d="M99.991,30.078c0.072-0.639-0.325-1.315-1.484-2.07c-1.074-0.69-2.181-1.367-3.255-2.044  c-2.344-1.498-4.83-2.878-7.174-4.505C81.216,16.706,73.091,15,64.96,13.906c-3.333-0.43-7.063-0.248-9.856-2.305  C52.941,10,49.172,4.505,45.048,2.123C44.335,1.693,40.982,0,40.982,0s1.917,5.208,2.36,6.25c1.022,2.422-0.56,4.492-1.221,6.797  c-0.43,1.523,3.135,1.185,3.317,2.604c0.264,2.109-6.083,2.838-9.664,3.555c-5.368,1.055-11.615,3.06-16.966,1.302  C12.493,18.477,7.992,14.453,3.457,9.896c2.109,9.87,7.975,15.546,8.232,16.745c0.273,1.328-0.674,1.602-1.53,2.461  C8.271,30.963,0.026,40.455,0,43.45c2.367-0.352,5.218-2.436,7.301-3.646c2.318-1.328,11.156-7.864,13.626-8.893  c0.563-0.234,7.412-2.239,7.471-1.367c0.098,1.367-0.453,1.667-0.27,2.239c0.335,1.094,2.116,2.161,2.965,2.903  c2.21,1.914,4.704,3.581,6.266,6.107c2.188,3.528,2.289,7.33,2.907,11.263c1.458-0.17,2.946-3.19,3.75-4.388  c0.752-1.133,3.5-5.977,4.538-6.289c0.99-0.3,4.043,1.406,5.13,1.731c4.199,1.237,8.275,1.979,12.559,1.979  c5.144,0.013,18.652,0.377,28.671-7.031c1.107-0.82,3.75-3.984,3.75-3.984s-0.553-0.847-1.549-1.159  C98.442,32.044,99.874,31.133,99.991,30.078z M90.891,30.547c-1.25,0-2.266-1.016-2.266-2.266c0-1.264,1.016-2.266,2.266-2.266  c1.256,0,2.266,1.002,2.266,2.266C93.156,29.531,92.146,30.547,90.891,30.547z"></path></svg>