<svg xmlns="http://www.w3.org/2000/svg" xmlns:xlink="http://www.w3.org/1999/xlink" version="1.1" x="0px" y="0px" viewBox="0 0 100 99.997" enable-background="new 0 0 100 99.997" xml:space="preserve"><path d="M100,49.932C100,23.161,79.004,1.361,52.598,0c11.667,1.104,20.735,9.586,20.735,19.893c0,3.535-1.158,6.803-3.04,9.688  c-5.215-5.179-12.383-8.389-20.299-8.389c-7.904,0-15.072,3.209-20.28,8.385c-1.875-2.884-3.047-6.149-3.047-9.684  C26.667,9.586,35.742,1.104,47.402,0C21.002,1.361,0,23.161,0,49.932c0,8.083,1.959,15.69,5.352,22.448  c-4.635-10.573-1.816-22.467,6.992-27.559c3.066-1.774,6.491-2.402,9.928-2.207c-0.631,2.373-1.081,4.818-1.081,7.386  c0,13.297,9.102,24.411,21.367,27.711c-0.189,0.28-0.384,0.554-0.553,0.84c-0.013,0.026-0.013,0.052-0.02,0.078  c-0.391,0.905-0.925,1.628-1.511,2.272c-1.328,1.712-2.852,3.262-4.798,4.381c-8.854,5.124-20.619,1.576-27.435-7.852  C17.181,91.025,32.533,99.997,50,99.997c17.305,0,32.546-8.802,41.523-22.168c-6.855,9.121-18.405,12.507-27.136,7.468  c-3.092-1.797-5.338-4.492-6.888-7.604C69.739,74.365,78.809,63.278,78.809,50c0-2.568-0.442-5.013-1.081-7.386  c3.464-0.205,6.908,0.423,9.994,2.207c8.555,4.945,11.458,16.289,7.383,26.621C98.21,64.918,100,57.643,100,49.932z M55.312,69.189  c-0.208-4.166,0.657-8.528,2.728-12.676l-3.287-1.907c-1.211,1.228-2.885,2.002-4.753,2.002c-1.855,0-3.535-0.774-4.74-2.002  l-3.249,1.878c2.09,4.164,2.956,8.552,2.741,12.731C36.283,66.884,30,59.196,30,50c0-1.751,0.299-3.418,0.723-5.036  c3.698,1.878,7.044,4.782,9.609,8.629l3.353-1.934c-0.15-0.569-0.352-1.113-0.352-1.728c0-3.092,2.148-5.58,5-6.334v-3.822  c-4.642-0.29-8.848-1.735-12.344-4.01c3.613-3.552,8.555-5.759,14.004-5.759c5.456,0,10.397,2.207,14.01,5.762  c-3.489,2.269-7.695,3.721-12.337,4.007v3.822c2.857,0.755,5,3.242,5,6.334c0,0.615-0.189,1.159-0.346,1.728l3.405,1.967  c2.546-3.845,5.879-6.748,9.558-8.63c0.416,1.608,0.709,3.265,0.709,5.003C69.993,59.169,63.75,66.845,55.312,69.189z"></path></svg>