<svg xmlns="http://www.w3.org/2000/svg" xmlns:xlink="http://www.w3.org/1999/xlink" version="1.1" x="0px" y="0px" viewBox="0 0 100.002 80.28" enable-background="new 0 0 100.002 80.28" xml:space="preserve"><path d="M59.407,10.439c-2.229-2.326-5.239-3.498-8.947-3.504c-6.244-1.459-30.52-7.031-34.837-6.934  C8.362,0.162,1.816,9.796,0.504,15.827C-0.803,21.83-0.24,34.681,10.507,37.07l30.701,10.622c1.755,0.838,3.763,1.315,6.078,1.315  c0.879,0,1.798-0.069,2.76-0.185c8.493-1.091,13.204-13.631,13.462-25.459C63.583,20.205,63.135,14.316,59.407,10.439z   M15.175,22.376l-5.552-1.741C8.77,18.378,12.357,8.641,14.658,8.291l1.454,10.61C15.175,19.59,15.002,20.813,15.175,22.376z   M17.223,20.205c1.278,0.086,1.706,1.907,1.706,3.217c0,1.304-0.342,2.608-1.367,2.436c-1.022-0.178-1.537-3.223-1.537-3.223  C15.942,24.024,15.942,20.113,17.223,20.205z M16.539,34.376l0.169-7.307c0,0,1.367,1.218,2.39,0.259l4.782,9.478  C22.088,38.116,17.479,36.197,16.539,34.376z M25.845,25.248c-0.259,0.086-5.879-1.511-5.879-1.511  c0.244-0.925-0.086-3.027-1.287-4.061l4.334-8.244C24.188,10.008,27.511,24.685,25.845,25.248z M60.389,23.295  c-0.229,10.346-4.302,21.542-10.733,22.363c-4.125,0.528-7.31-0.27-9.386-2.39c-2.212-2.257-3.329-6.077-3.317-11.345  c0.008-7.209,3.932-21.49,12.954-21.806l0.514-0.011c2.857,0,5.121,0.861,6.752,2.562C60.211,15.822,60.436,21.146,60.389,23.295z"></path><path d="M99.922,47.933c0.908,3.785-6.169,6.922-9.541,9.599s-10.966,6.75-20.789,11.982c-9.823,5.233-22.15,9.186-30.147,7.152  c-7.993-2.039-13.815-2.384-20.614,1.861c-6.792,4.245-13.017,0.057-13.761-4.94c-0.744-5.004,13.534-13.614,20.441-13.034  c5.478,0.465,15.915-5.072,21.312-6.227c2.1-0.454,5.748-0.512,11.773-2.775c6.032-2.269,8.341-11.626,11.368-13.062  c3.625-1.711,10.668,0.977,12.586,1.591C85.469,41.011,99.003,44.153,99.922,47.933z"></path></svg>