<svg xmlns="http://www.w3.org/2000/svg" xmlns:xlink="http://www.w3.org/1999/xlink" version="1.1" x="0px" y="0px" viewBox="0 0 98.566 100" enable-background="new 0 0 98.566 100" xml:space="preserve"><g><path d="M98.566,36.96c0,10.211-8.276,18.48-18.48,18.48c-0.748,0-7.726,0-16.962,0c-5.619,0-12.043,0-18.464,0   c-16.214,0-32.222,0-33.879,0C4.827,55.44,0,53.181,0,47.224c0-5.95,4.827-10.78,10.781-10.78c1.087,0,2.117,0.212,3.107,0.51   c-0.003-0.086-0.026-0.166-0.026-0.251c0-6.944,5.629-12.576,12.573-12.576c0.295,0,0.57,0.066,0.862,0.086   c-0.01-0.292-0.086-0.563-0.086-0.854C27.21,10.456,37.666,0,50.567,0c11.655,0,21.236,8.567,22.992,19.726   c2.034-0.769,4.221-1.246,6.526-1.246C90.29,18.48,98.566,26.749,98.566,36.96z"></path></g><g><path d="M61.109,59.873H42.665c-5.407,5.439-14.18,14.252-14.282,14.252h14.779L28.383,100l33.256-29.572H50.557L61.109,59.873z"></path></g></svg>