<svg xmlns="http://www.w3.org/2000/svg" xmlns:xlink="http://www.w3.org/1999/xlink" version="1.1" x="0px" y="0px" viewBox="0 0 93.777 100" enable-background="new 0 0 93.777 100" xml:space="preserve"><path d="M0.029,9.378C5.991,4.787,26.004,0,46.903,0c23.021,0,43.01,4.262,46.874,9.378c-3.327,5.831-33.854,9.372-46.874,9.372  S2.834,16.125,0.029,9.378z"></path><path d="M93.777,12.498c-7.369,5.788-26.345,9.036-46.874,9.378c-23.121-0.378-41.587-1.99-46.874-9.378  c-0.049,0.195-1.661,18.127,28.125,28.127c20.639,6.924,9.375,18.75,9.375,18.75s-22.382,21.253-3.126,28.128  c12.062,4.292,10.92,10.116,9.375,12.498C55.478,85.28,22.148,82.667,59.404,65.626C78.52,56.872,80.918,51.78,75.027,43.751  C67.31,33.201,92.147,28.97,93.777,12.498z"></path></svg>