<svg xmlns="http://www.w3.org/2000/svg" xmlns:xlink="http://www.w3.org/1999/xlink" version="1.1" x="0px" y="0px" viewBox="0 0 95.091 99.997" enable-background="new 0 0 95.091 99.997" xml:space="preserve"><path d="M94.473,18.243c-2.902,0.267-15.113-1.991-19.543-3.257c-4.436-1.266-8.374-9.047-16.289-6.514  c-7.92,2.53-14.162-3.26-19.549-3.26c-3.727,0-5.684-0.942-7.429-1.951c-0.121-1.185-0.57-2.151-1.527-2.712  C29.512,0.185,28.827,0,28.1,0c-1.103,0-2.188,0.467-3.218,1.136L3.26,5.233V5.211H0v94.785h3.26V10.738L14.199,24.73  c0.097,0.209,0.278,0.352,0.412,0.533l0.394,0.5l0.048-0.04c0.164,0.14,0.243,0.349,0.442,0.458c0.509,0.285,1.061,0.43,1.648,0.43  c0,0,0,0,0.006,0c0.637,0,1.315-0.245,2.012-0.606c3.236,1.118,8.005,2.236,10.156,2.012c3.012-0.318,7.248,1.2,9.774,3.257  c2.533,2.058,13.762-0.633,16.289,0c2.533,0.633,10.023,5.09,13.035,6.515c3.005,1.427,14.701,0.476,16.288,0  c1.582-0.473,7.503-11.517,8.297-13.029C93.794,23.246,96.219,18.085,94.473,18.243z M18.113,9.332  c-0.994,1.87-3.103,6.169-3.969,10.035L5.369,8.147l15.386-2.915C19.331,7.132,18.332,8.923,18.113,9.332z M20.985,10.862  c1.533-2.884,3.563-5.378,5.23-6.663l2.182-0.412c0.127,1.445-1.03,5.496-3.757,10.408c-3.618,6.502-6.405,9.011-7.405,9.132  l-0.26-0.336C16.641,21.564,17.871,16.716,20.985,10.862z"></path></svg>