<svg xmlns="http://www.w3.org/2000/svg" xmlns:xlink="http://www.w3.org/1999/xlink" version="1.1" x="0px" y="0px" viewBox="0 0 100 88.347" enable-background="new 0 0 100 88.347" xml:space="preserve"><path d="M100,88.347H0v-10c1.592-0.322,6.519-3.252,10-10c4.565-8.857,10-2.5,10-2.5c-4.321,0.371-3.271,5.117-2.5,7.5  c0.928,2.842,3.418,4.609,5,5H25c1.602-0.322,4.023-3.252,7.5-10c4.57-8.857,10-2.5,10-2.5c-4.316,0.371-3.281,5.117-2.5,7.5  c0.928,2.842,3.413,4.609,5,5h2.5c1.602-0.322,4.023-3.252,7.5-10c4.57-8.857,10-2.5,10-2.5c-4.312,0.371-3.281,5.117-2.5,7.5  c0.928,2.842,3.413,4.609,5,5H70c1.592-0.322,6.538-3.252,10-10c4.585-8.857,10-2.5,10-2.5c-4.307,0.371-3.281,5.117-2.5,7.5  c0.928,2.842,3.413,4.609,5,5h7.5V88.347z"></path><path d="M85,48.345V33.701V20.845l2.5,2.5l2.5-2.5l-23.75-20l-23.75,20l2.5,2.5l2.5-2.5v27.5H45c-1.587-0.387-4.072-2.154-5-5  c-0.781-2.383-1.816-7.124,2.5-7.5c0,0-5.43-6.355-10,2.5c-3.477,6.75-5.898,9.68-7.5,10h-2.5c-1.582-0.387-4.072-2.154-5-5  c-0.771-2.383-1.821-7.124,2.5-7.5c0,0-5.435-6.355-10,2.5c-3.481,6.75-8.408,9.68-10,10v15.002c1.592-0.322,6.519-3.252,10-10  c4.565-8.857,10-2.5,10-2.5c-4.321,0.371-3.271,5.117-2.5,7.5c0.928,2.842,3.418,4.609,5,5H25c1.602-0.322,4.023-3.252,7.5-10  c4.57-8.857,10-2.5,10-2.5c-4.316,0.371-3.281,5.117-2.5,7.5c0.928,2.842,3.413,4.609,5,5h2.5c1.602-0.322,4.023-3.252,7.5-10  c4.57-8.857,10-2.5,10-2.5c-4.312,0.371-3.281,5.117-2.5,7.5c0.928,2.842,3.413,4.609,5,5H70c1.592-0.322,6.538-3.252,10-10  c4.585-8.857,10-2.5,10-2.5c-4.307,0.371-3.281,5.117-2.5,7.5c0.928,2.842,3.413,4.609,5,5h7.5V48.345H85z"></path><polygon points="6.323,14.316 23.149,14.316 23.149,19.316 39.873,9.658 23.149,0 23.149,5 6.323,5 "></polygon></svg>