<svg xmlns="http://www.w3.org/2000/svg" xmlns:xlink="http://www.w3.org/1999/xlink" version="1.1" x="0px" y="0px" viewBox="0 0 100 74.998" enable-background="new 0 0 100 74.998" xml:space="preserve"><polygon points="76.509,69.275 61.226,72.176 36.27,58.602 45.347,47.283 65.757,54.07 "></polygon><path d="M50.088,42.755c-0.664-6.207-3.096-11.126-3.521-17.12c0.049-2.053,0.029-3.557-0.249-5.505  c-0.029-1.116-0.103-2.117-0.103-3.262c0-2.183-0.239-4.365-0.239-6.326c0.01-2.776,0.439-4.912,2.134-6.404  c1.011-0.886,1.807-1.133,2.485-1.145c1.777-0.188,4.155,2.598,5.342,5.713c-1.045,0.85-1.631,1.614-1.631,1.614  c-4.043,5.662,11.206,21.853,17.266,13.14c2.593-3.728-0.752-14.446-6.885-16.567c-2.402-0.835-4.502-0.474-6.187,0.256  C57.065,3.638,54.57,0.191,50.596,0c-1.519-0.015-3.086,0.64-4.473,1.897c-2.671,2.339-3.154,5.632-3.145,8.645  c0,1.44,0.088,2.839,0.156,4.202c-0.625-0.547-1.333-1.086-2.212-1.621c-1.846-1.167-3.438-1.814-5-1.824  c-3.965,0.161-5.103,3.958-5.215,8.11c-4.214,3.447-4.99,17.847,2.48,15.359c4.048-1.357,5.801-6.58,5.4-10.146  c0,0-0.308-5.029-4.854-5.801c0.225-3.398,1.143-4.521,2.188-4.521c0.645-0.015,1.807,0.339,3.369,1.348  c2.827,1.96,3.687,2.668,4.009,4.482c0.044,1.716,0.259,5.752,0.264,5.935h0.029c0.43,6.025,1.309,10.618,1.968,16.69h-2.754  l4.805,2.268l20.415,6.787l15.879-2.261L100,44.451v-1.694L50.088,42.755z M59.209,8.589c0,0,7.324,4.973,9.395,13.896L57.051,9.903  L59.209,8.589z M31.045,32.251c-1.035-3.662,0-10.706,0-10.706l2.065-0.845L31.045,32.251z"></path><polygon points="22.773,63.143 31.953,57.615 41.523,45.774 38.535,42.757 17.397,42.757 13.198,51.121 "></polygon><polygon points="33.486,61.238 17.217,72.312 19.385,74.998 56.807,74.998 56.685,74.441 "></polygon><polygon points="0,42.757 0,55.516 10.435,49.935 13.584,42.757 "></polygon><polygon points="71.05,54.539 81.152,69.173 100,73.592 100,56.854 86.426,52.479 "></polygon><polygon points="100,53.206 100,47.283 89.409,50.154 "></polygon><polygon points="10.679,54.021 0,59.114 0,74.998 7.842,74.998 19.458,65.467 "></polygon><polygon points="66.631,74.998 91.05,74.998 79.37,72.176 "></polygon></svg>