<svg xmlns="http://www.w3.org/2000/svg" xmlns:xlink="http://www.w3.org/1999/xlink" version="1.1" x="0px" y="0px" viewBox="0 0 100 87.94" enable-background="new 0 0 100 87.94" xml:space="preserve"><polygon points="66.974,62.429 57.69,87.94 55.754,87.235 64.782,62.429 "></polygon><polygon points="54.457,62.429 45.429,87.235 47.365,87.94 56.648,62.429 "></polygon><polygon points="44.131,62.429 35.104,87.235 37.04,87.94 46.323,62.429 "></polygon><polygon points="33.806,62.429 24.778,87.235 26.714,87.94 35.998,62.429 "></polygon><polygon points="75.107,62.429 66.079,87.235 68.016,87.94 77.299,62.429 "></polygon><polygon points="23.481,62.429 14.453,87.235 16.389,87.94 25.672,62.429 "></polygon><path d="M81.245,18.749c-2.34,0-4.558,0.484-6.615,1.264C72.842,8.692,63.122,0,51.304,0C38.209,0,27.602,10.608,27.602,23.696  c0,0.296,0.081,0.571,0.094,0.867c-0.296-0.02-0.578-0.087-0.874-0.087c-7.045,0-12.759,5.714-12.759,12.759  c0,0.087,0.027,0.168,0.027,0.255c-1.008-0.302-2.05-0.518-3.153-0.518C4.894,36.972,0,41.873,0,47.91  c0,6.043,4.894,8.335,10.937,8.335c1.681,0,17.921,0,34.371,0c6.513,0,13.035,0,18.728,0c9.377,0,16.456,0,17.209,0  c10.358,0,18.755-8.389,18.755-18.748C100,27.138,91.604,18.749,81.245,18.749z"></path></svg>