<?xml version="1.0" encoding="utf-8"?><svg version="1.1" xmlns="http://www.w3.org/2000/svg" xmlns:xlink="http://www.w3.org/1999/xlink" x="0px" y="0px" viewBox="0 19.6 100 62.4" enable-background="new 0 19.6 100 62.4" xml:space="preserve"><g><path d="M32.5,19.7c-2.1,0.1-3.3,0.3-3.3,0.3C30.3,19.8,31.4,19.7,32.5,19.7z"></path><path d="M32.5,19.7c5.3-0.2,16.5,0.1,28.5,5.7C53.3,21.5,43.8,19,32.5,19.7z"></path><path d="M99.8,73.5c-1.2-0.6-2.5-0.7-3.7-1.2c-1.3-0.5-2.6-1.3-3.8-2c-0.7-0.3-0.6-2.3-0.7-3c-0.2-1-0.4-2.3-1-3.2
		c-0.4-0.5-0.5-0.8-0.2-1.3c0.2-0.4,0.6-0.9,0.7-1.3c0.6-2.1,0.9-4.5,0.1-6.6c-0.3-0.7-1.4-2.4-1.8-3C81.1,38,70.8,30,61,25.4
		c18.2,9.2,26.8,25.9,26.8,25.9c-0.9-0.4-0.6,0.1-1.6,0.2c-0.9,0.2-2.1-0.2-2.9,0.5c-0.2,0.2-0.2,0.5-0.5,0.4
		c-0.2-0.1-0.5-0.2-0.7-0.3C81.6,52,81.1,52,80.4,52c-3.3,0.3-6.5-0.4-9.7-0.1c-4.1,0.3-8.2,0.2-12.4,0.4c-0.5,0-1.1,0.1-1.6,0.1
		c-0.7,0-0.9,0.2-1.4-0.3c-0.7-0.8-1.3-1.7-2-2.5c-1.5-1.6-3.1-3-4.5-4.8c-0.6-0.8-1.3-1.7-1.9-2.5c-0.6-0.8-1.4-1.4-2.1-2.1
		c-1.6-1.6-3.3-3.7-5.6-4.3c-1.2-0.3-2,0.6-2.1,1.8c-0.1,0.7-2.5,6.1-2.3,6.1c-0.4,0.1-0.1,1-0.7,1c-2.2,0.2-2.7-4.3-5.2-3.4
		c-1.2,0.4-2.1,2.3-1.6,3.5c0.3,0.7,0.8,1.2,0,1.8c-0.6,0.5-3.2,3.8-2.9,3.7c-0.2,0-0.6,0.9-0.8,1.1c-0.4,0.4-0.7,0.6-1.2,0.7
		c-1.1,0.3-2.4,0.2-3.5,0c-1.1-0.1-2.1-0.4-3.1-0.2c-1.1,0.1-2.1,0.5-3,1.2c-0.4,0.3-0.8,0.7-1.1,1.1c-0.3,0.4-0.4,1.2-0.5,1.7
		c-1.1,4.6,3.6,3.6,5.8,4.9c0.7,0.4-1.3,2.7-1.4,3.2c-0.1,0.2-0.2,0.5-0.3,0.7c-0.2,0.5-0.2,0.4-0.7,0.2c-3.5-1.2-6.9-2.6-10.1-4.2
		c-0.3-0.1-0.4-0.3-0.6,0c-0.1,0.2-0.1,0.4,0,0.5c1.2,3,5.5,3.6,7.9,5.3c0.4,0.2,0.8,0.5,1.2,0.7c0.9,0.5,0.9,0.5,0.5,1.5
		c-0.5,1.2-1.1,2.3-1.6,3.5c-0.4,0.8-0.9,1.7-1.2,2.6c-0.2,0.6-0.3,1.6-0.7,2.1c-0.4,0.4-1.4,0.7-1.9,1.1c-0.9,0.5-1.9,0.9-2.7,1.4
		c-1.1,0.8-1.8,1-3.1,1.1c-0.4,0-2.6,0.9-1.7,1.7c0.2,0.2,1.9-1,2.3-1.1c-0.3,0.4,3-0.9,3.1-1c0.4-0.3,3.6-1.4,4-1.6
		c0.4-0.1,2.3,0.2,2.5-0.7c0.1-0.6,0.1-1.3,0.3-1.9c0.2-0.5,0.9-2.2,1-2.7c0.3-0.8,1.8-4.7,2.1-4.8c0.2,0,0.6,0.4,0.9,0.4
		c3.2,1,6.6,1.5,10,1.1c0.2,0,2-0.4,1.9-0.1c-0.2,0.7-0.9,3.6,0.2,4.2c-0.8,0.5-2.1,0.9-3,1.1c-1.2,0.2-2.4,0.6-3.6,0.7
		c-0.7,0.1-3.9,2.1-4.1,2.6c1.6-0.9,3.3-1.2,5.1-1.7c0.5-0.1,6.7-2,6.7-1.7c0.1-0.6,0.1-1.1,0.3-1.7c0.1-0.5,0.1-1,0.2-1.5
		c0.2-0.5,0.3-1,0.5-1.6c0.2-0.5,0.2-1.1,0.9-0.9c1.5,0.5,2.9,1.4,4.4,1.9c4.2,1.3,20.4,2.1,22,0.8c0.1,0.8-0.7,1.1-0.7,1.6
		c0,0.4,0.4,0.5,0.5,0.8c0-0.1-6.8,1.5-7.5,1.9c-0.6,0.4-1,0.6-1.6,0.9c-0.8,0.4-1.5,0.8-1.8,1.7c1.4,0,2.2-0.5,2.8-1
		c0.3-0.2,1-0.4,1.3-0.6c1.5-0.8,5.7-1.5,6.1-1.6c0.2-0.1,0.4-0.2,0.7-0.3c0.4-0.2,0.5-0.3,0.7,0c0.2,0.1,0.6-0.3,0.6-0.4
		c0.1-0.5,0.1-1,0.2-1.5c0.1-0.7-0.1-2.8,0.8-2.9c8.2-0.6,18.3-3.4,18.6-3.5c0.7-0.1,0.8,0.3,1.1,0.9c0.2,0.4,0.4,0.9,0.5,1.3
		c0.1,0.6,0.2,1.1,0.4,1.7c0.2,0.8,0.7,0.6,1.1,0.7c2.8,0.7,5.8,0.3,8.6,0.1c-0.2,0.3,1.6,0,2.5,0.1c0.9,0.2,1.3,0.8,2.1,1.2
		c0.6,0.3,1.4,0.2,2,0.5c0.7,0.3,2.8,0.2,3,0.5C100.1,74,100.1,73.7,99.8,73.5z M28.9,65.7c-0.3,0.3-1.2,0.3-1.6,0.4
		c-1.1,0.1-2.3,0.1-3.5,0c-2.3-0.2-4.5-0.3-6.8-0.5c0.1-0.1,0.1-0.2,0.2-0.3c0.1-0.7,0.7-0.9,0.7-1.7c0-0.6,0.7-1.4,1.2-1.7
		c1.3-0.7,3,0.1,4.3,0.3c0.7,0.1,1.4,0.1,2.2,0.1c0.7,0,1.4,0.3,2.1,0.4c0.4,0,1.8,0,1.9,0.5C29.6,63.3,29.4,65.3,28.9,65.7z
		 M32.9,48.2c-0.3,0.9-0.5,1.7-1,2.4c-0.2,0.3-0.8,0.5-0.8,0.9c0,0.5-0.5,0.4-0.9,0.4c-1.6,0-3.2,0.1-4.9,0.2
		c0.2-0.5,0.4-0.9,0.7-1.4L28,48c0.1-0.1,1.9-2.6,2.8-2.4c0.9,0.2,1.9,1.2,2.6,1.7C33.1,47.4,32.7,48.5,32.9,48.2z M33.8,51.7
		c0.5-1,0.9-1.9,1.2-3c0.4,0.3,0.8,0.5,1.2,0.8c1.3,0.7,2.4,1.9,3.5,2.9C37.9,52,35.8,51.9,33.8,51.7z M46.6,52.7
		c-0.8-0.1-1.6-0.8-2.3-1.2c-1.5-1-2.6-2.2-4.3-2.9c-0.8-0.3-1.5-0.7-2.1-1.2c-0.3-0.2-0.6-0.5-0.9-0.7c-0.6-0.4-0.9-0.4-0.6-1.1
		c0.7-1.6,1.2-3.2,2-4.8c0.2-0.3,0.3-0.7,0.5-1c0.3-0.5,0.3-0.7,0.9-0.7c0.8,0.1,1.4,0.7,2.1,1c1.3,0.7,2.3,2.2,3.1,3.4
		c1.9,2.8,3.1,6,4.3,9.2C48.3,52.9,47.6,52.9,46.6,52.7z M89.9,70.9l-5.8-0.1c-0.6,0-1.7-0.4-2.1-0.7c-0.3-0.2-0.4-0.8-0.5-1.1
		c-0.3-0.7-0.6-1.5-1-2.2c-0.2-0.4-0.5-0.9-0.4-1.3c0.1-0.2,0.2-0.3,0.4-0.4c0.1,0,0.3,0.1,0.4,0.1c0.1,0,0.2-0.2,0.3-0.2
		c0.4-0.2,0.8-0.6,1.3-0.8c0.4-0.2,0.8-0.3,1.2-0.5c0.5-0.3,0.7-0.1,1.2-0.3c0.2,0.7,0.3,1.3,0.4,2c0.1,0.4,0.4,1.6,0.9,1.6
		c0.6-0.1,1.3-0.1,1.9-0.4c0.4-0.3,0.8-1,1.1-1.5c0.4,1,0.8,1.8,1,2.9c0.1,0.5,0.2,1.1,0.3,1.6c0.1,0.4,0.1,0.7,0.2,1.1
		C90.5,70.9,90.1,70.9,89.9,70.9z"></path></g></svg>