<svg xmlns="http://www.w3.org/2000/svg" xmlns:xlink="http://www.w3.org/1999/xlink" version="1.1" x="0px" y="0px" viewBox="0 0 100 94.891" enable-background="new 0 0 100 94.891" xml:space="preserve"><polygon points="79.173,94.891 79.173,89.271 0,89.271 0,66.257 79.173,66.257 79.173,60.458 100,77.675 "></polygon><path d="M0,45.805l7.866,1.993h9.672c0-2.353,0.787-4.495,2.098-6.248H0V45.805z"></path><path d="M90.269,26.281L84.717,9.604V5.439H67.306v36.11H36.26c1.318,1.753,2.105,3.896,2.105,6.248h32.462  c0-5.753,4.667-10.414,10.421-10.414c4.046,0,7.544,2.323,9.268,5.694c0.614,1.199,1.011,2.562,1.102,3.986  c0.015,0.239,0.052,0.479,0.052,0.734H100V30.446L90.269,26.281z M72.221,26.281V13.77h9.725l4.157,12.511H72.221z"></path><path d="M27.959,40.171c-4.226,0-7.642,3.416-7.642,7.626c0,4.225,3.416,7.642,7.642,7.642c4.21,0,7.626-3.417,7.626-7.642  C35.586,43.587,32.169,40.171,27.959,40.171z M27.959,51.963c-2.308,0-4.181-1.873-4.181-4.166s1.873-4.166,4.181-4.166  c2.285,0,4.165,1.873,4.165,4.166S30.244,51.963,27.959,51.963z"></path><path d="M81.248,40.171c-4.226,0-7.642,3.416-7.642,7.626c0,4.225,3.416,7.642,7.642,7.642c4.21,0,7.642-3.417,7.642-7.642  C88.89,43.587,85.458,40.171,81.248,40.171z M81.248,51.963c-2.3,0-4.165-1.873-4.165-4.166s1.865-4.166,4.165-4.166  s4.165,1.873,4.165,4.166S83.548,51.963,81.248,51.963z"></path><rect width="63.725" height="39.167"></rect></svg>