<svg xmlns="http://www.w3.org/2000/svg" xmlns:xlink="http://www.w3.org/1999/xlink" version="1.1" x="0px" y="0px" viewBox="0 0 71.641 100" enable-background="new 0 0 71.641 100" xml:space="preserve"><path d="M62.507,42.458V19.717H52.383v22.741h-6.731V0H28.77v42.458h-4.486V15.163H9.662v27.295H0v7.585h71.641v-7.585H62.507z   M15.078,22.666h-3.281v-4.355h3.281V22.666z M22.129,22.666h-3.262v-4.355h3.262V22.666z M35.846,13.304h-5.332V9.619h5.332V13.304  z M35.846,7.497h-5.332V3.809h5.332V7.497z M43.899,13.304h-5.332V9.619h5.332V13.304z M43.899,7.497h-5.332V3.809h5.332V7.497z"></path><path d="M71.641,100H0l3.555-6.159l11.061-19.173c1.96-3.386,5.156-3.386,7.109,0c0,0,2.572,4.453,2.878,4.974  c1.471-2.552,9.316-16.146,9.316-16.146c1.959-3.386,5.15-3.386,7.109,0.007l15.58,26.992c0.801-1.394,1.595-2.768,2.207-3.822  c1.412-2.447,3.717-2.447,5.137,0c1.412,2.441,3.717,6.439,5.137,8.881L71.641,100z"></path></svg>