<?xml version="1.0" encoding="utf-8"?>
<!-- Generator: Adobe Illustrator 19.1.0, SVG Export Plug-In . SVG Version: 6.00 Build 0)  -->
<svg version="1.1" id="Layer_1" xmlns="http://www.w3.org/2000/svg" xmlns:xlink="http://www.w3.org/1999/xlink" x="0px" y="0px"
	 viewBox="-20 35.9 100 69.8" style="enable-background:new -20 35.9 100 69.8;" xml:space="preserve">
<path d="M67.3,95.1V63.4H53.1v31.7h-9.4V35.9H20.2v59.3h-6.3V57.1H-6.5v38.1H-20v10.6H80V95.1H67.3z M33.8,41.2h7.4v5.2h-7.4
	C33.8,46.4,33.8,41.2,33.8,41.2z M33.8,49.3h7.4v5.1h-7.4C33.8,54.5,33.8,49.3,33.8,49.3z M22.6,41.2H30v5.2h-7.4V41.2z M22.6,49.3
	H30v5.1h-7.4V49.3z M6.3,61.4h4.6v6.1H6.3V61.4z M-3.5,61.4H1v6.1h-4.6C-3.5,67.5-3.5,61.4-3.5,61.4z"/>
</svg>
