<svg xmlns="http://www.w3.org/2000/svg" xmlns:xlink="http://www.w3.org/1999/xlink" version="1.1" x="0px" y="0px" viewBox="0 0 100 61.219" enable-background="new 0 0 100 61.219" xml:space="preserve"><path d="M92.714,52.398V0H77.057v52.398h-4.15V14.065H59.343v38.333H0v8.821h100v-8.821H92.714z M64.355,21.018h-3.044v-4.037h3.044  V21.018z M70.904,21.018h-3.033v-4.037h3.033V21.018z M83.615,12.337h-4.937V8.922h4.937V12.337z M83.615,6.953h-4.937V3.535h4.937  V6.953z M91.097,12.337h-4.958V8.922h4.958V12.337z M91.097,6.953h-4.958V3.535h4.958V6.953z"></path><polygon points="25.206,44.244 25.206,38.781 0,38.781 0,27.669 25.206,27.669 25.206,22.084 44.396,33.166 "></polygon></svg>