<svg xmlns="http://www.w3.org/2000/svg" xmlns:xlink="http://www.w3.org/1999/xlink" version="1.1" x="0px" y="0px" viewBox="0 0 96.013 99.997" enable-background="new 0 0 96.013 99.997" xml:space="preserve"><path d="M93.317,65.804l-9.368-6.589L61.612,91l-17.65-13.308L28.65,98.454c-0.742,1.009-1.895,1.543-3.06,1.543  c-0.788,0-1.576-0.234-2.252-0.735c-1.693-1.25-2.051-3.627-0.808-5.319l19.87-26.94l17.513,13.19l17.812-25.349L68.5,48.356  l27.513-12.767L93.317,65.804z"></path><path d="M13.344,0.013c-2.656,0-4.805,2.145-4.805,4.801c0,2.65,2.148,4.801,4.805,4.801s4.811-2.151,4.811-4.801  C18.155,2.158,16,0.013,13.344,0.013z"></path><path d="M12.777,37.718l-0.97,17.721c0,0.625-0.501,1.127-1.133,1.127c-0.618,0-1.126-0.502-1.126-1.127l-0.97-17.721H5.447  l3.249-19.883l-6.53,13.001c-0.241,0.57-0.905,0.847-1.478,0.605c-0.573-0.247-0.84-0.908-0.599-1.484c0,0,4.792-12.933,5.97-15.345  c1.172-2.409,2.35-3.871,6.823-3.871h0.925c4.485,0,5.651,1.461,6.823,3.871c1.191,2.412,5.97,15.345,5.97,15.345  c0.247,0.576-0.026,1.237-0.593,1.484c-0.579,0.241-1.237-0.036-1.484-0.605l-6.523-13.001l3.242,19.883h-3.138l-0.964,17.721  c0,0.625-0.501,1.127-1.126,1.127c-0.619,0-1.126-0.502-1.126-1.127l-1.035-17.721H12.777z"></path><path d="M56.964,4.801c0,2.656-2.143,4.802-4.792,4.802c-2.663,0-4.818-2.146-4.818-4.802S49.509,0,52.172,0  C54.821,0,56.964,2.145,56.964,4.801z"></path><path d="M57.14,28.278l0.931,26.276c0.065,1.035-0.71,1.939-1.751,2.012c-0.046,0-0.085,0-0.137,0c-0.983,0-1.816-0.749-1.875-1.745  l-2.148-20.319l-2.136,20.319c-0.071,0.996-0.905,1.745-1.888,1.745c-0.039,0-0.084,0-0.137,0c-1.035-0.072-1.816-0.977-1.745-2.012  l0.918-26.276l-0.319-10.446L40.98,30.824c-0.241,0.569-0.898,0.85-1.478,0.605c-0.573-0.248-0.84-0.908-0.599-1.491  c0,0,4.134-12.926,5.312-15.338c1.178-2.406,3.008-3.867,7.487-3.867h0.918c4.485,0,6.309,1.461,7.487,3.867  c1.178,2.412,5.312,15.338,5.312,15.338c0.247,0.583-0.026,1.244-0.605,1.491c-0.566,0.244-1.237-0.036-1.479-0.605l-5.865-12.992  l-0.326,10.446H57.14z"></path><path d="M35.707,32.158c0,1.618-1.328,2.933-2.956,2.933c-1.634,0-2.956-1.315-2.956-2.933c0-1.637,1.322-2.953,2.956-2.953  C34.379,29.206,35.707,30.521,35.707,32.158z"></path><path d="M32.751,46.569c0,0-1.328,9.222-1.328,9.229c-0.169,0.449-0.605,0.769-1.113,0.769c-0.534,0-0.97-0.352-1.133-0.827  c-0.013-0.026-0.046-0.566-0.013-0.664l0.541-11.331l-0.176-3.887c-0.144-1.328-0.176-0.935-1.68-1.83  c-1.53-0.924-4.147-4.974-4.277-5.166c-0.124-0.208-0.371-0.56-0.41-0.788c-0.078-0.414,0.188-0.801,0.592-0.876  c0.312-0.059,0.566,0.111,0.755,0.316c0.208,0.218,3.216,4.225,5.469,4.609c0.514-0.075,1.055-0.342,2.487-0.342h0.573  c1.433,0,1.979,0.267,2.487,0.342c2.252-0.384,5.26-4.391,5.469-4.609c0.188-0.205,0.449-0.375,0.755-0.316  c0.404,0.075,0.671,0.462,0.599,0.876c-0.045,0.228-0.293,0.579-0.41,0.788c-0.13,0.192-2.741,4.242-4.284,5.166  c-1.504,0.895-1.523,0.501-1.687,1.83l-0.169,3.887l0.547,11.331c0.026,0.098,0,0.638-0.013,0.664  c-0.156,0.476-0.605,0.827-1.133,0.827c-0.514,0-0.938-0.319-1.12-0.769C34.08,55.791,32.751,46.569,32.751,46.569"></path></svg>