<svg xmlns="http://www.w3.org/2000/svg" xmlns:xlink="http://www.w3.org/1999/xlink" version="1.1" x="0px" y="0px" viewBox="0 0 82.399 100" enable-background="new 0 0 82.399 100" xml:space="preserve"><path d="M32.165,44.612c0.462,0.475,0.684,1.035,0.684,1.689c0,0.726-0.267,1.367-0.814,1.911c-0.541,0.541-1.244,0.879-2.116,1.016  v-5.713C30.954,43.772,31.709,44.137,32.165,44.612z"></path><path d="M25.153,36.197c0,0.515,0.195,1,0.56,1.439c0.378,0.453,0.938,0.804,1.687,1.081v-5.068  c-0.684,0.189-1.23,0.527-1.634,0.993C25.361,35.117,25.153,35.625,25.153,36.197z"></path><path d="M40.869,0.087c-6.523-0.723-8.809,3.285-12.063,3.444c-3.288-0.16-5.547-4.167-12.083-3.444  C10.055,0.829,5.999,6.503,5.999,6.503l8.138,7.568h29.317l8.138-7.568C51.592,6.503,47.543,0.829,40.869,0.087z"></path><path d="M45.654,18.948H11.943c0,0-16.198,12.741-10.866,36.231c0,0,1.765,6.774,9.896,6.774h7.949  c6.107-7.624,18.783-9.086,27.005-9.359c0.717-3.196,1.862-6.53,3.49-9.84c1.731-3.512,3.809-6.582,6.055-9.196  C52.048,23.987,45.654,18.948,45.654,18.948z M35.205,49.576c-1.27,1.208-3.034,1.95-5.286,2.227v2.734h-2.52v-2.666  c-2.005-0.201-3.633-0.83-4.883-1.888c-1.25-1.055-2.044-2.542-2.389-4.463l4.531-0.407c0.189,0.775,0.527,1.449,1.042,2.019  c0.508,0.56,1.081,0.977,1.699,1.227v-6.136c-2.272-0.543-3.933-1.374-4.994-2.477c-1.062-1.113-1.589-2.455-1.589-4.043  c0-1.595,0.593-2.943,1.797-4.03c1.198-1.087,2.793-1.719,4.786-1.878v-1.455h2.52v1.455c1.836,0.186,3.307,0.713,4.395,1.585  c1.087,0.873,1.784,2.044,2.083,3.503l-4.395,0.488c-0.267-1.149-0.957-1.94-2.083-2.344v5.723c2.78,0.638,4.674,1.458,5.67,2.471  c1.016,1.009,1.517,2.308,1.517,3.893C37.106,46.875,36.475,48.365,35.205,49.576z"></path><path d="M73.422,59.778c-0.645,1.028-1.341,1.966-2.031,2.903c3.665,1.543,5.957,3.49,5.957,5.625  c0,4.948-11.731,8.965-26.198,8.965c-14.466,0-26.198-4.017-26.198-8.965c0-4.238,8.64-7.773,20.209-8.704  c0.006-0.996,0.02-1.992,0.123-3.054c-14.752,0.69-25.99,4.467-25.99,16.094C19.293,85.703,33.428,100,50.85,100  c17.423,0,31.55-14.297,31.55-27.357C82.399,66.224,78.962,62.213,73.422,59.778z"></path><path d="M49.906,75.182l4.18-6.699l0,0c0.338-0.664-0.82-0.514-1.875-1.048l0,0c-1.055-0.54-1.608-1.562-1.94-0.905l-2.949,7.553  C46.957,74.805,49.125,76.719,49.906,75.182z"></path><path d="M52.1,57.168c-4.029-5.033-1.712-8.529-1.712-8.529c-1.328,0.974-5.762,13.145-0.319,15.932  C52.517,65.807,56.625,62.812,52.1,57.168z"></path><path d="M56.228,49.068c-4.03-5.026-1.699-8.528-1.699-8.528c-1.335,0.977-5.781,13.147-0.325,15.931  C56.645,57.721,60.752,54.729,56.228,49.068z"></path><path d="M60.238,41.217c-4.037-5.016-1.713-8.525-1.713-8.525c-1.321,0.97-5.768,13.135-0.318,15.928  C60.648,49.856,64.75,46.871,60.238,41.217z"></path><path d="M55.935,67.559c5.456,2.779,12.702-7.963,12.715-9.604c0,0-1.478,3.92-7.91,3.62C53.506,61.224,53.5,66.314,55.935,67.559z"></path><path d="M60.062,59.459c5.449,2.787,12.708-7.959,12.722-9.609c0,0-1.484,3.939-7.91,3.627  C57.634,53.138,57.621,58.216,60.062,59.459z"></path><path d="M64.073,51.604c5.455,2.786,12.701-7.959,12.708-9.603c0,0-1.472,3.945-7.897,3.62  C61.638,45.279,61.631,50.354,64.073,51.604z"></path><path d="M64.626,44.225c5.788,2.949,5.971-12.49,5.971-12.49C69.269,32.522,58.838,41.275,64.626,44.225z"></path></svg>