<svg xmlns="http://www.w3.org/2000/svg" xmlns:xlink="http://www.w3.org/1999/xlink" version="1.1" x="0px" y="0px" viewBox="0 0 99.999 95.866" enable-background="new 0 0 99.999 95.866" xml:space="preserve"><path d="M37.74,19.642c0.156-0.794,0.156-1.641,0.397-2.396h32.799c0.54,1.667,0.898,3.424,0.898,5.273  c0,9.558-7.741,17.292-17.278,17.292c-7.683,0-14.154-5.039-16.406-11.973C40.025,25.325,39.784,21.934,37.74,19.642z"></path><polygon points="26.405,95.866 34.804,95.866 34.524,86.53 "></polygon><path d="M83.163,57.799c-4.245-8.665-10.82-13.939-26.94-13.939h-1.68h-1.646c-6.048,0-10.769,0.742-14.519,2.123  c-0.039,0.013-0.091-0.013-0.13-0.007l-18.561,2.585L36.92,27.155v-0.033c1.771-2.188,1.432-5.384-0.749-7.142  c-2.168-1.771-5.397-1.445-7.135,0.755L3.521,52.194c-0.241,0.312-0.469,0.645-0.605,1.002l-1.777,2.201  c-1.224,1.51-1.504,3.606-0.631,5.364c0.813,1.758,2.584,2.891,4.524,2.917l29.642,0.352c0.612,3.04,0.788,6.406,0.788,6.406  l0.788,25.43h36.602l0.794-25.43l2.461,25.43h11.843C86.444,80.006,84.413,60.344,83.163,57.799z M46.698,95.631h-8.32l27.63-49.427  c2.748,0.553,5.026,1.393,6.967,2.435L46.698,95.631z"></path><polygon points="68.02,0 41.061,0 38.137,14.577 70.937,14.577 "></polygon><path d="M88.053,39.694l-0.573-0.566l8.235-8.262l0.605,0.56l3.679-3.724l-1.979-1.973l-3.724,3.717l0.254,0.26l-8.223,8.255  l-1.745-1.725l-2.715-2.715l-1.328,1.315l2.761,2.734l-7.832,7.826l-1.302-0.482l-0.749,0.729c2.246,1.107,4.206,2.546,5.931,4.284  L88.053,39.694z"></path></svg>