<svg xmlns="http://www.w3.org/2000/svg" xmlns:xlink="http://www.w3.org/1999/xlink" version="1.1" x="0px" y="0px" viewBox="0 0 100 93.157" enable-background="new 0 0 100 93.157" xml:space="preserve"><path d="M86.205,78.169c0,0-0.052,2.285-1.263,3.613c-1.211,1.335-5.56,4.121-5.56,4.121L65.287,74.92l0.469-21.185  c1.635-1.433,3.49-2.793,5.918-3.301c3.725-0.762,20.385-4.043,28.327-9.44c0,0-8.196-8.249-8.548-10.338  C78.113,0.819,62.911-2.13,41.087,0.969C19.42,4.048-6.576,14.315,1.51,66.021c0,0,5.091,8.333,13.796,9.772  c2.741,0.449,6.133,0.631,9.59,0.684l35.983,4.231l12.285,12.448c5.208-0.078,19.72-2.474,14.993-10.696  C87.383,81.106,86.771,79.628,86.205,78.169z M34.291,25.142l7.402,15.807l-1.523-16.354l4.538-0.423l2.767,29.564l-4.544,0.423  l-7.35-15.684L37.097,54.7l-4.532,0.43l-2.767-29.564L34.291,25.142z M15.541,53.137c-0.593-1.055-1.042-2.148-1.335-3.308  c-0.475-1.849-0.781-3.496-0.918-4.955l-1.647-17.611l4.805-0.449l1.686,18.034c0.156,1.602,0.501,2.839,1.068,3.711  c0.547,0.859,1.25,1.25,2.09,1.179c0.82-0.085,1.432-0.593,1.81-1.523c0.397-0.938,0.514-2.233,0.358-3.868l-1.686-18.034  l4.805-0.456l1.653,17.624c0.163,1.751,0.176,3.412,0.026,4.987c-0.144,1.575-0.462,2.981-0.977,4.199  c-0.495,1.217-1.062,2.09-1.687,2.623c-0.879,0.749-1.966,1.186-3.281,1.303c-0.755,0.071-1.602,0.059-2.506-0.065  c-0.924-0.124-1.712-0.449-2.37-0.989C16.777,54.999,16.146,54.205,15.541,53.137z M46.244,73.716  c2.812-1.914,5.378-4.609,6.843-5.749c1.373-1.055,4.004-4.505,6.36-7.506c-0.144,6.451-0.358,14.974-0.358,14.974L46.244,73.716z"></path></svg>