<svg xmlns="http://www.w3.org/2000/svg" xmlns:xlink="http://www.w3.org/1999/xlink" version="1.1" x="0px" y="0px" viewBox="0 0 100 95.883" enable-background="new 0 0 100 95.883" xml:space="preserve"><g><polygon points="60.906,78.384 77.833,78.384 77.833,95.883 60.906,95.883 60.906,80.767  "></polygon><path d="M91.915,7.539C86.517,2.474,79.304-0.013,70.736,0C61.459-0.013,53.75,2.917,48.243,8.802   c-5.553,5.846-8.229,13.658-8.209,22.91v2.363h15.553l0.078-2.272c0.209-5.11,1.055-8.854,2.285-11.139   c2.312-4.245,5.905-6.276,12.363-6.354c5.254,0.02,8.45,1.361,10.286,3.542c2.051,2.559,3.06,5.384,3.086,8.906   c0,2.383-0.671,4.635-2.148,6.979c-0.853,1.354-1.934,2.63-3.287,3.893l-5.026,4.87c-4.909,4.752-8.223,9.01-9.83,13.125   c-1.543,3.983-2.24,8.944-2.24,14.986v2.356h15.632v-2.356c0-4.974,0.638-8.581,1.627-10.677c0.971-2.162,3.386-5.261,7.278-8.926   c5.547-5.28,9.265-9.284,11.27-12.298c2.09-3.17,3.06-7.174,3.04-11.829C100.039,19.192,97.298,12.526,91.915,7.539z"></path></g><path d="M16.603,0c-4.512,0-8.157,3.646-8.157,8.145s3.646,8.145,8.157,8.145c4.486,0,8.131-3.646,8.131-8.145S21.089,0,16.603,0z"></path><path d="M30.073,24.752c-1.999-4.076-5.097-6.562-12.695-6.562h-0.781h-0.781c-7.598,0-10.696,2.487-12.695,6.562  C2.125,26.796,0.015,52.33,0.015,52.33c-0.156,1.511,0.931,2.852,2.435,3.008c0.104,0.014,0.195,0.02,0.293,0.02  c1.387,0,2.572-1.048,2.715-2.454l2.148-22.194l0.527,17.227L6.571,92.459c-0.111,1.758,1.211,3.294,2.962,3.411  c0.084,0.013,0.169,0.013,0.228,0.013c1.673,0,3.086-1.289,3.209-2.975l3.626-36.673l3.626,36.673  c0.124,1.686,1.536,2.975,3.209,2.975c0.059,0,0.137,0,0.228-0.013c1.751-0.117,3.073-1.653,2.962-3.411l-1.569-44.524l0.527-17.227  l2.148,22.194c0.15,1.406,1.335,2.454,2.715,2.454c0.104,0,0.195-0.006,0.293-0.02c1.511-0.156,2.598-1.497,2.435-3.008  C33.172,52.33,31.069,26.796,30.073,24.752z"></path></svg>