<svg xmlns="http://www.w3.org/2000/svg" xmlns:xlink="http://www.w3.org/1999/xlink" version="1.1" x="0px" y="0px" viewBox="0 0 100 76.631" enable-background="new 0 0 100 76.631" xml:space="preserve"><path d="M52.861,21.792c3.252-5.024,9.971-6.46,14.99-3.203c5.024,3.257,6.46,9.966,3.208,14.995  c-3.257,5.024-9.971,6.455-14.995,3.203C51.04,33.53,49.604,26.816,52.861,21.792z M8.804,67.886  c4.668-9.072,11.978-2.642,11.978-2.642c-4.424,0.391-4.639,4.517-3.843,6.958c0.952,2.915,4.214,4.033,5.83,4.429h1.421  c1.636-0.327,5.234-1.826,8.799-8.745c4.678-9.072,11.978-2.642,11.978-2.642c-4.424,0.391-4.629,4.517-3.833,6.958  c0.947,2.915,4.204,4.033,5.84,4.429h1.167c1.641-0.327,5.244-1.826,8.804-8.745c4.688-9.072,11.978-2.642,11.978-2.642  c-4.414,0.391-4.629,4.517-3.823,6.958c0.947,2.915,4.199,4.033,5.825,4.429h1.411c1.631-0.327,5.249-1.826,8.794-8.745  c4.697-9.072,11.973-2.642,11.973-2.642c-4.414,0.391-4.624,4.517-3.823,6.958c0.947,2.915,4.199,4.033,5.825,4.429H100V63.545  h-3.301c-1.602-0.391-4.795-1.484-5.728-4.316c-0.781-2.393-0.581-6.421,3.76-6.797c0,0-7.153-6.265-11.758,2.573  c-1.235,2.383-2.471,4.077-3.633,5.327L65.288,45.854L48.467,34.961l-5.972-3.872v0.005L30.537,23.35L24.761,3.394  c-0.723-2.505-3.33-3.901-5.85-3.223c-2.505,0.728-3.95,3.345-3.223,5.85l6.265,21.646c0.322,1.094,1.016,2.031,1.973,2.651  l13.433,8.696l-14.98,23.125c-1.03-0.674-1.978-1.587-2.412-2.91c-0.781-2.393-0.576-6.421,3.76-6.797c0,0-7.153-6.265-11.743,2.573  c-3.516,6.743-7.056,8.218-8.652,8.54H0v13.086C1.631,76.304,5.229,74.805,8.804,67.886z"></path></svg>