<svg xmlns="http://www.w3.org/2000/svg" xmlns:xlink="http://www.w3.org/1999/xlink" version="1.1" x="0px" y="0px" viewBox="0 0 100 96.696" enable-background="new 0 0 100 96.696" xml:space="preserve"><polygon points="87.295,96.696 70.145,60.924 53.035,96.696 40.375,96.656 63.849,47.812 41.059,0.282 53.803,0.138 70.25,34.503   86.83,0 99.212,0.138 76.514,47.596 100,96.656 "></polygon><path d="M16.745,16.421c4.524,0,8.201-3.677,8.201-8.214C24.946,3.67,21.269,0,16.745,0c-4.55,0-8.227,3.67-8.227,8.207  C8.518,12.744,12.195,16.421,16.745,16.421z"></path><path d="M33.455,52.776c0.165,1.518-0.932,2.876-2.456,3.034c-0.098,0.006-0.19,0.013-0.295,0.013c-1.392,0-2.587-1.057-2.738-2.476  l-2.167-22.383l-0.532,17.38l1.583,44.897c0.111,1.772-1.221,3.322-2.987,3.44c-0.092,0.014-0.171,0.014-0.23,0.014  c-1.688,0-3.112-1.301-3.237-3.001l-3.657-36.985l-3.657,36.985c-0.125,1.7-1.55,3.001-3.237,3.001c-0.059,0-0.144,0-0.229-0.014  c-1.766-0.118-3.099-1.668-2.988-3.44l1.576-44.897l-0.532-17.38L5.504,53.347c-0.145,1.419-1.339,2.476-2.738,2.476  c-0.099,0-0.19-0.007-0.295-0.013c-1.517-0.158-2.613-1.517-2.456-3.034c0,0,2.127-25.757,3.132-27.812  c2.016-4.117,5.141-6.625,12.803-6.625h0.788h0.788c7.663,0,10.788,2.508,12.804,6.625C31.334,27.019,33.455,52.776,33.455,52.776z"></path></svg>