<svg xmlns="http://www.w3.org/2000/svg" xmlns:xlink="http://www.w3.org/1999/xlink" version="1.1" x="0px" y="0px" viewBox="0 0 98.031 100" enable-background="new 0 0 98.031 100" xml:space="preserve"><path d="M66.951,19.075c0,10.547-8.535,19.082-19.053,19.082c-10.547,0-19.111-8.535-19.111-19.082S37.351,0,47.898,0  C58.416,0,66.951,8.528,66.951,19.075z"></path><polygon points="16.028,100 27.695,100 28.313,100 28.744,99.117 32.969,94.957 29.061,94.124 22.882,92.801 "></polygon><path d="M95.861,22.617l-4.109,4.102l0.302,0.28l-3.334,3.327c0.445,0.402,0.877,0.826,1.25,1.293l3.334-3.341l0.675,0.618  l4.053-4.11L95.861,22.617z"></path><path d="M69.523,43.789l-1.753,1.731l0.187,0.489l0.402,0.948L40.541,74.869l2.975,0.633c2.759,0.582,5.129,2.22,6.667,4.591  c0.216,0.345,0.272,0.747,0.445,1.106l0.072-0.072l2.055,1.351l0.718-0.18l8.119,5.892l5.445-7.465l-12.069-9.44L55.24,70.5  l1.983-0.007l11.868-13.916l1.308-12.473L69.523,43.789z"></path><path d="M82.426,31.439c-3.577-0.381-7.112,2.306-7.515,6.049l-0.445,4.066l0,0L74.164,44.5l-1.322,12.472l-0.114,1.171  l-0.762,0.884L61.361,71.478l8.004,6.271l2.873,2.249l-1.666,2.285l0.402,0.848c1.135,2.392,3.563,3.887,6.164,3.887  c0.373,0,0.762-0.021,1.135-0.094c3.003-0.524,5.316-2.96,5.647-5.984l4.555-41.972C88.878,35.211,86.177,31.849,82.426,31.439z"></path><path d="M68.546,85.071l-3.894,5.345l-2.228,3.054l-3.061-2.22l-6.696-4.856l-0.617,0.15l-0.244-0.165  c0,0.567-0.015,1.135-0.145,1.702c-0.114,0.568-0.33,1.085-0.546,1.609c-0.388,0.971-0.963,1.84-1.609,2.623l0.475,1.085  c0.474,1.07,1.121,2.464,1.896,3.678L53.746,100h14.34L68.546,85.071z"></path><path d="M41.303,96.472c-0.158,0-0.331-0.043-0.503-0.05c-0.058,0.302-0.115,0.524-0.115,0.524L42.294,100h3.88l2.514-0.884  c-0.848-1.315-1.537-2.752-2.169-4.203C44.938,95.833,43.214,96.472,41.303,96.472z"></path><path d="M46.906,82.039c-0.287-0.431-0.704-0.769-1.092-1.128c-0.23-0.215-0.417-0.488-0.69-0.668  c-0.704-0.481-1.523-0.854-2.399-1.049l-2.974-0.625l-6.782-1.451l0,0l-6.021-1.286l-2.328-0.503l-3.836-0.812l-0.273-0.058  l0.618-0.604l2.586-2.587l2.788-2.787c0.229,1.911,0.33,3.427,0.33,3.456l0.905,0.193l8.406,1.797l1.725-1.732l26.05-26.144  l-0.589-1.458l0.201-0.194c-3.736-1.114-8.19-1.775-13.794-1.775h-1.839c0,0-1.825,0-1.839,0c-3.937,0-7.917,0.259-11.782,1.128  c-6.667,1.509-10.791,8.033-15.36,12.53C14.203,60.917,9.634,65.73,5.05,70.5c-1.006,1.063-2.026,2.142-3.061,3.197  c-1.767,1.774-2.414,4.361-1.71,6.761c0.69,2.406,2.673,4.217,5.116,4.749l9.009,1.925l3.822,0.812l21.64,4.604  c0.489,0.094,0.963,0.145,1.437,0.145c3.146,0,5.978-2.191,6.667-5.403c0.259-1.25,0.058-2.442-0.316-3.563l-0.431-0.862  C47.107,82.621,47.007,82.348,46.906,82.039z"></path><polygon points="37.337,98.707 36.69,97.464 37.006,96.099 37.064,95.826 36.043,95.61 32.207,100 38.026,100 "></polygon></svg>