<svg xmlns="http://www.w3.org/2000/svg" xmlns:xlink="http://www.w3.org/1999/xlink" version="1.1" x="0px" y="0px" viewBox="0 0 100 82.428" enable-background="new 0 0 100 82.428" xml:space="preserve"><path d="M90.702,27.135c-3.131,0-5.673,2.541-5.673,5.661c0,3.119,2.542,5.661,5.673,5.661c3.119,0,5.66-2.542,5.66-5.661  C96.362,29.676,93.821,27.135,90.702,27.135z"></path><path d="M9.31,27.135c-3.131,0-5.673,2.541-5.673,5.661c0,3.119,2.542,5.661,5.673,5.661c3.119,0,5.661-2.542,5.661-5.661  C14.971,29.676,12.429,27.135,9.31,27.135z"></path><path d="M73.853,16.837c-4.648,0-8.418,3.782-8.418,8.431c0,4.643,3.77,8.419,8.418,8.419c4.649,0,8.431-3.776,8.431-8.419  C82.283,20.619,78.502,16.837,73.853,16.837z"></path><path d="M100,68.071h-9.599V50.403c0-3.041-0.892-5.859-2.325-8.31c0.844-0.247,1.711-0.422,2.626-0.422  c5.119,0,9.298,4.179,9.298,9.31V68.071z"></path><path d="M26.147,16.837c-4.649,0-8.431,3.782-8.431,8.431c0,4.643,3.781,8.419,8.431,8.419c4.637,0,8.418-3.776,8.418-8.419  C34.565,20.619,30.784,16.837,26.147,16.837z"></path><path d="M9.31,41.671c0.915,0,1.771,0.175,2.613,0.422c-1.445,2.451-2.324,5.269-2.324,8.31v17.668H0v-17.09  C0,45.851,4.179,41.671,9.31,41.671z"></path><path d="M49.994,0c-6.865,0-12.453,5.588-12.453,12.453c0,6.871,5.588,12.465,12.453,12.465s12.465-5.594,12.465-12.465  C62.459,5.588,56.859,0,49.994,0z"></path><path d="M87.317,74.647H72.612V47.766c0-3.697-0.976-7.136-2.554-10.219c1.205-0.355,2.47-0.608,3.794-0.608  c7.419,0,13.465,6.04,13.465,13.465V74.647z"></path><path d="M27.376,47.766v26.882H12.682V50.403c0-7.425,6.034-13.465,13.465-13.465c1.324,0,2.577,0.253,3.781,0.608  C28.352,40.63,27.376,44.068,27.376,47.766z"></path><path d="M30.459,82.428h39.07V47.766c0-10.773-8.769-19.535-19.535-19.535c-10.779,0-19.535,8.762-19.535,19.535V82.428z"></path></svg>