<svg xmlns="http://www.w3.org/2000/svg" xmlns:xlink="http://www.w3.org/1999/xlink" version="1.1" x="0px" y="0px" viewBox="0 0 64.831 100" enable-background="new 0 0 64.831 100" xml:space="preserve"><path d="M59.063,49.16c-3.842-3.867-11.068-7.005-21.68-9.427V17.884c4.283,1.562,6.939,4.538,7.955,8.938l16.771-1.849  c-1.152-5.586-3.803-10.046-7.956-13.379C50,8.255,44.408,6.23,37.383,5.534V0h-9.609v5.534c-7.604,0.625-13.685,3.021-18.262,7.175  c-4.577,4.153-6.855,9.284-6.855,15.403c0,6.035,2.019,11.166,6.055,15.404c4.05,4.225,10.404,7.383,19.063,9.473v23.411  c-2.383-0.957-4.551-2.52-6.491-4.688c-1.947-2.161-3.275-4.739-3.984-7.721L0,65.566c1.328,7.337,4.375,13.015,9.141,17.038  c4.779,4.029,10.99,6.432,18.633,7.22V100h9.609V89.538c8.619-1.042,15.352-3.867,20.182-8.496c4.844-4.609,7.266-10.3,7.266-17.051  C64.831,57.962,62.904,53.015,59.063,49.16z M27.774,37.051c-2.878-1.042-5.013-2.402-6.433-4.108  c-1.413-1.693-2.116-3.529-2.116-5.501c0-2.168,0.774-4.141,2.324-5.931c1.536-1.777,3.62-3.053,6.224-3.802V37.051z M45.469,73.308  c-2.077,2.063-4.772,3.365-8.086,3.88v-21.79c3.984,0.957,6.836,2.35,8.587,4.153c1.738,1.804,2.61,3.972,2.61,6.458  C48.581,68.809,47.545,71.23,45.469,73.308z"></path></svg>