<svg id="Layer_1" data-name="Layer 1" xmlns="http://www.w3.org/2000/svg" viewBox="0 0 15 7.1"><defs><style>.cls-1{fill:#1d1d1b;}</style></defs><title>updown</title><path class="cls-1" d="M1.26,3.13L0.44,4,0,3.4,1.33,2.19H2V7H1.26V3.13ZM3,6.54A0.53,0.53,0,0,1,3.1,6.16,0.47,0.47,0,0,1,3.45,6a0.48,0.48,0,0,1,.35.15A0.5,0.5,0,0,1,4,6.53a0.53,0.53,0,0,1-.15.38,0.47,0.47,0,0,1-.35.16,0.45,0.45,0,0,1-.19,0,0.57,0.57,0,0,1-.16-0.11A0.48,0.48,0,0,1,3,6.74,0.51,0.51,0,0,1,3,6.54ZM4.9,5.78L7.34,3.19l0.22-.25a2.59,2.59,0,0,0,.21-0.28,1.9,1.9,0,0,0,.15-0.31A0.92,0.92,0,0,0,8,2a0.87,0.87,0,0,0-.08-0.38,0.83,0.83,0,0,0-.2-0.28,0.89,0.89,0,0,0-.29-0.18,1,1,0,0,0-.35-0.06,0.89,0.89,0,0,0-.66.25A1.11,1.11,0,0,0,6.11,2L5,1.95A2.37,2.37,0,0,1,5.2,1.11,1.93,1.93,0,0,1,5.64.5,1.94,1.94,0,0,1,6.29.13,2.4,2.4,0,0,1,7.08,0a2.56,2.56,0,0,1,.8.12,1.87,1.87,0,0,1,.64.36A1.64,1.64,0,0,1,9,1.09,2.16,2.16,0,0,1,9.11,2a2.23,2.23,0,0,1-.27,1.12,4.32,4.32,0,0,1-.7.9L6.2,6H9.11V7H4.9V5.78Zm5.16,0.76a0.53,0.53,0,0,1,.15-0.37A0.46,0.46,0,0,1,10.56,6a0.48,0.48,0,0,1,.35.15,0.5,0.5,0,0,1,.15.37,0.53,0.53,0,0,1-.14.38,0.47,0.47,0,0,1-.35.16,0.44,0.44,0,0,1-.19,0,0.57,0.57,0,0,1-.16-0.11,0.48,0.48,0,0,1-.11-0.16A0.51,0.51,0,0,1,10.06,6.54Zm3-2.41h0.19l0.31,0A0.73,0.73,0,0,0,13.88,4a0.5,0.5,0,0,0,.2-0.2,0.7,0.7,0,0,0,.07-0.35A0.63,0.63,0,0,0,14,3a0.61,0.61,0,0,0-.46-0.18,0.63,0.63,0,0,0-.4.14,0.78,0.78,0,0,0-.26.39l-0.79-.23a1.61,1.61,0,0,1,.21-0.46,1.24,1.24,0,0,1,.32-0.32A1.35,1.35,0,0,1,13,2.17a1.8,1.8,0,0,1,1,0,1.31,1.31,0,0,1,.45.24,1.15,1.15,0,0,1,.31.4,1.28,1.28,0,0,1,.12.56,1.24,1.24,0,0,1-.2.69,0.93,0.93,0,0,1-.55.4h0a0.9,0.9,0,0,1,.64.4,1.37,1.37,0,0,1,.22.78,1.44,1.44,0,0,1-.12.61,1.31,1.31,0,0,1-.33.45,1.4,1.4,0,0,1-.47.27,1.77,1.77,0,0,1-.56.09A2,2,0,0,1,13,7a1.38,1.38,0,0,1-.44-0.2,1.32,1.32,0,0,1-.34-0.35A1.7,1.7,0,0,1,12,6l0.8-.23A0.88,0.88,0,0,0,13,6.2a0.66,0.66,0,0,0,.47.16,0.77,0.77,0,0,0,.28-0.05A0.74,0.74,0,0,0,14,6.15a0.73,0.73,0,0,0,.16-0.24,0.8,0.8,0,0,0,.06-0.31,0.71,0.71,0,0,0-.09-0.38A0.63,0.63,0,0,0,13.93,5a0.91,0.91,0,0,0-.31-0.11l-0.34,0H13.1V4.13Z"/></svg>