<svg xmlns="http://www.w3.org/2000/svg" xmlns:xlink="http://www.w3.org/1999/xlink" version="1.1" x="0px" y="0px" viewBox="0 0 92.972 99.999" enable-background="new 0 0 92.972 99.999" xml:space="preserve"><path d="M83.277,10.493l-13.132,12.22H22.821L9.689,10.493c0,0,6.54-9.154,17.311-10.352c10.547-1.172,14.206,5.293,19.493,5.56  c5.273-0.267,8.945-6.731,19.479-5.56C76.754,1.339,83.277,10.493,83.277,10.493z"></path><path d="M48.297,69.165v9.226c1.399-0.228,2.545-0.768,3.418-1.646c0.885-0.879,1.321-1.908,1.321-3.08  c0-1.055-0.371-1.966-1.113-2.728C51.193,70.168,49.977,69.582,48.297,69.165z"></path><path d="M40.614,57.349c0,0.84,0.299,1.615,0.898,2.324c0.599,0.729,1.504,1.303,2.718,1.745v-8.177  c-1.104,0.306-1.979,0.846-2.633,1.602C40.939,55.61,40.614,56.431,40.614,57.349z"></path><path d="M73.693,30.584H19.276c0,0-26.133,20.567-17.542,58.477c0,0,2.855,10.938,15.996,10.938h57.54  c13.125,0,15.97-10.938,15.97-10.938C99.827,51.151,73.693,30.584,73.693,30.584z M56.832,80.019  c-2.045,1.953-4.89,3.151-8.535,3.594v4.421H44.23v-4.311c-3.232-0.318-5.853-1.334-7.875-3.047  c-2.018-1.699-3.307-4.102-3.864-7.207l7.314-0.651c0.3,1.25,0.856,2.338,1.677,3.256c0.823,0.911,1.741,1.575,2.747,1.979v-9.903  c-3.659-0.879-6.348-2.22-8.053-3.997c-1.716-1.804-2.565-3.958-2.565-6.523c0-2.578,0.96-4.753,2.897-6.511  c1.937-1.751,4.508-2.767,7.721-3.034v-2.344h4.066v2.344c2.969,0.306,5.338,1.159,7.09,2.565c1.758,1.406,2.877,3.3,3.372,5.658  l-7.097,0.774c-0.43-1.849-1.549-3.118-3.365-3.776v9.238c4.485,1.035,7.539,2.357,9.16,3.984c1.634,1.635,2.441,3.725,2.441,6.289  C59.898,75.656,58.876,78.072,56.832,80.019z"></path></svg>