<svg xmlns="http://www.w3.org/2000/svg" xmlns:xlink="http://www.w3.org/1999/xlink" version="1.1" x="0px" y="0px" viewBox="0 0 99.165 100" enable-background="new 0 0 99.165 100" xml:space="preserve"><polygon points="82.737,44.563 82.027,41.417 98.441,37.658 99.165,40.818 "></polygon><rect x="80.839" y="15.836" transform="matrix(0.6231 0.7821 -0.7821 0.6231 50.0458 -55.3536)" width="3.239" height="16.831"></rect><polygon points="72.951,5.708 70.027,4.302 62.732,19.449 65.641,20.855 "></polygon><rect x="47.96" width="3.23" height="16.832"></rect><polygon points="36.419,19.449 29.125,4.302 26.201,5.708 33.51,20.855 "></polygon><rect x="8.277" y="22.632" transform="matrix(0.7817 0.6237 -0.6237 0.7817 18.7697 -5.1161)" width="16.831" height="3.239"></rect><polygon points="17.124,41.417 0.71,37.658 0,40.818 16.414,44.563 "></polygon><path d="M39.315,91.814l21.717-3.927c0.028-0.264,0.042-0.543,0.042-0.821v-2.102l-22.776,4.106  C38.494,90.046,38.842,90.965,39.315,91.814z"></path><polygon points="38.09,86.983 61.075,82.834 61.075,79.925 38.09,84.06 "></polygon><path d="M60.602,90.102l-19.937,3.592c0.654,0.724,1.406,1.337,2.255,1.838V100h13.337v-4.469  C58.291,94.306,59.85,92.385,60.602,90.102z"></path><path d="M75.526,50.48c0-14.326-11.611-25.937-25.95-25.937c-14.312,0-25.937,11.611-25.937,25.937  c0,10.204,5.889,19.017,14.451,23.263v8.2l22.984-4.148v-4.052C69.637,69.497,75.526,60.685,75.526,50.48z"></path></svg>