<svg xmlns="http://www.w3.org/2000/svg" xmlns:xlink="http://www.w3.org/1999/xlink" version="1.1" x="0px" y="0px" viewBox="0 0 86.927 100" enable-background="new 0 0 86.927 100" xml:space="preserve"><path d="M63.007,61.595c-2.181,0-3.945,1.765-3.945,3.933c0,2.161,1.765,3.926,3.945,3.926c2.162,0,3.926-1.765,3.926-3.926  C66.933,63.359,65.169,61.595,63.007,61.595z"></path><path d="M6.465,61.595c-2.175,0-3.939,1.765-3.939,3.933c0,2.161,1.764,3.926,3.939,3.926c2.168,0,3.932-1.765,3.932-3.926  C10.397,63.359,8.633,61.595,6.465,61.595z"></path><path d="M51.295,54.44c-3.223,0-5.847,2.623-5.847,5.846c0,3.236,2.624,5.859,5.847,5.859c3.235,0,5.866-2.623,5.866-5.859  C57.162,57.063,54.531,54.44,51.295,54.44z"></path><path d="M69.459,90.026h-6.66V77.754c0-2.109-0.618-4.069-1.621-5.774c0.586-0.17,1.185-0.3,1.829-0.3  c3.555,0,6.452,2.91,6.452,6.472V90.026z"></path><path d="M18.157,54.44c-3.223,0-5.846,2.623-5.846,5.846c0,3.236,2.624,5.859,5.846,5.859s5.853-2.623,5.853-5.859  C24.01,57.063,21.38,54.44,18.157,54.44z"></path><path d="M6.465,71.68c0.638,0,1.23,0.13,1.823,0.3c-1.009,1.705-1.621,3.665-1.621,5.774v12.272H0V78.151  C0,74.59,2.91,71.68,6.465,71.68z"></path><path d="M34.727,42.741c-4.766,0-8.646,3.887-8.646,8.646c0,4.778,3.88,8.659,8.646,8.659s8.659-3.881,8.659-8.659  C43.385,46.627,39.492,42.741,34.727,42.741z"></path><path d="M60.651,94.597H50.429V75.925c0-2.578-0.67-4.968-1.764-7.097c0.833-0.254,1.712-0.43,2.63-0.43  c5.156,0,9.355,4.192,9.355,9.355V94.597z"></path><path d="M19.017,75.925v18.672H8.809V77.754c0-5.163,4.192-9.355,9.349-9.355c0.925,0,1.797,0.176,2.63,0.43  C19.694,70.957,19.017,73.347,19.017,75.925z"></path><path d="M21.159,100h27.136V75.925c0-7.494-6.087-13.574-13.568-13.574c-7.494,0-13.568,6.08-13.568,13.574V100z"></path><path d="M77.044,0H42.838c-5.449,0-9.883,4.427-9.883,9.876v16.185c0,5.456,4.434,9.89,9.883,9.89h3.496v12.936l12.942-12.936  h17.768c5.449,0,9.883-4.434,9.883-9.89V9.876C86.927,4.427,82.494,0,77.044,0z M83.378,26.061c0,3.503-2.845,6.348-6.334,6.348  H57.812l-7.93,7.93v-7.93h-7.044c-3.49,0-6.334-2.845-6.334-6.348V9.876c0-3.496,2.845-6.341,6.334-6.341h34.206  c3.489,0,6.334,2.845,6.334,6.341V26.061z"></path></svg>