<svg xmlns="http://www.w3.org/2000/svg" xmlns:xlink="http://www.w3.org/1999/xlink" version="1.1" x="0px" y="0px" viewBox="0 0 100 100.336" enable-background="new 0 0 100 100.336" xml:space="preserve"><path d="M85.469,74.737c5.254,0,10.69,4.135,12.129,9.173l2.058,7.285c1.426,5.039-1.706,9.16-6.953,9.141L7.369,100.29  c-5.254,0-8.405-4.146-7.057-9.205l1.953-7.142c1.364-5.071,6.784-9.206,12.008-9.206H85.469z"></path><path d="M93.796,0H6.203C4.006,0,2.206,1.784,2.206,3.997v61.001c0,2.194,1.8,3.997,3.997,3.997h87.593  c2.213,0,3.997-1.803,3.997-3.997V3.997C97.793,1.784,96.009,0,93.796,0z M89.798,61.001H10.201V7.995h79.597V61.001z"></path></svg>