<svg xmlns="http://www.w3.org/2000/svg" xmlns:xlink="http://www.w3.org/1999/xlink" version="1.1" x="0px" y="0px" viewBox="0 0 72.065 100" enable-background="new 0 0 72.065 100" xml:space="preserve"><path d="M42.762,68.147c0,3.719-3.017,6.735-6.724,6.735c-3.718,0-6.735-3.017-6.735-6.735c0-3.706,3.017-6.724,6.735-6.724  C39.746,61.424,42.762,64.441,42.762,68.147z"></path><path d="M45.65,85.863c0-5.309-4.314-9.612-9.611-9.612c-5.32,0-9.624,4.304-9.624,9.612l0,0V100H45.65V85.863L45.65,85.863z"></path><path d="M62.454,61.424c-3.719,0-6.735,3.018-6.735,6.724c0,3.719,3.017,6.735,6.735,6.735c3.707,0,6.724-3.017,6.724-6.735  C69.177,64.441,66.161,61.424,62.454,61.424z"></path><path d="M72.065,85.863c0-5.309-4.314-9.612-9.611-9.612c-5.309,0-9.612,4.304-9.612,9.612l0,0V100h19.224V85.863L72.065,85.863z"></path><path d="M9.624,61.424c-3.718,0-6.735,3.018-6.735,6.724c0,3.719,3.017,6.735,6.735,6.735c3.707,0,6.712-3.017,6.712-6.735  C16.335,64.441,13.331,61.424,9.624,61.424z"></path><path d="M19.224,85.863c0-5.309-4.303-9.612-9.6-9.612C4.303,76.251,0,80.555,0,85.863l0,0V100h19.224V85.863L19.224,85.863z"></path><path d="M36.039,0c-4.292,0-7.776,3.484-7.776,7.776s3.484,7.776,7.776,7.776c4.291,0,7.765-3.484,7.765-7.776S40.33,0,36.039,0z"></path><path d="M47.135,27.853c0-6.127-4.97-11.097-11.097-11.097c-6.139,0-11.108,4.97-11.108,11.097l0,0v16.324h22.205V27.853  L47.135,27.853z"></path><polygon points="36.635,52.298 36.635,47.428 35.431,47.428 35.431,52.298 9.004,52.298 9.004,59.284 10.208,59.284 10.208,53.502   35.431,53.502 35.431,59.284 36.635,59.284 36.635,53.502 61.845,53.502 61.845,59.284 63.049,59.284 63.049,52.298 "></polygon></svg>