<svg xmlns="http://www.w3.org/2000/svg" xmlns:xlink="http://www.w3.org/1999/xlink" version="1.1" x="0px" y="0px" viewBox="0 0 100 99.987" enable-background="new 0 0 100 99.987" xml:space="preserve"><path d="M24.57,32.246l-8.932-6.243C22.721,15.879,33.88,9.499,46.029,8.333V0l23.529,13.581L46.029,27.162v-7.91  C37.435,20.365,29.609,25.046,24.57,32.246z"></path><path d="M19.245,53.971h7.917L13.581,30.443L0,53.971h8.333c1.159,12.148,7.539,23.308,17.669,30.391l6.237-8.938  C25.039,70.391,20.365,62.559,19.245,53.971z"></path><path d="M53.984,80.736v-7.91L30.456,86.407l23.529,13.58v-8.333c12.136-1.165,23.281-7.539,30.364-17.649l-8.919-6.257  C70.391,74.942,62.552,79.616,53.984,80.736z"></path><path d="M91.667,46.016c-1.172-12.142-7.553-23.288-17.67-30.384l-6.25,8.926c7.201,5.045,11.875,12.877,12.995,21.458h-7.903  l13.58,23.529L100,46.016H91.667z"></path></svg>