<svg xmlns="http://www.w3.org/2000/svg" xmlns:xlink="http://www.w3.org/1999/xlink" version="1.1" x="0px" y="0px" viewBox="0 0 100 59.948" enable-background="new 0 0 100 59.948" xml:space="preserve"><path d="M89.863,13.32c0,5.97-4.844,10.794-10.788,10.794c-5.982,0-10.82-4.824-10.82-10.794c0-5.97,4.838-10.801,10.82-10.801  C85.019,2.52,89.863,7.351,89.863,13.32z"></path><path d="M80.104,26.66h-1.029h-1.048c-10.078,0-14.187,3.275-16.836,8.692c-0.794,1.634-2.122,14.563-3.054,24.596h7.396  l1.607-16.68l0.508,16.68h22.826l0.508-16.68l1.614,16.68H100c-0.931-10.032-2.259-22.962-3.066-24.596  C94.296,29.935,90.188,26.66,80.104,26.66z"></path><path d="M23.6,12.279c0.098-0.488,0.098-1.022,0.248-1.491h20.511c0.335,1.048,0.56,2.148,0.56,3.294  c0,5.977-4.837,10.82-10.804,10.82c-4.805,0-8.848-3.157-10.26-7.493C25.029,15.84,24.879,13.718,23.6,12.279z"></path><polygon points="16.513,59.948 21.764,59.948 21.588,54.115 "></polygon><path d="M52.004,36.153c-2.653-5.423-6.767-8.718-16.846-8.718h-1.051h-1.029c-3.782,0-6.731,0.462-9.079,1.322  c-0.026,0.013-0.059-0.013-0.082-0.007l-11.608,1.615l10.775-13.379v-0.02c1.11-1.374,0.898-3.366-0.466-4.466  c-1.357-1.106-3.375-0.905-4.463,0.469L2.203,32.643c-0.15,0.195-0.296,0.404-0.381,0.619l-1.113,1.38  c-0.762,0.944-0.938,2.259-0.391,3.359c0.508,1.101,1.615,1.81,2.829,1.823l18.535,0.221c0.384,1.895,0.492,4.004,0.492,4.004  l0.495,15.898h22.884l0.498-15.898l1.54,15.898h7.402C54.055,50.033,52.786,37.741,52.004,36.153z M29.202,59.805H24L41.279,28.9  c1.712,0.345,3.141,0.866,4.355,1.523L29.202,59.805z"></path><polygon points="42.532,0 25.676,0 23.847,9.115 44.358,9.115 "></polygon><path d="M55.058,24.824l-0.352-0.352l5.144-5.169l0.384,0.358l2.298-2.337l-1.236-1.23l-2.331,2.324l0.156,0.163l-5.144,5.163  l-1.087-1.081l-1.696-1.699l-0.83,0.82l1.725,1.712l-4.896,4.902l-0.813-0.312l-0.469,0.456c1.403,0.696,2.63,1.588,3.704,2.682  L55.058,24.824z"></path></svg>