<svg id="Layer_1" data-name="Layer 1" xmlns="http://www.w3.org/2000/svg" viewBox="0 0 14.69 15"><title>training</title><path d="M0.23,4.4a2,2,0,1,1,2,2A2,2,0,0,1,.23,4.4ZM9,6.25a0.67,0.67,0,0,0-.92.22L6.74,8.64l-1.86-1A3.78,3.78,0,0,0,2.4,6.84H2c-2.41.28-2,2.21-2,2.21L0.32,15l4.24,0L4.39,9.05l2.26,1.07a0.66,0.66,0,0,0,.33.08,0.67,0.67,0,0,0,.57-0.32L9.21,7.17A0.67,0.67,0,0,0,9,6.25ZM3.63,6a2.22,2.22,0,0,1-.48.32V6.68a3.28,3.28,0,0,1,.48.09V6ZM14.69,0H3.14V2.44a2.18,2.18,0,0,1,.48.32V0.48H14.21V7.72H9.11L8.82,8.2h5.87V0ZM6.77,8.2l0.29-.48H5.52L6.38,8.2H6.77Zm4.08-4.88-0.23-.13L9,6,9.23,6.14Z"/></svg>