<svg xmlns="http://www.w3.org/2000/svg" xmlns:xlink="http://www.w3.org/1999/xlink" version="1.1" x="0px" y="0px" viewBox="0 0 83.825 100" enable-background="new 0 0 83.825 100" xml:space="preserve"><g><path d="M20.934,0v17.968H2.965v68.507L0.742,88.5c-0.925,0.834-0.996,2.279-0.153,3.203l2.376,2.624v4.505h4.072l0.384,0.423   c0.836,0.932,2.266,0.996,3.19,0.156l0.638-0.579h54.608V80.857h17.968V0H20.934z M14.879,95.538l14.882-13.509   c0.928-0.84,0.99-2.292,0.153-3.21l-6.833-7.552c-0.837-0.924-2.279-0.989-3.203-0.156l-13.62,12.37V21.263h56.304v15.312   c0,0,0.006,0,0.006,0.013c-4.361-3.691-9.928-5.996-16.087-5.996c-13.844,0-25.067,11.23-25.067,25.064   c0,13.848,11.224,25.071,25.067,25.071c6.152,0,11.719-2.305,16.081-5.983v20.794H14.879z M46.482,73.943   c-10.094,0-18.274-8.184-18.274-18.287c0-10.084,8.18-18.274,18.274-18.274c10.098,0,18.274,8.19,18.274,18.274   C64.757,65.76,56.58,73.943,46.482,73.943z M80.531,77.563H65.857v-6.165c0,0-0.007,0-0.007,0.013   c3.51-4.323,5.703-9.759,5.703-15.755c0-5.983-2.188-11.413-5.696-15.722V17.968h-41.63V3.294h56.304V77.563z"></path></g></svg>