<svg xmlns="http://www.w3.org/2000/svg" xmlns:xlink="http://www.w3.org/1999/xlink" version="1.1" x="0px" y="0px" viewBox="0 0 70.38 100" enable-background="new 0 0 70.38 100" xml:space="preserve"><polygon points="30.94,73.926 49.365,58.626 54.86,64.231 30.784,88.308 16.536,74.056 24.088,66.484 "></polygon><polygon points="49.43,31.517 43.662,25.749 33.307,36.1 22.959,25.749 17.184,31.517 27.536,41.869 17.181,52.227 22.956,57.995   33.307,47.643 43.662,57.995 49.43,52.227 39.079,41.869 "></polygon><path d="M56.044,9.603V7.298H44.482C43.441,3.119,39.697,0,35.186,0c-4.502,0-8.246,3.119-9.281,7.298H14.336v2.305H0V100h70.38  V9.603H56.044z M35.198,4.642c1.891,0,3.483,1.094,4.323,2.656h-8.659C31.699,5.736,33.291,4.642,35.198,4.642z M62.633,92.578  H7.754V17.025h6.582v4.577h41.708v-4.577h6.589V92.578z"></path></svg>