<svg xmlns="http://www.w3.org/2000/svg" xmlns:xlink="http://www.w3.org/1999/xlink" version="1.1" x="0px" y="0px" viewBox="0 0 83.307 100" enable-background="new 0 0 83.307 100" xml:space="preserve"><path d="M76.029,47.252H18.737c-0.339-0.924-1.888-1.641-3.841-1.641s-3.502,0.716-3.841,1.641H7.279  C3.255,47.252,0,50.508,0,54.519v38.203C0,96.758,3.255,100,7.279,100h68.75c4.023,0,7.278-3.242,7.278-7.278V54.519  C83.307,50.508,80.052,47.252,76.029,47.252z M41.667,94.817c-12.044-0.013-21.81-9.766-21.81-21.81  c0-12.031,9.766-21.784,21.81-21.784c12.031,0,21.784,9.753,21.784,21.784C63.451,85.052,53.698,94.817,41.667,94.817z"></path><path d="M59.583,73.008c0,9.909-8.034,17.93-17.917,17.93c-9.909,0-17.943-8.021-17.943-17.93c0-9.896,8.034-17.917,17.943-17.917  C51.549,55.091,59.583,63.112,59.583,73.008z"></path><path d="M62.383,0H20.925c-1.016,0-1.849,0.82-1.849,1.836v21.172c0,1.016,0.833,1.836,1.849,1.836h4.805  c0,0.039-0.052,0.065-0.052,0.104l1.914,19.05c0,0.911,0.768,1.653,1.667,1.653h24.792c0.925,0,1.654-0.742,1.654-1.653l1.927-19.05  c0-0.039-0.052-0.065-0.052-0.104h4.805c1.016,0,1.849-0.82,1.849-1.836V1.836C64.232,0.82,63.399,0,62.383,0z M61.458,21.354  c0,0.859-0.69,1.562-1.55,1.562h-36.51c-0.872,0-1.549-0.703-1.549-1.562V3.477c0-0.846,0.677-1.549,1.549-1.549h36.51  c0.859,0,1.55,0.703,1.55,1.549V21.354z"></path></svg>