<svg xmlns="http://www.w3.org/2000/svg" xmlns:xlink="http://www.w3.org/1999/xlink" version="1.1" x="0px" y="0px" viewBox="0 0 66.667 100" enable-background="new 0 0 66.667 100" xml:space="preserve"><path d="M33.333,0C14.922,0,0,14.922,0,33.333C0,47.617,9.023,59.7,21.647,64.453L25,74.636L33.333,100l8.333-25.364l3.354-10.183  c12.617-4.753,21.646-16.836,21.646-31.12C66.667,14.922,51.732,0,33.333,0z M32.78,43.333c-5.521,0-10-4.479-10-10  c0-5.521,4.479-10,10-10s10,4.479,10,10C42.78,38.854,38.301,43.333,32.78,43.333z"></path></svg>