<svg xmlns="http://www.w3.org/2000/svg" xmlns:xlink="http://www.w3.org/1999/xlink" version="1.1" x="0px" y="0px" viewBox="0 0 100 98.854" enable-background="new 0 0 100 98.854" xml:space="preserve"><polygon points="7.565,60.365 35.143,60.365 29.199,98.555 13.047,98.555 "></polygon><path d="M74.265,45.43c5.267-0.013,10.025-2.129,13.47-5.573c3.477-3.463,5.599-8.209,5.586-13.477  c0-5.267-2.129-10.026-5.586-13.47c-3.45-3.463-8.203-5.586-13.47-5.586c-5.261,0-10.014,2.109-13.471,5.586  c-3.457,3.444-5.586,8.19-5.586,13.47c0,5.267,2.123,10.026,5.586,13.477C64.238,43.301,68.997,45.43,74.265,45.43z"></path><path d="M73.665,0c-13.45-0.013-24.433,10.137-26.002,23.184H33.919c-0.859-0.95-2.083-1.575-3.47-1.575H4.713  c-2.61,0-4.713,2.109-4.713,4.72c0,2.604,2.103,4.701,4.713,4.701h25.736c1.387,0,2.611-0.619,3.47-1.569h13.743  c1.562,13.04,12.552,23.183,26.002,23.183C88.216,52.643,100,40.866,100,26.328C99.993,11.777,88.216-0.013,73.665,0z   M89.401,41.523c-3.861,3.861-9.219,6.263-15.137,6.276c-5.925,0-11.283-2.416-15.144-6.276c-3.874-3.874-6.276-9.238-6.276-15.156  c0-5.898,2.409-11.25,6.276-15.13c3.887-3.874,9.238-6.276,15.144-6.276c5.904,0,11.263,2.402,15.137,6.276  c3.873,3.88,6.275,9.231,6.275,15.143C95.677,32.285,93.288,37.637,89.401,41.523z"></path><path d="M47.441,97.201c1.126,1.101,2.52,1.653,4.173,1.653h41.94c1.66,0,3.047-0.553,4.18-1.653c1.12-1.087,1.68-2.454,1.68-4.108  H45.742C45.742,94.747,46.309,96.114,47.441,97.201z"></path><path d="M97.051,70.456c-0.534-1.224-1.243-2.285-2.148-3.17c-0.886-0.893-1.96-1.615-3.171-2.136  c-1.236-0.54-2.539-0.801-3.932-0.801H54.395v22.175c0,1.451,0.476,2.649,1.438,3.574c0.957,0.924,2.129,1.393,3.522,1.393h22.48  c1.394,0,2.565-0.469,3.522-1.393c0.97-0.925,1.451-2.123,1.451-3.574v-2.188h0.99c1.393,0,2.695-0.268,3.932-0.801  c1.211-0.527,2.285-1.244,3.171-2.143c0.905-0.892,1.614-1.927,2.148-3.111c0.527-1.205,0.788-2.5,0.788-3.894  S97.578,71.7,97.051,70.456z M92.136,78.607c-1.179,1.172-2.617,1.751-4.336,1.751h-0.99V68.321h0.99  c1.719,0,3.157,0.579,4.336,1.738c1.152,1.172,1.725,2.623,1.725,4.329C93.86,76.042,93.288,77.448,92.136,78.607z"></path></svg>