<svg xmlns="http://www.w3.org/2000/svg" xmlns:xlink="http://www.w3.org/1999/xlink" version="1.1" x="0px" y="0px" viewBox="0 0 92.967 100" enable-background="new 0 0 92.967 100" xml:space="preserve"><path d="M83.281,10.474l-13.139,12.24H22.824L9.692,10.474c0,0,6.537-9.134,17.312-10.332C37.551-1.031,41.21,5.441,46.49,5.688  c5.268-0.248,8.952-6.719,19.479-5.547C76.757,1.339,83.281,10.474,83.281,10.474z"></path><path d="M73.698,30.578H19.276c0,0-26.126,20.566-17.546,58.471c0,0,2.858,10.95,15.997,10.95h57.54  c13.112,0,15.971-10.95,15.971-10.95C99.818,51.145,73.698,30.578,73.698,30.578z M68.528,42.173c0,0-6.374,18.848-12.298,12.93  C50.332,49.205,66.582,42.603,68.528,42.173z M53.352,38.547c0,0-4.245,3.359-1.309,11.133c3.294,8.718-2.917,10.755-5.41,8.255  C41.06,52.356,51.333,39.217,53.352,38.547z M45.318,46.568c0,0-4.245,3.373-1.309,11.133c3.301,8.73-2.917,10.769-5.417,8.275  C33,60.39,43.3,47.238,45.318,46.568z M32.395,81.919l-7.787,6.557c-1.562,1.575-3.47-1.621-2.728-2.37l6.614-8.079  c0.671-0.684,0.951,0.794,2.025,1.881C31.594,80.969,33.065,81.25,32.395,81.919z M30.311,74.244  c-5.586-5.566,4.694-18.718,6.739-19.388c0,0-4.251,3.359-1.315,11.133C39.035,74.707,32.798,76.757,30.311,74.244z M36.32,80.259  c-2.52-2.513-0.475-8.736,8.255-5.442c7.754,2.942,11.133-1.296,11.133-1.296C55.051,75.527,41.894,85.827,36.32,80.259z   M44.589,71.972c-2.513-2.5-0.456-8.718,8.255-5.443c7.78,2.943,11.146-1.282,11.146-1.282  C63.313,67.258,50.168,77.551,44.589,71.972z M52.623,63.938c-2.5-2.5-0.475-8.725,8.275-5.43c7.74,2.956,11.133-1.296,11.133-1.296  C71.354,59.238,58.196,69.517,52.623,63.938z"></path></svg>