<svg xmlns="http://www.w3.org/2000/svg" xmlns:xlink="http://www.w3.org/1999/xlink" version="1.1" x="0px" y="0px" viewBox="0 0 100 82.842" enable-background="new 0 0 100 82.842" xml:space="preserve"><path d="M37.202,30.811c1.953,0.02,3.936,0.083,5.742,0.181l-7.803-10.762c-1.157-0.645-5.327-3.315-8.618-4.355l0.156-0.684  c0.029,0,6.562,1.05,9.727,3.857l8.667,11.895l0.312,0.234c0.938,0.088,1.831,0.19,2.573,0.303l-6.973-9.561l2.573-7.612  c-0.332-3.32-5.723-13.853-5.732-13.862l0.547-0.435c4.321,3.589,6.953,14.409,6.953,14.409l-2.402,7.197l5.439,7.437  c-0.161-1.294-0.249-2.808-0.249-4.468c0.142-4.575,0.361-8.164,1.851-8.535c1.504,0.371,1.719,3.95,1.86,8.535  c0,1.641-0.098,3.135-0.244,4.429l5.405-7.397l-2.412-7.388C55.034,13.008,58.018,2.92,61.558,0l0.532,0.444  c0,0.01-5.405,10.542-5.757,13.721l2.598,7.744l-6.978,9.551c0.752-0.083,1.636-0.195,2.593-0.283l0.303-0.234l8.701-11.953  c3.115-2.749,9.653-3.789,9.688-3.809l0.171,0.693c-3.301,1.03-7.441,3.682-8.633,4.355l-7.793,10.762  c1.807-0.098,3.77-0.161,5.747-0.161c6.86,0.103,13.76,0.557,14.048,3.667c0,0.312-0.078,0.62-0.234,0.913  c-0.825,1.655-3.115,2.09-5.962,2.119c-4.937,0-11.753-1.553-16.172-2.686l-1.396,1.313c1.616,0.503,4.121,1.543,5.825,3.345  l0.2,0.322l0.82,6.606l4.59,5.61l-0.522,0.483l-5.684-5.312l-0.806-6.621c-1.431-1.504-3.94-2.456-5.337-2.876  c-0.186,0.42-0.444,0.806-0.815,1.079c-0.02,0.093-0.039,0.181-0.049,0.254l0.02-0.01c0.82,0,1.87,0.371,1.865,1.533  c0.005,0.063,0.005,0.142,0,0.181c-0.176,1.338-1.489,2.095-2.329,2.5l-0.425,7.778l-0.703,0.01l-0.762-7.91  c-0.815-0.454-1.929-1.191-2.056-2.388c0-0.059-0.015-0.122-0.015-0.171c0-1.152,1.055-1.533,1.86-1.533h0.01  c-0.01-0.073-0.034-0.166-0.034-0.244c-0.381-0.283-0.64-0.669-0.811-1.094c-1.416,0.435-3.931,1.357-5.278,2.7l-1.025,7.012  l-5.571,5.112l-0.503-0.483l4.512-5.454l0.986-6.953l0.103-0.122c1.704-1.821,4.214-2.832,5.815-3.354l-1.377-1.313  c-4.414,1.162-11.245,2.686-16.177,2.695c-2.847-0.039-5.142-0.474-5.972-2.129c-0.146-0.293-0.215-0.596-0.21-0.894  C23.433,31.377,30.332,30.923,37.202,30.811z"></path><path d="M98.853,57.568c0.64-0.22,1.147-0.713,1.147-1.426c0-0.898-0.728-1.626-1.626-1.626H1.626C0.728,54.517,0,55.244,0,56.143  c0,0.679,0.474,1.147,1.064,1.392c0.024,0.088,0.029,0.181,0.098,0.244l5.269,5.269l-3.887,3.882l-0.522-0.522  c-0.234-0.234-0.625-0.234-0.859,0s-0.234,0.625,0,0.859l0.527,0.532l-0.527,0.527c-0.234,0.234-0.229,0.62,0.005,0.854  c0.117,0.117,0.269,0.176,0.425,0.176s0.312-0.063,0.43-0.181l0.522-0.527l3.892,3.882l-3.892,3.882l-0.522-0.527  c-0.234-0.234-0.62-0.239-0.854-0.005s-0.239,0.62-0.005,0.854l0.527,0.527l-0.527,0.532c-0.234,0.234-0.234,0.62,0,0.859  c0.117,0.117,0.273,0.176,0.43,0.176s0.312-0.059,0.43-0.176l0.522-0.527l3.97,3.97V82.1c-0.015,0.049-0.054,0.083-0.054,0.137  s0.039,0.093,0.054,0.137c0.029,0.103,0.039,0.215,0.117,0.293c0.122,0.117,0.273,0.176,0.43,0.176H7.52  c0.171,0,0.322-0.073,0.43-0.181c0.024-0.024,0.015-0.054,0.034-0.078c0.078-0.098,0.142-0.21,0.142-0.347c0,0,0,0,0-0.005  c0-0.049-0.049-0.088-0.059-0.142l3.96-3.97l3.965,3.975V82.1c-0.015,0.049-0.059,0.083-0.059,0.137s0.044,0.093,0.059,0.137  c0.029,0.103,0.039,0.215,0.117,0.293c0.117,0.117,0.273,0.176,0.43,0.176h0.459c0.171,0,0.322-0.073,0.43-0.181  c0.024-0.024,0.015-0.054,0.034-0.078c0.073-0.098,0.142-0.21,0.142-0.347c0,0,0,0,0-0.005c0-0.049-0.049-0.088-0.063-0.142  l3.97-3.965l3.97,3.97L25.474,82.1c-0.015,0.049-0.059,0.083-0.059,0.137s0.044,0.093,0.059,0.137  c0.024,0.103,0.034,0.215,0.117,0.293c0.117,0.117,0.273,0.176,0.43,0.176h0.454c0.156,0,0.312-0.059,0.43-0.176  c0.078-0.078,0.093-0.19,0.117-0.293c0.015-0.044,0.059-0.083,0.059-0.137s-0.044-0.088-0.059-0.137v-0.005l3.975-3.97l3.96,3.97  V82.1c-0.015,0.049-0.059,0.083-0.059,0.137s0.044,0.093,0.059,0.137c0.024,0.103,0.034,0.215,0.117,0.293  c0.117,0.117,0.273,0.176,0.43,0.176h0.459c0.166,0,0.317-0.073,0.43-0.181c0.02-0.024,0.015-0.054,0.029-0.078  c0.078-0.098,0.142-0.21,0.142-0.347c0,0,0,0,0-0.005c0-0.049-0.044-0.088-0.059-0.142l3.97-3.97l3.965,3.965L44.434,82.1  c-0.015,0.049-0.054,0.083-0.054,0.137s0.039,0.093,0.054,0.137c0.024,0.103,0.039,0.215,0.117,0.293  c0.122,0.117,0.278,0.176,0.435,0.176h0.454c0.151,0,0.308-0.059,0.425-0.176c0.054-0.049,0.059-0.132,0.088-0.2  c0.034-0.078,0.093-0.142,0.093-0.225v-0.005c0-0.054-0.044-0.093-0.054-0.142l3.965-3.97l3.96,3.97V82.1  c-0.015,0.049-0.059,0.083-0.059,0.137s0.044,0.093,0.059,0.137c0.029,0.103,0.039,0.215,0.117,0.293  c0.117,0.117,0.273,0.176,0.43,0.176h0.459c0.171,0,0.322-0.073,0.43-0.181c0.024-0.024,0.015-0.054,0.034-0.078  c0.073-0.098,0.142-0.21,0.142-0.347c0,0,0,0,0-0.005c0-0.049-0.049-0.088-0.063-0.142l3.97-3.97l3.975,3.97  c-0.015,0.054-0.063,0.093-0.063,0.142c0,0.005,0,0.005,0,0.005c0,0.137,0.068,0.249,0.142,0.347c0.02,0.024,0.01,0.054,0.034,0.078  c0.107,0.107,0.259,0.181,0.43,0.181h0.459c0.156,0,0.312-0.059,0.43-0.176c0.078-0.078,0.093-0.19,0.117-0.293  c0.015-0.044,0.059-0.083,0.059-0.137s-0.044-0.088-0.059-0.137v-0.005l3.965-3.965l3.97,3.97c-0.015,0.054-0.059,0.083-0.059,0.137  c0,0.337,0.269,0.605,0.605,0.605h0.449c0.332,0,0.605-0.269,0.605-0.605c0-0.054-0.044-0.083-0.059-0.132l3.975-3.975l3.96,3.965  V82.1c-0.015,0.049-0.054,0.083-0.054,0.137s0.039,0.093,0.054,0.137c0.024,0.103,0.039,0.215,0.117,0.293  c0.122,0.117,0.278,0.176,0.435,0.176h0.454c0.171,0,0.322-0.073,0.43-0.181c0.024-0.024,0.015-0.054,0.034-0.078  c0.078-0.098,0.142-0.21,0.142-0.347c0,0,0,0,0-0.005c0-0.049-0.044-0.088-0.054-0.142l3.96-3.965l3.97,3.97V82.1  c-0.015,0.049-0.059,0.083-0.059,0.137s0.044,0.093,0.059,0.137c0.024,0.103,0.039,0.215,0.117,0.293  c0.117,0.117,0.273,0.176,0.43,0.176h0.459c0.171,0,0.322-0.073,0.43-0.181c0.024-0.024,0.015-0.054,0.034-0.078  c0.073-0.098,0.142-0.21,0.142-0.347c0,0,0,0,0-0.005c0-0.049-0.049-0.088-0.059-0.142l3.965-3.965l0.537,0.542  c0.122,0.117,0.273,0.176,0.43,0.176s0.312-0.059,0.43-0.176c0.234-0.239,0.234-0.625,0-0.859l-0.537-0.542l0.532-0.532  c0.239-0.234,0.244-0.62,0.005-0.854c-0.234-0.234-0.615-0.239-0.854-0.005l-0.542,0.537l-3.887-3.882l3.887-3.882l0.542,0.537  c0.122,0.117,0.269,0.176,0.425,0.176s0.312-0.063,0.43-0.181c0.239-0.234,0.234-0.62-0.005-0.854l-0.532-0.532l0.537-0.542  c0.234-0.234,0.234-0.62,0-0.859c-0.234-0.234-0.62-0.234-0.859,0l-0.537,0.537l-3.887-3.882l5.278-5.278  C98.823,57.715,98.823,57.637,98.853,57.568z M83.999,63.047l3.887-3.882l3.892,3.882l-3.892,3.882L83.999,63.047z M87.026,67.793  l-3.877,3.877l-3.882-3.882l3.877-3.882L87.026,67.793z M79.8,57.769h6.689l0.542,0.542l-3.882,3.882l-3.887-3.887L79.8,57.769z   M82.285,63.047l-3.877,3.882l-3.887-3.887l3.882-3.877L82.285,63.047z M77.544,67.788l-3.882,3.882l-3.882-3.882l3.882-3.887  L77.544,67.788z M70.322,57.769h6.685l0.537,0.537l-3.882,3.882l-3.882-3.877L70.322,57.769z M72.803,63.042l-3.882,3.887  l-3.882-3.882l3.887-3.882L72.803,63.042z M68.062,67.788l-3.887,3.887l-3.887-3.882l3.887-3.892L68.062,67.788z M60.83,57.769  h6.694l0.547,0.542l-3.892,3.882l-3.892-3.887L60.83,57.769z M63.325,63.047l-3.892,3.887l-3.882-3.887l3.882-3.887L63.325,63.047z   M58.574,67.793l-3.882,3.882l-3.887-3.882l3.887-3.887L58.574,67.793z M51.367,57.769h6.67l0.537,0.537l-3.882,3.882l-3.877-3.872  L51.367,57.769z M53.838,63.047l-3.882,3.882l-3.882-3.877l3.882-3.882L53.838,63.047z M49.092,67.793l-3.877,3.882l-3.887-3.882  l3.887-3.887L49.092,67.793z M41.875,57.769h6.68l0.542,0.542l-3.882,3.882l-3.882-3.882L41.875,57.769z M44.355,63.052  l-3.882,3.882l-3.887-3.887l3.887-3.882L44.355,63.052z M39.609,67.793l-3.882,3.882l-3.882-3.887l3.882-3.882L39.609,67.793z   M32.383,57.769h6.689l0.542,0.542l-3.887,3.882l-3.882-3.887L32.383,57.769z M34.868,63.052l-3.872,3.877l-3.892-3.887l3.882-3.877  L34.868,63.052z M30.132,67.793l-3.882,3.882l-3.887-3.882l3.877-3.887L30.132,67.793z M22.91,57.769h6.67l0.547,0.542l-3.877,3.877  l-3.882-3.877L22.91,57.769z M25.391,63.052l-3.882,3.877l-3.882-3.882l3.882-3.882L25.391,63.052z M20.649,67.793l-3.882,3.882  l-3.887-3.887l3.887-3.882L20.649,67.793z M13.442,57.769h6.67l0.542,0.542l-3.887,3.882l-3.877-3.877L13.442,57.769z   M15.913,63.047l-3.887,3.887l-3.882-3.887l3.887-3.882L15.913,63.047z M2.866,57.769h7.769l0.542,0.542L7.29,62.192L2.866,57.769z   M3.408,67.793l3.882-3.887l3.882,3.882L7.29,71.675L3.408,67.793z M7.29,81.152l-3.882-3.887l3.882-3.882l3.882,3.887L7.29,81.152z   M8.149,72.529l3.877-3.877l3.882,3.877l-3.882,3.877L8.149,72.529z M16.768,81.152l-3.887-3.882l3.887-3.887l3.882,3.882  L16.768,81.152z M17.622,72.529l3.887-3.882l3.887,3.882l-3.887,3.882L17.622,72.529z M26.24,81.152l-3.877-3.887l3.887-3.882  l3.882,3.882L26.24,81.152z M30.991,76.406l-3.882-3.877l3.882-3.877l3.877,3.877L30.991,76.406z M35.728,81.152l-3.882-3.882  l3.882-3.887l3.882,3.882L35.728,81.152z M36.582,72.529l3.892-3.882l3.887,3.882l-3.887,3.882L36.582,72.529z M45.215,81.152  l-3.887-3.887l3.887-3.882l3.877,3.882L45.215,81.152z M46.074,72.529l3.882-3.882l3.887,3.882l-3.887,3.882L46.074,72.529z   M54.692,81.152l-3.887-3.887l3.887-3.882l3.882,3.882L54.692,81.152z M55.557,72.529l3.877-3.882l3.887,3.882l-3.887,3.882  L55.557,72.529z M64.175,81.157l-3.887-3.892l3.887-3.882l3.887,3.887L64.175,81.157z M65.039,72.529l3.882-3.882l3.882,3.882  l-3.882,3.882L65.039,72.529z M73.662,81.157l-3.882-3.887l3.882-3.882l3.882,3.882L73.662,81.157z M74.521,72.529l3.887-3.882  l3.882,3.882l-3.882,3.882L74.521,72.529z M83.145,81.152l-3.877-3.882l3.882-3.882l3.877,3.877L83.145,81.152z M84.009,72.529  l3.882-3.882l3.887,3.882l-3.887,3.882L84.009,72.529z M96.519,77.266l-3.887,3.887l-3.892-3.887l3.892-3.882L96.519,77.266z   M96.519,67.793l-3.887,3.882l-3.892-3.882l3.892-3.887L96.519,67.793z M92.632,62.192l-3.892-3.882l0.547-0.542h7.773  L92.632,62.192z"></path></svg>