<svg xmlns="http://www.w3.org/2000/svg" xmlns:xlink="http://www.w3.org/1999/xlink" version="1.1" x="0px" y="0px" viewBox="0 0 74.492 100" enable-background="new 0 0 74.492 100" xml:space="preserve"><path d="M0,41.224V100h52.136l0.521-0.573l21.836-23.672V41.224H0z M51.94,94.948V76.243h17.266L51.94,94.948z M70.95,72.695H48.372  v23.75H3.529v-51.68H70.95V72.695z"></path><path d="M13.672,47.891c-3.802,0-6.875,3.086-6.875,6.882c0,3.782,3.073,6.861,6.875,6.861c3.789,0,6.849-3.079,6.849-6.861  C20.521,50.977,17.461,47.891,13.672,47.891z M13.659,57.995c-1.784,0-3.216-1.465-3.216-3.223c0-1.784,1.432-3.236,3.216-3.236  c1.784,0,3.229,1.452,3.229,3.236C16.888,56.53,15.443,57.995,13.659,57.995z"></path><path d="M36.159,11.413c1.263,2.526,6.927,15.762,6.927,17.663c0,10.377-13.854,10.377-13.854,0  C29.232,27.174,34.909,13.294,36.159,11.413z"></path><path d="M54.284,0c1.25,2.513,6.927,15.749,6.927,17.65c0,10.377-13.854,10.377-13.854,0C47.356,15.749,53.021,1.881,54.284,0z"></path><path d="M17.943,0c1.263,2.513,6.927,15.749,6.927,17.65c0,10.377-13.854,10.377-13.854,0C11.016,15.749,16.68,1.881,17.943,0z"></path></svg>