<svg xmlns="http://www.w3.org/2000/svg" xmlns:xlink="http://www.w3.org/1999/xlink" version="1.1" x="0px" y="0px" viewBox="0 0 79.388 100" enable-background="new 0 0 79.388 100" xml:space="preserve"><rect x="4.284" width="70.82" height="8.314"></rect><path d="M72.304,11.855H7.083C3.19,11.855,0,15.045,0,18.939v73.978C0,96.81,3.19,100,7.083,100h65.221  c3.894,0,7.084-3.19,7.084-7.083V18.939C79.388,15.045,76.198,11.855,72.304,11.855z M61.171,27.858c0,0-6.328,18.705-12.2,12.826  C43.125,34.831,59.232,28.301,61.171,27.858z M46.12,24.264c0,0-4.206,3.347-1.302,11.035c3.268,8.666-2.891,10.671-5.365,8.203  C33.932,37.975,44.115,24.941,46.12,24.264z M38.151,32.233c0,0-4.206,3.347-1.302,11.035c3.281,8.659-2.891,10.67-5.364,8.204  C25.938,45.938,36.146,32.884,38.151,32.233z M25.338,67.285l-7.721,6.504c-1.55,1.543-3.438-1.608-2.708-2.356l6.562-8.021  c0.664-0.664,0.938,0.801,2.005,1.882C24.544,66.341,26.002,66.621,25.338,67.285z M23.268,59.675  c-5.534-5.534,4.662-18.562,6.68-19.226c0,0-4.206,3.333-1.302,11.035C31.927,60.13,25.742,62.168,23.268,59.675z M29.231,65.638  c-2.5-2.486-0.469-8.658,8.177-5.396c7.695,2.923,11.042-1.283,11.042-1.283C47.799,60.95,34.752,71.146,29.231,65.638z   M37.435,57.422c-2.5-2.493-0.456-8.659,8.177-5.397c7.722,2.924,11.055-1.282,11.055-1.282  C56.002,52.747,42.956,62.942,37.435,57.422z M45.39,49.453c-2.474-2.474-0.469-8.646,8.203-5.377  c7.683,2.917,11.042-1.289,11.042-1.289C63.971,44.779,50.924,54.987,45.39,49.453z"></path></svg>