<svg xmlns="http://www.w3.org/2000/svg" xmlns:xlink="http://www.w3.org/1999/xlink" version="1.1" x="0px" y="0px" viewBox="0 0 61.263 100" enable-background="new 0 0 61.263 100" xml:space="preserve"><polygon points="0.547,40.443 59.74,40.443 47.123,100 12.2,100 0.768,41.686 "></polygon><path d="M30.638,0C13.711,0,0,13.711,0,30.638c0,1.771,1.432,3.19,3.19,3.19c1.784,0,3.203-1.419,3.203-3.19  C6.406,17.259,17.227,6.406,30.638,6.387c13.36,0.02,24.219,10.873,24.245,24.251c0,1.771,1.406,3.19,3.178,3.19  c1.758,0,3.203-1.419,3.203-3.19C61.263,13.711,47.552,0,30.638,0z"></path></svg>