<svg xmlns="http://www.w3.org/2000/svg" xmlns:xlink="http://www.w3.org/1999/xlink" version="1.1" x="0px" y="0px" viewBox="0 0 100 100" enable-background="new 0 0 100 100" xml:space="preserve"><path d="M87.795,79.861v2.995c0,9.336-7.637,16.973-16.973,16.973H28.081c-9.336,0-16.979-7.637-16.979-16.973v-2.995  c3.457,5.82,9.733,9.766,16.979,9.766h42.741C78.062,89.627,84.338,85.682,87.795,79.861z"></path><path d="M70.822,46.288H28.081c-9.336,0-16.979,7.636-16.979,16.972v6.562c0,9.336,7.643,16.979,16.979,16.979h42.741  c9.336,0,16.973-7.644,16.973-16.979V63.26C87.795,53.924,80.158,46.288,70.822,46.288"></path><path d="M71.643,6.007c-6.484,0-11.738,5.248-11.738,11.738c0,6.472,5.254,11.719,11.738,11.719c6.478,0,11.725-5.247,11.725-11.719  C83.367,11.255,78.12,6.007,71.643,6.007z"></path><path d="M53.732,8.481c0-4.772-3.874-8.652-8.646-8.652c-4.772,0-8.64,3.88-8.64,8.652c0,1.947,0.664,3.724,1.751,5.163  c1.152-0.56,2.428-0.905,3.795-0.905c2.832,0,5.319,1.367,6.908,3.457C51.753,14.784,53.732,11.874,53.732,8.481z"></path><path d="M33.296,21.437c0-0.208,0.045-0.397,0.059-0.599c-0.67-0.15-1.361-0.241-2.077-0.241c-5.273,0-9.544,4.271-9.544,9.544  c0,5.28,4.271,9.551,9.544,9.551c5.28,0,9.551-4.271,9.551-9.551c0-0.039-0.013-0.078-0.013-0.117  C36.577,29.438,33.296,25.838,33.296,21.437z"></path><path d="M41.994,14.647c-3.743,0-6.79,3.047-6.79,6.79c0,3.75,3.047,6.797,6.79,6.797c3.757,0,6.804-3.047,6.804-6.797  C48.797,17.694,45.75,14.647,41.994,14.647z"></path></svg>