<svg xmlns="http://www.w3.org/2000/svg" xmlns:xlink="http://www.w3.org/1999/xlink" version="1.1" x="0px" y="0px" viewBox="0 0 34.596 100" enable-background="new 0 0 34.596 100" xml:space="preserve"><polygon points="9.629,37.988 9.629,49.759 14.355,49.759 14.355,51.765 9.629,51.765 9.629,63.535 14.355,63.535 14.355,65.54   9.629,65.54 9.629,77.298 14.355,77.298 14.355,79.304 9.629,79.304 9.629,91.074 14.355,91.074 14.355,93.079 7.624,93.079   7.624,35.983 14.355,35.983 14.355,37.988 "></polygon><path d="M31.348,30.553c0.977-0.462,1.673-1.452,1.673-2.604v-5.124c0-1.582-1.302-2.884-2.878-2.884h-1.946l-3.841-6.634  l-3.562-6.178c0.566-0.755,0.964-1.634,0.964-2.656c0-2.467-1.986-4.473-4.46-4.473c-2.474,0-4.459,2.005-4.459,4.473  c0,1.022,0.397,1.901,0.963,2.656l-3.561,6.178L6.4,19.941H4.453c-1.582,0-2.884,1.302-2.884,2.884v5.124  c0,1.152,0.703,2.142,1.68,2.604C1.25,32.943,0,35.977,0,39.33v52.428C0,96.302,3.698,100,8.242,100h18.112  c4.545,0,8.242-3.698,8.242-8.242V39.33C34.596,35.977,33.346,32.943,31.348,30.553z M31.452,91.758  c0,2.812-2.285,5.098-5.098,5.098H8.242c-2.812,0-5.098-2.285-5.098-5.098V39.33c0-3.483,1.706-6.55,4.304-8.49h19.694  c2.604,1.94,4.31,5.006,4.31,8.49V91.758z"></path></svg>