<svg xmlns="http://www.w3.org/2000/svg" xmlns:xlink="http://www.w3.org/1999/xlink" version="1.1" x="0px" y="0px" viewBox="0 0 69.206 100" enable-background="new 0 0 69.206 100" xml:space="preserve"><path d="M55.716,0H13.516C6.068,0,0,3.795,0,13.49v72.995C0,97.585,6.068,100,13.516,100h42.201c7.435,0,13.489-1.966,13.489-13.516  V13.49C69.206,3.502,63.151,0,55.716,0z M54.088,21.986c0,2.207-2.369,3.978-5.26,3.978H20.391c-2.891,0-5.26-1.771-5.26-3.978  V9.557c0-2.207,2.37-3.978,5.26-3.978h28.438c2.891,0,5.26,1.771,5.26,3.978V21.986z"></path></svg>