<svg xmlns="http://www.w3.org/2000/svg" xmlns:xlink="http://www.w3.org/1999/xlink" version="1.1" x="0px" y="0px" viewBox="0 0 58.346 100" enable-background="new 0 0 58.346 100" xml:space="preserve"><path d="M52.474,26.23H5.873L0,100h58.346L52.474,26.23z M40.924,81.042c-1.067,1.68-2.591,2.923-4.544,3.743  c-1.953,0.813-4.388,1.23-7.305,1.23c-4.232,0-7.487-0.983-9.766-2.949c-2.266-1.96-3.633-4.817-4.076-8.567l6.602-0.645  c0.391,2.22,1.198,3.841,2.409,4.876s2.852,1.556,4.909,1.556c2.188,0,3.828-0.462,4.935-1.38c1.107-0.925,1.654-2.005,1.654-3.242  c0-0.788-0.234-1.472-0.69-2.019c-0.469-0.56-1.276-1.048-2.448-1.458c-0.794-0.273-2.591-0.762-5.417-1.465  c-3.633-0.898-6.185-2.005-7.643-3.32c-2.057-1.843-3.086-4.089-3.086-6.745c0-1.712,0.482-3.313,1.445-4.805  c0.977-1.484,2.37-2.61,4.193-3.398c1.823-0.768,4.023-1.165,6.602-1.165c4.206,0,7.37,0.931,9.505,2.767  c2.135,1.855,3.255,4.311,3.359,7.402l-6.784,0.293c-0.286-1.725-0.911-2.962-1.862-3.717c-0.95-0.762-2.382-1.133-4.296-1.133  c-1.966,0-3.503,0.403-4.609,1.217c-0.716,0.515-1.081,1.205-1.081,2.077c0,0.801,0.339,1.472,1.003,2.031  c0.859,0.716,2.93,1.472,6.237,2.253c3.281,0.768,5.716,1.582,7.305,2.408c1.575,0.834,2.812,1.967,3.698,3.418  c0.898,1.439,1.341,3.21,1.341,5.332C42.513,77.565,41.979,79.368,40.924,81.042z"></path><path d="M29.167,0C16.302,0,5.873,10.43,5.873,23.294h46.602C52.474,10.43,42.044,0,29.167,0z M21.029,14.154  c-1.706,0-3.099-1.374-3.099-3.086c0-1.699,1.394-3.093,3.099-3.093s3.086,1.394,3.086,3.093  C24.115,12.78,22.734,14.154,21.029,14.154z M29.18,7.37c-1.719,0-3.099-1.387-3.099-3.099c0-1.699,1.38-3.093,3.099-3.093  c1.719,0,3.086,1.394,3.086,3.093C32.266,5.983,30.899,7.37,29.18,7.37z M37.213,14.154c-1.719,0-3.086-1.374-3.086-3.086  c0-1.699,1.367-3.093,3.086-3.093c1.706,0,3.086,1.394,3.086,3.093C40.299,12.78,38.919,14.154,37.213,14.154z"></path></svg>