<svg xmlns="http://www.w3.org/2000/svg" xmlns:xlink="http://www.w3.org/1999/xlink" version="1.1" x="0px" y="0px" viewBox="0 0 98.357 100.001" enable-background="new 0 0 98.357 100.001" xml:space="preserve"><path d="M0,27.137l5.143,64.739c0,3.867,11.015,6.999,24.609,6.999s24.622-3.132,24.622-6.999l5.13-64.739H0z M14.622,91.107  c-0.026,0-0.052,0-0.078,0c-1.016,0-1.862-0.807-1.901-1.822l-2.278-53.138c-0.039-1.048,0.781-1.94,1.823-1.985  c0.977-0.111,1.927,0.774,1.979,1.823l2.279,53.137C16.484,90.17,15.677,91.062,14.622,91.107z M31.653,89.232  c0,1.049-0.846,1.901-1.901,1.901c-1.042,0-1.901-0.853-1.901-1.901V36.096c0-1.048,0.859-1.901,1.901-1.901  c1.055,0,1.901,0.853,1.901,1.901V89.232z M46.874,89.317c-0.052,1.016-0.885,1.816-1.901,1.816c-0.039,0-0.052,0-0.091,0  c-1.042-0.046-1.862-0.931-1.81-1.979l2.265-53.144c0.052-1.048,0.833-1.959,1.992-1.816c1.042,0.046,1.862,0.938,1.81,1.979  L46.874,89.317z"></path><path d="M37.343,5.146L34.27,5.66c-0.299-1.784-1.263-3.346-2.734-4.401c-1.484-1.055-3.242-1.452-5.052-1.172  c-3.685,0.612-6.185,4.102-5.586,7.793l-2.982,0.501C1.692,11.076-0.469,19.403,0.078,22.684l58.775-9.765  C58.293,9.631,53.554,2.457,37.343,5.146z M24.661,7.255c-0.13-0.788,0.052-1.569,0.508-2.213c0.469-0.645,1.146-1.068,1.94-1.198  c1.627-0.273,3.138,0.833,3.398,2.441L24.661,7.255z"></path><path d="M83.345,69.806c0.339,0.424,0.547,0.814,0.651,1.133c0.312,0.918-0.053,1.576-1.081,1.914l-2.864,0.951l-1.901-2.182  c-0.364-1.08,0.104-2.109,1.406-3.105L83.345,69.806z"></path><path d="M69.882,62.071l3.789,1.289c0.338,0.43,0.547,0.808,0.65,1.133c0.3,0.925-0.039,1.569-1.08,1.921l-2.852,0.95l-1.901-2.188  C68.11,64.097,68.593,63.062,69.882,62.071z"></path><path d="M76.86,65.04l-0.143-4.492c0.572-0.494,1.08-0.82,1.575-0.982c0.938-0.312,1.797-0.247,2.644,0.162  c0.833,0.417,1.354,0.957,1.575,1.602c0.273,0.814-0.156,1.869-1.302,3.164L76.86,65.04z"></path><path d="M95.154,73.478c-0.273,0.104-1.302,0.534-3.111,1.322l-1.602,0.084l-0.925-0.872c-0.547-0.56-0.886-1.042-1.042-1.478  c-0.533-1.628-0.689-3.262-0.455-4.883c0.234-1.628,0.846-2.604,1.836-2.93c0.689,0.267,1.38,0.514,2.07,0.755  c1.419,0.442,2.213,0.625,2.369,0.573l-0.025-0.092c0.872-0.286,1.51,0.229,1.953,1.53c0.391,1.146,0.469,2.324,0.247,3.555  S95.793,73.094,95.154,73.478z"></path><path d="M98.357,84.051l-3.177,1.055c-1.341-0.202-2.356-0.619-3.047-1.237l0.95-3.405l3.659-1.236L98.357,84.051z"></path><path d="M74.309,82.286l-3.177,1.062c-1.342-0.195-2.344-0.619-3.047-1.237l0.95-3.404l3.672-1.23L74.309,82.286z"></path><path d="M85.402,86.629c1.119,1.27,2.252,3.574,3.372,6.92c0.144,0.41,0.117,0.847-0.052,1.303c-0.17,0.462-0.456,0.918-0.834,1.367  c-0.377,0.442-0.846,0.859-1.393,1.224c-0.561,0.358-1.133,0.632-1.732,0.833l-5.143,1.726c-0.208-0.488-1.172-1.438-2.903-2.864  c-1.641-1.465-2.487-2.233-2.514-2.324c-0.391-1.179-0.156-2.793,0.717-4.838c0.898-2.148,1.953-3.802,3.229-4.941l0.417-0.123  C81.274,83.998,83.553,84.571,85.402,86.629z"></path><path d="M65.116,28.062c-0.209-0.215-2.396-2.012-2.631-2.162c-1.549-0.97-3.658-0.631-5.455-0.996  c-1.758-0.352-3.398-1.178-5.091-1.588c-1.915-0.449-4.297-0.593-6.329-0.417c-2.656,0.234-4.896,1.517-7.682,1.452  c2.123-1.101,3.516-3.685,5.781-4.512c2.279-0.833,5.612-2.552,7.722-3.678c3.424-1.804,9.999,0.338,9.791-0.273  c0,0,5.677,3.841,7.2,4.746l5.99,5.573c0.781,0.618-1.016,9.414-1.016,9.414l-3.984,2.793l-0.99-3.945l-2.396-1.634  C65.715,32.834,65.793,28.785,65.116,28.062z"></path><path d="M68.749,52.58c0,0-2.695,0.188-5.847-2.962v-6.673h5.847C68.749,42.944,72.304,49.019,68.749,52.58z"></path><path d="M81.704,49.005l-1.549-10.501l6.497,4.303l4.752,4.342c0,0,1.029,5.573,1.029,7.845h-5.378  C87.056,54.995,81.704,53.83,81.704,49.005z"></path></svg>