<svg xmlns="http://www.w3.org/2000/svg" xmlns:xlink="http://www.w3.org/1999/xlink" version="1.1" x="0px" y="0px" viewBox="0 0 100 98.971" enable-background="new 0 0 100 98.971" xml:space="preserve"><path d="M0,36.12h19.635c-1.315,1.745-2.096,3.88-2.096,6.237H7.865L0,40.365V36.12z"></path><path d="M90.267,20.833l-5.54-16.667V0H67.312v36.12h-5.053c-0.742-3.021-1.562-5.664-2.109-7.318  c2.194-2.5,3.574-5.742,3.574-9.323v-5.234C63.724,6.406,57.317,0,49.486,0H14.238C6.406,0,0,6.406,0,14.245v5.234  c0,7.838,6.406,14.245,14.238,14.245h35.248c2.753,0,5.319-0.833,7.506-2.201c0.403,1.276,0.866,2.865,1.315,4.597H36.27  c1.315,1.745,2.096,3.88,2.096,6.237h21.27c0.592,3.646,0.813,7.279,0.071,9.935c-0.97,3.464-4.538,6.875-7.988,10.183  c-3.698,3.528-7.52,7.175-8.919,11.472l3.646,1.185c1.1-3.372,4.57-6.68,7.923-9.883c3.828-3.659,7.78-7.435,9.037-11.927  c0.853-3.073,0.67-7.032,0.084-10.964h7.344c0-5.742,4.668-10.404,10.424-10.404c4.043,0,7.532,2.318,9.258,5.69  c0.625,1.198,1.021,2.552,1.106,3.984c0.013,0.234,0.052,0.481,0.052,0.729H100V25L90.267,20.833z M72.22,20.833v-12.5h9.733  l4.153,12.5H72.22z"></path><path d="M27.962,34.727c-4.226,0-7.656,3.425-7.656,7.63c0,4.232,3.431,7.643,7.656,7.643c4.212,0,7.63-3.411,7.63-7.643  C35.592,38.151,32.174,34.727,27.962,34.727z M27.962,46.523c-2.312,0-4.187-1.862-4.187-4.167c0-2.292,1.875-4.154,4.187-4.154  c2.292,0,4.167,1.862,4.167,4.154C32.129,44.662,30.254,46.523,27.962,46.523z"></path><path d="M81.257,34.727c-4.226,0-7.656,3.425-7.656,7.63c0,4.232,3.431,7.643,7.656,7.643c4.212,0,7.643-3.411,7.643-7.643  C88.899,38.151,85.469,34.727,81.257,34.727z M81.257,46.523c-2.299,0-4.174-1.862-4.174-4.167c0-2.292,1.875-4.154,4.174-4.154  c2.298,0,4.166,1.862,4.166,4.154C85.423,44.662,83.555,46.523,81.257,46.523z"></path><g><path d="M36.478,98.073l0.045-0.13c0.267-0.716-0.091-1.511-0.807-1.771c-0.71-0.273-1.511,0.091-1.777,0.807l-0.046,0.131   c-0.273,0.716,0.091,1.51,0.808,1.771c0.156,0.065,0.319,0.091,0.481,0.091C35.742,98.971,36.27,98.633,36.478,98.073z"></path><path d="M37.982,94.063l0.052-0.131c0.261-0.716-0.104-1.51-0.82-1.771c-0.709-0.261-1.51,0.104-1.771,0.82l-0.052,0.13   c-0.26,0.717,0.104,1.511,0.82,1.771c0.156,0.064,0.319,0.091,0.475,0.091C37.246,94.974,37.773,94.623,37.982,94.063z"></path><path d="M39.486,90.065l0.045-0.13c0.267-0.703-0.091-1.511-0.807-1.771c-0.71-0.273-1.511,0.091-1.777,0.807l-0.046,0.131   c-0.273,0.716,0.091,1.51,0.808,1.771c0.156,0.065,0.319,0.091,0.481,0.091C38.75,90.963,39.277,90.625,39.486,90.065z"></path><path d="M40.99,86.068l0.052-0.13c0.261-0.717-0.104-1.511-0.82-1.784c-0.709-0.261-1.504,0.104-1.771,0.82l-0.052,0.13   c-0.26,0.717,0.104,1.511,0.82,1.771c0.156,0.064,0.319,0.091,0.475,0.091C40.254,86.966,40.781,86.615,40.99,86.068z"></path><path d="M42.494,82.071l0.045-0.131c0.267-0.716-0.091-1.51-0.807-1.783c-0.71-0.261-1.511,0.091-1.777,0.807l-0.046,0.131   c-0.273,0.716,0.091,1.51,0.808,1.783c0.156,0.053,0.319,0.092,0.481,0.092C41.758,82.969,42.285,82.618,42.494,82.071z"></path></g><path d="M44.017,78.008c0.273-0.717-0.085-1.511-0.801-1.784c-0.71-0.273-1.511,0.091-1.777,0.794l-0.026,0.065  c-0.273,0.716,0.098,1.484,0.814,1.758c0.15,0.052,0.312,0.078,0.469,0.078C43.262,78.919,43.809,78.568,44.017,78.008z"></path><g><path d="M46.452,97.071v-0.144c0-0.755-0.618-1.38-1.38-1.38s-1.38,0.625-1.38,1.38v0.144c0,0.768,0.619,1.38,1.38,1.38   S46.452,97.838,46.452,97.071z"></path><path d="M46.452,92.552v-0.156c0-0.755-0.618-1.38-1.38-1.38s-1.38,0.625-1.38,1.38v0.156c0,0.755,0.619,1.38,1.38,1.38   S46.452,93.307,46.452,92.552z"></path><path d="M46.452,88.021v-0.144c0-0.768-0.618-1.393-1.38-1.393s-1.38,0.625-1.38,1.393v0.144c0,0.755,0.619,1.38,1.38,1.38   S46.452,88.776,46.452,88.021z"></path></g><path d="M46.452,83.424c0-0.768-0.618-1.38-1.38-1.38s-1.38,0.612-1.38,1.38v0.065c0,0.769,0.619,1.341,1.38,1.341  S46.452,84.18,46.452,83.424z"></path><g><path d="M27.35,92.448c0.521-0.56,0.495-1.432-0.059-1.953c-0.553-0.521-1.432-0.494-1.953,0.053l-0.084,0.091   c-0.527,0.56-0.456,1.38,0.098,1.914c0.254,0.234,0.586,0.352,0.924,0.352C26.667,92.904,27.064,92.748,27.35,92.448z"></path><path d="M30.052,89.583c0.527-0.56,0.501-1.433-0.052-1.953c-0.56-0.534-1.432-0.508-1.953,0.052l-0.091,0.092   c-0.521,0.56-0.449,1.38,0.104,1.9c0.254,0.248,0.586,0.365,0.918,0.365C29.375,90.04,29.772,89.883,30.052,89.583z"></path><path d="M32.76,86.706c0.521-0.547,0.495-1.419-0.059-1.953c-0.553-0.521-1.426-0.494-1.953,0.065l-0.084,0.091   c-0.521,0.547-0.456,1.381,0.098,1.901c0.254,0.247,0.586,0.364,0.924,0.364C32.077,87.174,32.474,87.005,32.76,86.706z"></path><path d="M35.462,83.841c0.527-0.547,0.501-1.433-0.052-1.953c-0.56-0.521-1.432-0.495-1.953,0.065l-0.091,0.091   c-0.521,0.547-0.449,1.38,0.104,1.901c0.254,0.247,0.586,0.352,0.918,0.352C34.785,84.297,35.182,84.141,35.462,83.841z"></path></g><path d="M38.138,81.002c0.521-0.56,0.488-1.432-0.078-1.953c-0.554-0.508-1.433-0.481-1.947,0.078l-0.045,0.053  c-0.521,0.56-0.462,1.419,0.098,1.927c0.26,0.247,0.592,0.352,0.924,0.352C37.474,81.458,37.865,81.302,38.138,81.002z"></path></svg>