<svg xmlns="http://www.w3.org/2000/svg" xmlns:xlink="http://www.w3.org/1999/xlink" version="1.1" x="0px" y="0px" viewBox="0 0 100 78.625" enable-background="new 0 0 100 78.625" xml:space="preserve"><path d="M0,62.24V21.68h35.91v39.974c-0.775,0.314-1.605,0.531-2.539,0.553c-3.336-0.075-5.561-2.018-7.324-6.325  c-0.021-0.076-0.049-0.108-0.076-0.185c-0.016-0.033-0.033-0.044-0.038-0.098h-0.016c-0.163-0.261-0.423-0.435-0.727-0.435  c-0.309,0-0.57,0.174-0.738,0.435h-0.011c-0.06,0.108-0.104,0.206-0.125,0.336c-1.796,4.352-4.08,6.305-7.52,6.305h-0.016  c-3.467,0-5.729-1.953-7.525-6.358c-0.027-0.076-0.055-0.108-0.082-0.185c-0.016-0.033-0.033-0.044-0.038-0.098H9.104  c-0.157-0.261-0.407-0.435-0.727-0.435c-0.293,0-0.554,0.174-0.732,0.435c-0.06,0.108-0.104,0.206-0.13,0.336  C5.718,60.287,3.439,62.24,0,62.24z"></path><path d="M64.09,21.68v40.028c0.765,0.304,1.584,0.488,2.495,0.511c3.354-0.065,5.577-2.008,7.357-6.283  c0.021-0.13,0.064-0.228,0.13-0.336c0.174-0.261,0.423-0.435,0.727-0.435c0.315,0,0.57,0.174,0.732,0.435h0.022  c0.011,0.054,0.026,0.064,0.054,0.098c0.017,0.076,0.044,0.108,0.065,0.185c1.79,4.405,4.063,6.358,7.53,6.358h0.021  c3.451,0,5.719-1.953,7.509-6.305c0.027-0.13,0.07-0.228,0.136-0.336c0.174-0.261,0.434-0.435,0.738-0.435  c0.309,0,0.563,0.174,0.732,0.435h0.011c0.016,0.054,0.032,0.064,0.054,0.098c0.017,0.076,0.049,0.108,0.06,0.185  c1.807,4.405,4.069,6.358,7.536,6.358V21.68H64.09z"></path><polygon points="46.213,12.424 46.213,78.625 53.766,78.625 53.766,12.424 62.419,12.424 50,0 37.582,12.424 "></polygon></svg>