<svg xmlns="http://www.w3.org/2000/svg" xmlns:xlink="http://www.w3.org/1999/xlink" version="1.1" x="0px" y="0px" viewBox="0 0 100 86.914" enable-background="new 0 0 100 86.914" xml:space="preserve"><path d="M100,14.258v7.5H75.264v65.156h-6.133h-1.367H50.02H32.236H30.84h-6.104V21.758H0v-7.5h32.236v31.602  c1.211-0.435,2.114-1.479,2.881-3.252c0.01-0.063,0.039-0.127,0.078-0.176c0.098-0.156,0.234-0.254,0.42-0.254  c0.176,0,0.322,0.098,0.42,0.254h0.01c0.01,0.01,0.01,0.024,0.02,0.049c0.02,0.024,0.039,0.063,0.059,0.103  c1.025,2.437,2.314,3.525,4.307,3.525h0.02c1.992,0,3.281-1.089,4.316-3.501c0.01-0.063,0.049-0.127,0.088-0.176  c0.088-0.156,0.234-0.254,0.42-0.254c0.176,0,0.312,0.098,0.42,0.254c0.01,0.01,0.02,0.024,0.029,0.049  c0.02,0.024,0.029,0.063,0.039,0.103c1.016,2.397,2.305,3.477,4.238,3.516c1.934-0.039,3.203-1.118,4.219-3.491  c0.029-0.063,0.049-0.127,0.088-0.176c0.098-0.156,0.244-0.254,0.42-0.254s0.312,0.098,0.42,0.254h0.01  c0,0.01,0.01,0.024,0.029,0.049c0.01,0.024,0.02,0.063,0.039,0.103c1.025,2.437,2.334,3.525,4.326,3.525h0.01  c1.982,0,3.291-1.089,4.316-3.501c0.01-0.063,0.039-0.127,0.078-0.176c0.098-0.156,0.254-0.254,0.42-0.254  c0.176,0,0.322,0.098,0.42,0.254h0.01c0.01,0.01,0.01,0.024,0.02,0.049c0.02,0.024,0.029,0.063,0.039,0.103  c0.771,1.797,1.68,2.847,2.9,3.286V14.258H100z"></path><polygon points="47.559,33.848 53.975,33.848 53.975,10.586 61.348,10.586 50.762,0 40.195,10.586 47.559,10.586 "></polygon></svg>