<svg xmlns="http://www.w3.org/2000/svg" xmlns:xlink="http://www.w3.org/1999/xlink" version="1.1" x="0px" y="0px" viewBox="0 0 100 100" enable-background="new 0 0 100 100" xml:space="preserve"><path d="M100.006,76.419h-0.127v17.412H0.074V76.419H0.006c3.442,0,5.718-1.943,7.515-6.299c0.029-0.127,0.068-0.225,0.132-0.332  l0,0c0.176-0.264,0.439-0.439,0.732-0.439c0.317,0,0.566,0.176,0.728,0.439h0.029c0.005,0.049,0.02,0.059,0.039,0.098  c0.029,0.068,0.054,0.107,0.078,0.176c1.797,4.404,4.062,6.357,7.529,6.357h0.015c3.442,0,5.723-1.943,7.52-6.299  c0.024-0.127,0.063-0.225,0.127-0.332h0.01c0.166-0.264,0.425-0.439,0.737-0.439c0.303,0,0.562,0.176,0.728,0.439h0.015  c0.005,0.049,0.024,0.059,0.039,0.098c0.029,0.068,0.054,0.107,0.073,0.176c1.768,4.307,3.989,6.25,7.324,6.328  c3.325-0.078,5.547-2.012,7.305-6.27c0.034-0.127,0.083-0.225,0.137-0.332l0,0c0.181-0.264,0.43-0.439,0.732-0.439  c0.298,0,0.557,0.176,0.742,0.439h0.005c0.015,0.049,0.029,0.059,0.039,0.098c0.029,0.068,0.068,0.107,0.088,0.176  c1.797,4.404,4.058,6.357,7.534,6.357h0.024c3.442,0,5.703-1.943,7.495-6.299c0.034-0.127,0.083-0.225,0.137-0.332l0,0  c0.176-0.264,0.43-0.439,0.732-0.439s0.566,0.176,0.742,0.439h0.005c0.015,0.049,0.039,0.059,0.049,0.098  c0.029,0.068,0.059,0.107,0.078,0.176c1.772,4.336,3.999,6.279,7.373,6.338c3.35-0.059,5.576-2.002,7.354-6.279  c0.024-0.127,0.068-0.225,0.132-0.332l0,0c0.176-0.264,0.425-0.439,0.728-0.439c0.312,0,0.571,0.176,0.732,0.439h0.02  c0.01,0.049,0.029,0.059,0.054,0.098c0.02,0.068,0.044,0.107,0.068,0.176c1.792,4.404,4.062,6.357,7.529,6.357h0.024  c3.447,0,5.713-1.943,7.505-6.299c0.029-0.127,0.073-0.225,0.137-0.332l0,0c0.176-0.264,0.435-0.439,0.737-0.439  c0.312,0,0.566,0.176,0.732,0.439h0.01c0.02,0.049,0.034,0.059,0.059,0.098c0.015,0.068,0.044,0.107,0.059,0.176  C94.278,74.466,96.539,76.419,100.006,76.419z"></path><path d="M80.123,44.827c-0.518-1.162-1.191-2.188-2.061-3.037c-0.84-0.859-1.865-1.533-3.027-2.041  c-1.182-0.508-2.432-0.762-3.77-0.762H39.264v21.23c0,1.387,0.479,2.52,1.396,3.418c0.908,0.898,2.041,1.328,3.369,1.328h21.523  c1.328,0,2.461-0.43,3.379-1.328c0.928-0.898,1.377-2.031,1.377-3.418v-2.09h0.957c1.338,0,2.588-0.254,3.77-0.771  c1.162-0.498,2.188-1.182,3.027-2.061c0.869-0.85,1.543-1.836,2.061-2.988c0.518-1.143,0.752-2.383,0.752-3.701  C80.875,47.259,80.641,46.019,80.123,44.827z M75.406,52.64c-1.123,1.113-2.49,1.67-4.141,1.67h-0.957V42.806h0.957  c1.65,0,3.018,0.547,4.141,1.641c1.123,1.133,1.68,2.5,1.68,4.16C77.086,50.188,76.529,51.526,75.406,52.64z"></path><path d="M58.438,26.214C58.287,15.052,49.791,5.716,38.893,5.667c-10.986,0.049-19.551,9.521-19.58,20.811v38.379h6.934V26.478  c0.01-7.812,5.908-13.867,12.646-13.867c6.641,0,12.48,5.928,12.612,13.604h-5.386l9.043,9.053l9.053-9.053H58.438z"></path></svg>