<svg xmlns="http://www.w3.org/2000/svg" xmlns:xlink="http://www.w3.org/1999/xlink" version="1.1" x="0px" y="0px" viewBox="0 0 74.926 100.001" enable-background="new 0 0 74.926 100.001" xml:space="preserve"><path fill="#000000" d="M17.321,0c-4.701,0-8.503,3.802-8.503,8.502c0,4.688,3.802,8.49,8.503,8.49c4.688,0,8.489-3.802,8.489-8.49  C25.811,3.802,22.009,0,17.321,0z"></path><path fill="#000000" d="M31.371,25.82c-2.083-4.258-5.312-6.849-13.242-6.849h-0.82h-0.807c-7.93,0-11.159,2.591-13.242,6.849  c-1.042,2.123-3.242,28.763-3.242,28.763c-0.169,1.576,0.977,2.982,2.539,3.139c0.104,0.013,0.208,0.013,0.312,0.013  c1.445,0,2.682-1.094,2.825-2.552l2.24-23.151L8.493,50L6.853,96.433c-0.117,1.836,1.263,3.438,3.099,3.555  C10.042,100,10.121,100,10.186,100c1.745,0,3.216-1.341,3.347-3.099l3.776-38.242l3.789,38.242c0.13,1.758,1.602,3.099,3.346,3.099  c0.065,0,0.13,0,0.234-0.013c1.823-0.117,3.203-1.719,3.086-3.555L26.136,50l0.547-17.969l2.24,23.151  c0.143,1.458,1.393,2.552,2.838,2.552c0.104,0,0.195,0,0.299-0.013c1.576-0.156,2.708-1.562,2.539-3.139  C34.6,54.583,32.412,27.943,31.371,25.82z"></path><path fill="#000000" d="M70.095,0.039L50.798,0c-2.669-0.013-4.844,3.099-4.844,6.92l-0.117,62.188l11.914,28.438  c1.38,3.268,3.633,3.268,5.026,0.032L74.809,69.16l0.117-62.201C74.926,3.158,72.764,0.045,70.095,0.039z M63.154,87.852  l-5.729-0.013l-7.852-18.725l21.497,0.039L63.154,87.852z"></path></svg>