<svg xmlns="http://www.w3.org/2000/svg" xmlns:xlink="http://www.w3.org/1999/xlink" version="1.1" x="0px" y="0px" viewBox="0 0 100 77.604" enable-background="new 0 0 100 77.604" xml:space="preserve"><g><g><path d="M86.719,56.549l-22.136,0.065c-8.763-8.21-12.695-17.832-12.695-17.832h-0.156c0,0-4.049,9.993-13.06,17.832H13.451    L49.414,5.554l-2.695-3.477L49.388,0l2.188,2.787v-0.02v0.02L53.75,0l2.683,2.077l-2.695,3.477L86.719,56.549z"></path></g></g><polygon points="13.502,77.604 10.13,71.751 6.745,65.899 3.373,71.751 0,77.604 6.745,77.604 "></polygon><polygon points="35.13,77.604 31.745,71.751 28.373,65.899 25,71.751 21.615,77.604 28.373,77.604 "></polygon><polygon points="56.745,77.604 53.372,71.751 50,65.899 46.615,71.751 43.242,77.604 50,77.604 "></polygon><polygon points="78.372,77.604 75,71.751 71.614,65.899 68.242,71.751 64.87,77.604 71.614,77.604 "></polygon><polygon points="100,77.604 96.614,71.751 93.242,65.899 89.87,71.751 86.484,77.604 93.242,77.604 "></polygon></svg>