<svg xmlns="http://www.w3.org/2000/svg" xmlns:xlink="http://www.w3.org/1999/xlink" version="1.1" x="0px" y="0px" viewBox="0 0 100 84.923" enable-background="new 0 0 100 84.923" xml:space="preserve"><path d="M53.041,72.097l-10.56,4.753c-0.469,0.221-0.957,0.312-1.445,0.312s-0.938-0.209-1.374-0.391l-0.091,0.064l-0.13-0.13  c-0.684-0.352-8.197-8.438-8.197-8.438l-0.508,16.654H9.127L8.626,68.269L7.012,84.923H0c0.879-9.61,2.194-22.553,2.969-24.154  c2.526-5.13,6.413-8.256,15.97-8.256h0.99h0.977c9.57,0,11.4,2.813,15.983,8.256c3.386,4.023,3.458,4.753,5.84,8.255l7.422-3.346  c1.751-0.808,3.86-0.014,4.661,1.771C55.606,69.219,54.818,71.303,53.041,72.097z"></path><path d="M97.143,23.529c-1.92-0.391-3.763,0.886-4.127,2.8L88.25,51.094c0,0-0.508,2.969-3.301,2.2  c-1.895-0.533-4.16-0.781-6.914-0.781h-0.971h-0.97c-2.754,0-5.026,0.248-6.914,0.781c-2.793,0.769-3.308-2.2-3.308-2.2  l-4.759-24.766c-0.365-1.914-2.207-3.19-4.128-2.8c-1.907,0.378-3.157,2.214-2.793,4.128c0,0,5.488,29.076,6.25,32.526  c0.769,3.45,5.312,4.362,5.312,4.362l0.515,20.378h10.794h10.795l0.508-20.378c0,0,4.551-0.912,5.312-4.362  c0.768-3.45,6.257-32.526,6.257-32.526C100.301,25.743,99.051,23.907,97.143,23.529z"></path><path d="M19.929,50.105c5.657,0,10.241-4.57,10.241-10.235c0-5.664-4.583-10.248-10.241-10.248c-5.664,0-10.261,4.583-10.261,10.248  C9.668,45.535,14.265,50.105,19.929,50.105z"></path><path d="M77.084,50.105c5.639,0,10.234-4.57,10.234-10.235c0-5.664-4.596-10.248-10.234-10.248c-5.671,0-10.267,4.583-10.267,10.248  C66.817,45.535,71.413,50.105,77.084,50.105z"></path><polygon points="6.895,19.818 13.867,22.657 15.833,12.097 20.248,18.867 26.869,9.974 26.634,20.534 35.02,17.058 31.778,26.654   42.09,26.081 36.387,35.3 48.731,21.94 34.837,24.544 41.784,10.716 29.942,16.354 30.384,0 19.987,14.87 14.212,4.701   12.402,19.232 1.895,15.026 7.734,28.776 "></polygon></svg>