<svg xmlns="http://www.w3.org/2000/svg" xmlns:xlink="http://www.w3.org/1999/xlink" version="1.1" x="0px" y="0px" viewBox="0 0 97.266 100" enable-background="new 0 0 97.266 100" xml:space="preserve"><g><path d="M26.838,33.971c0.43,3.216-1.816,6.172-5.013,6.602c-3.223,0.443-6.185-1.81-6.614-5.026   c-0.437-3.216,1.816-6.159,5.039-6.595C23.446,28.516,26.402,30.755,26.838,33.971z"></path></g><g><polygon points="9.039,21.361 15.934,23.268 16.63,13.066 21.552,18.971 26.825,9.824 27.782,19.844 35.315,15.612 33.323,25.052    42.997,23.359 38.642,32.708 42.945,33.275 37.691,41.387 49.599,30.43 42.216,30.156 48.824,18.705 35.985,22.715 41.005,8.874    30.426,15.514 29.039,0 20.862,15.215 14.28,6.256 14.182,20.189 3.772,17.389 10.836,29.74  "></polygon></g><g><path d="M95.732,59.388c-3.229-1.719-8.796-6.23-13.464-13.092c-2.019-4.434-8.34-4.967-8.34-4.967   c-1.738-0.267-5.026-0.69-10.085,1.068C58.792,44.16,46.61,55.938,46.324,56.38c-0.879,1.335-0.508,3.125,0.82,4.011   c0.495,0.325,1.048,0.476,1.595,0.476c0.944,0,1.869-0.456,2.428-1.296c0.059-0.078,4.857-7.103,13.815-10.28l-2.539,15.39   C62.3,65.56,51.708,94.401,51.708,94.401c-0.723,1.432-0.163,3.184,1.27,3.906c0.423,0.215,0.872,0.312,1.321,0.312   c1.048,0,2.07-0.573,2.585-1.582l11.399-25.469l8.034,26.445c0.41,1.217,1.543,1.985,2.754,1.985c0.306,0,0.611-0.046,0.911-0.144   c1.523-0.508,2.351-2.148,1.849-3.672c0,0-6.185-26.868-5.918-28.379l2.891-16.178c4.805,7.715,13.725,12.637,14.193,12.884   c0.436,0.228,0.898,0.339,1.367,0.339c1.035,0,2.037-0.554,2.559-1.537C97.678,61.907,97.144,60.137,95.732,59.388z"></path></g><g><path d="M50.549,88.933c-2.539-4.375-15.176-26.094-15.573-26.094L31.37,50.462c3.099,4.134,8.555,7.78,12.123,9.882   c-0.794-1.777-0.801-3.86,0.338-5.599c0.052-0.071,0.287-0.319,0.482-0.527c-3.926-2.624-8.633-6.706-11.328-10.703   c-1.927-2.871-6.784-2.331-9.089-1.869c-1.51,0.293-4.492,1.562-5.768,2.429c-2.5,1.692-5.299,0.442-7.624-1.465   c-4.18-3.438-4.551-9.681-4.558-9.812c-0.065-1.634-1.452-2.91-3.092-2.838c-1.641,0.026-2.917,1.445-2.852,3.092   c0.013,0.365,0.43,8.939,6.673,14.115c3.008,2.494,4.961,3.105,9.596,4.114c1.595,3.041,6.999,14.805,6.999,14.805l0.208,31.127   c0.065,1.562,1.348,2.786,3.014,2.786c1.602-0.065,2.852-1.419,2.787-3.015c0,0,1.354-25.755,1.641-25.82l15.358,21.934   c0.573,0.801,1.465,1.23,2.376,1.23c0.006,0,0.026-0.013,0.039-0.013c0.091-0.364,0.117-0.735,0.273-1.074   C49.462,91.888,49.996,90.442,50.549,88.933z"></path></g><g><path d="M74.058,26.647c-3.685,0.501-6.275,3.894-5.774,7.572c0.495,3.678,3.894,6.256,7.578,5.755   c3.665-0.495,6.243-3.887,5.749-7.572C81.109,28.73,77.724,26.152,74.058,26.647z"></path></g></svg>