<svg xmlns="http://www.w3.org/2000/svg" xmlns:xlink="http://www.w3.org/1999/xlink" version="1.1" x="0px" y="0px" viewBox="0 0 100 79.697" enable-background="new 0 0 100 79.697" xml:space="preserve"><path d="M100,56.859c0-8.906-5.124-16.543-12.539-20.352v-8.236c0-1.829-1.491-3.32-3.32-3.32h-6.178v-5.234  c0.898-0.261,1.725-0.716,2.305-1.439c0.709-0.898,1.009-1.992,0.833-3.086l-0.612-3.802c-0.338-2.188-2.52-3.756-4.947-3.333  c-0.769,0.117-1.42,0.475-2.019,0.918l-4.056-2.526c0.006-0.02,0.02-0.039,0.02-0.059c0.299-1.107,0.182-2.259-0.326-3.249  c-0.521-1.016-1.406-1.738-2.474-2.018l-3.724-1.002C60.847-0.439,58.51,1,57.897,3.285c-0.059,0.208-0.02,0.423-0.045,0.638  l-3.867,0.612c-1.006-2.077-3.493-3.099-5.485-2.188l-3.496,1.614c-1.943,0.898-2.747,3.255-1.943,5.371l-2.913,3.014l-4.756-3.32  c-1.494-1.048-3.578-0.677-4.623,0.82l-4.72,6.751c-8.258-1.12-16.833,2.201-21.937,9.499c-6.908,9.883-4.87,23.255,4.284,30.794  l2.594-3.711C3.881,47.08,2.348,36.533,7.827,28.688c5.833-8.34,17.327-10.377,25.677-4.538c8.343,5.827,10.381,17.324,4.547,25.677  c-5.569,7.962-16.269,10.097-24.495,5.201l-2.594,3.711c10.276,6.321,23.798,3.698,30.797-6.328  c5.104-7.298,5.283-16.49,1.39-23.854l4.727-6.758c1.045-1.497,0.674-3.581-0.82-4.629l-4.974-3.477l2.353-2.441  c0.749,0.612,1.654,0.996,2.617,0.996c0.56,0,1.104-0.117,1.615-0.352l3.499-1.614c1.312-0.612,2.055-1.901,2.204-3.32l3.835-0.605  c0.052,0.111,0.059,0.234,0.11,0.345c0.54,0.924,1.387,1.588,2.383,1.849l3.724,1.002c0.325,0.085,0.657,0.137,0.989,0.137  c1.042,0,2.006-0.449,2.761-1.152l3.88,2.416c-0.195,0.586-0.279,1.191-0.182,1.81l0.611,3.802c0.254,1.621,1.523,2.832,3.151,3.216  v5.169h-5.716c-1.823,0-3.32,1.491-3.32,3.32v8.236c-7.409,3.809-12.532,11.445-12.532,20.352c0,12.063,9.329,21.849,21.151,22.786  v-4.531c-9.322-0.918-16.627-8.698-16.627-18.255c0-10.183,8.255-18.438,18.443-18.438c10.183,0,18.438,8.255,18.438,18.438  c0,9.72-7.552,17.604-17.096,18.307v4.531C90.423,78.987,100,69.079,100,56.859z M38.689,20.245  c-0.638,0.917-1.898,1.146-2.812,0.501c-0.908-0.631-1.133-1.895-0.492-2.812c0.443-0.631,1.172-0.788,1.895-0.696l1.855-2.663  l1.416,0.996l-1.858,2.656C39.027,18.871,39.135,19.613,38.689,20.245z M51.241,8.285l-3.497,1.615  c-0.56,0.26-1.214,0.124-1.764-0.248l0.775-0.801c0.446-0.462,0.436-1.204-0.029-1.647c-0.459-0.442-1.201-0.436-1.647,0.033  L45.01,7.308c0.107-0.585,0.388-1.1,0.918-1.347l3.493-1.615c0.215-0.098,0.449-0.15,0.693-0.15c0.546,0,1.022,0.306,1.419,0.729  l-0.508,0.078c-0.671,0.104-1.13,0.735-1.022,1.406c0.094,0.612,0.615,1.042,1.214,1.042c0.062,0,0.127-0.007,0.192-0.02  l0.615-0.098C51.856,7.731,51.635,8.103,51.241,8.285z M66.947,4.88c-0.573-0.364-1.328-0.182-1.693,0.397  c-0.357,0.573-0.182,1.328,0.391,1.686l0.495,0.306c-0.364,0.176-0.769,0.267-1.146,0.163L61.27,6.436  c-0.247-0.072-0.391-0.306-0.585-0.469l0.897-0.143c0.671-0.104,1.133-0.736,1.022-1.406c-0.104-0.677-0.71-1.172-1.406-1.022  l-0.989,0.156c0.345-0.781,1.002-1.36,1.764-1.36c0.144,0,0.287,0.013,0.424,0.052l3.717,0.996c0.469,0.13,0.859,0.456,1.094,0.918  c0.144,0.28,0.072,0.619,0.092,0.938L66.947,4.88z M74.648,16.221l-0.611-3.802c-0.007-0.065,0.059-0.13,0.059-0.195l0.299,0.182  c0.209,0.13,0.43,0.195,0.651,0.195c0.41,0,0.808-0.215,1.042-0.586c0.364-0.573,0.182-1.328-0.391-1.686  c0.071-0.02,0.11-0.091,0.182-0.104c0.131-0.02,0.268-0.033,0.397-0.033c1.042,0,1.901,0.651,2.044,1.543l0.612,3.802  c0.071,0.475-0.059,0.963-0.384,1.367c-0.144,0.176-0.404,0.208-0.586,0.332v-0.853c0-0.645-0.521-1.166-1.166-1.166  s-1.165,0.521-1.165,1.166v1.055C75.124,17.171,74.733,16.768,74.648,16.221z M77.031,34.274c-1.113,0-2.018-0.905-2.018-2.012  c0-0.781,0.508-1.328,1.152-1.667v-3.242h1.731v3.242c0.638,0.338,1.146,0.885,1.146,1.667  C79.043,33.369,78.145,34.274,77.031,34.274z"></path></svg>