<svg xmlns="http://www.w3.org/2000/svg" xmlns:xlink="http://www.w3.org/1999/xlink" version="1.1" x="0px" y="0px" viewBox="0 0 81.654 100" enable-background="new 0 0 81.654 100" xml:space="preserve"><g><path d="M45.514,65.286l1.452,3.184h-2.448C45.221,67.604,45.638,66.478,45.514,65.286z"></path></g><g><path d="M0,0v68.47h37.773c-0.397-0.481-0.726-1.021-0.886-1.653c-0.192-0.703-0.43-1.569-0.661-2.435H4.085v-60.3h73.487v60.3   H59.427l1.152,4.088h21.074V0H0z"></path></g><g><path d="M41.715,26.543c4.248-1.549,6.436-6.263,4.886-10.521c-1.562-4.251-6.269-6.438-10.514-4.889   c-4.261,1.556-6.458,6.263-4.905,10.527C32.734,25.912,37.444,28.105,41.715,26.543z"></path></g><g><path d="M57.22,62.552h2.207h12.148L59.909,52.468l-6.738-17.63l7.181-5.28c0.729-0.54,1.159-1.393,1.159-2.305V7.494   c0-1.576-1.276-2.852-2.852-2.852c-1.589,0-2.864,1.276-2.864,2.852v16.614c-3.652,0.501-7.773,2.168-12.692,3.978l-0.739,0.254   l-0.742,0.28c-7.194,2.624-9.267,6.029-9.746,10.586c-0.241,2.285,6.592,27.181,6.592,27.181c0.364,1.472,1.865,2.376,3.346,2.012   c0.091-0.046,0.186-0.059,0.273-0.104c1.318-0.475,2.08-1.868,1.729-3.248l-5.641-21.745l6.461,16.106l6.914,15.209L41.537,94.043   c-1.032,2.005-0.248,4.473,1.758,5.501c0.599,0.312,1.236,0.456,1.868,0.456c1.478,0,2.91-0.808,3.633-2.214l11.152-21.634   c0.547-1.067,0.599-2.324,0.144-3.425L57.22,62.552z"></path></g></svg>