<svg xmlns="http://www.w3.org/2000/svg" xmlns:xlink="http://www.w3.org/1999/xlink" version="1.1" x="0px" y="0px" viewBox="0 0 100 65.467" enable-background="new 0 0 100 65.467" xml:space="preserve"><path d="M37.689,12.903c-0.671,0-1.315-0.358-1.654-0.996c-0.495-0.912-0.15-2.051,0.768-2.539l17.044-9.134  c0.905-0.508,2.051-0.156,2.539,0.768c0.495,0.912,0.149,2.051-0.769,2.539l-17.044,9.134  C38.294,12.831,37.988,12.903,37.689,12.903z"></path><path d="M56.387,29.257c0.495-0.912,0.149-2.051-0.769-2.539l-17.044-9.134c-0.905-0.501-2.051-0.149-2.539,0.769  c-0.495,0.911-0.15,2.051,0.768,2.539l17.044,9.134c0.28,0.156,0.586,0.228,0.886,0.228C55.403,30.253,56.048,29.895,56.387,29.257z  "></path><path d="M60.586,15.286c0-1.035-0.847-1.882-1.882-1.882H43.783c-1.035,0-1.882,0.847-1.882,1.882s0.847,1.881,1.882,1.881h14.921  C59.739,17.167,60.586,16.321,60.586,15.286z"></path><g><path d="M21.276,28.319c6.035,0,10.925-4.883,10.925-10.924c0-6.048-4.89-10.938-10.925-10.938   c-6.055,0-10.963,4.889-10.963,10.938C10.312,23.437,15.221,28.319,21.276,28.319z"></path><path d="M22.318,30.884h-1.042h-1.061c-10.202,0-14.349,3.327-17.038,8.815C2.337,41.399,0.938,55.208,0,65.467h7.487l1.719-17.773   l0.541,17.773h23.053l0.541-17.773l1.719,17.773h7.487c-0.95-10.26-2.337-24.068-3.184-25.768   C36.686,34.211,32.52,30.884,22.318,30.884z"></path><path d="M78.737,28.319c6.016,0,10.918-4.883,10.918-10.924c0-6.048-4.902-10.938-10.918-10.938   c-6.049,0-10.951,4.889-10.951,10.938C67.786,23.437,72.688,28.319,78.737,28.319z"></path><path d="M96.823,39.7c-2.695-5.488-6.843-8.815-17.045-8.815h-1.055h-1.041c-10.202,0-14.369,3.327-17.051,8.815   c-0.827,1.699-2.227,15.508-3.178,25.768h7.48l1.726-17.773l0.54,17.773h23.054l0.54-17.773l1.719,17.773H100   C99.056,55.208,97.656,41.399,96.823,39.7z"></path></g></svg>