<svg xmlns="http://www.w3.org/2000/svg" xmlns:xlink="http://www.w3.org/1999/xlink" version="1.1" x="0px" y="0px" viewBox="0 0 100 99.284" enable-background="new 0 0 100 99.284" xml:space="preserve"><path d="M41.726,43.269v8.398l-2.363-2.435l-4.395,8.516L30.71,47.109L14.251,60.873l5.534-19.583l-7.799,1.419l4.818-4.974  L0,27.917l18.574,1.302c-1.966-4.049-5.482-10.781-5.482-10.781l11.595,2.565L20.566,0l13.021,16.758l4.779-12.409l3.177,13.294  L52.91,5.873l-4.323,18.672l16.042,1.706l-10.788,6.901C46.96,34.922,41.726,38.086,41.726,43.269z"></path><path d="M98.574,81.693h-0.892v-2.331c0-4.205-0.254-8.06-0.769-11.588c-0.013-0.065-0.032-0.092-0.052-0.156V44.232h-1.381v-5.417  H93.62v5.417h-1.4v15.977c-0.325-0.222-0.664-0.417-1.028-0.625V43.269c0-1.341-6.354-5.469-21.589-5.469  s-21.419,4.127-21.419,5.469v16.445c-2.956,1.628-4.778,4.311-5.469,8.061c-0.521,3.528-0.769,7.383-0.769,11.588v2.331h-0.904  c-0.944,0-1.413,1.263-1.413,3.828c0,2.487,0.469,3.75,1.413,3.75h5.918v1.133c0,1.731,0.071,3.151,0.195,4.258  c0.117,1.106,0.273,2.019,0.449,2.708c0.774,1.264,2.193,1.914,4.238,1.914c1.973,0,3.359-0.65,4.114-1.914  c0.515-1.041,0.781-3.099,0.781-6.158v-1.94h26.146v1.94c0,3.06,0.261,5.117,0.781,6.158c0.769,1.264,2.143,1.914,4.115,1.914  c2.057,0,3.477-0.65,4.231-1.914c0.169-0.689,0.325-1.602,0.456-2.708c0.123-1.106,0.195-2.526,0.195-4.258v-1.133h5.911  c0.95,0,1.426-1.263,1.426-3.75C100,82.956,99.524,81.693,98.574,81.693z M52.871,77.096c-2.116,0-3.848-1.731-3.848-3.854  c0-2.123,1.731-3.854,3.848-3.854c2.122,0,3.854,1.731,3.854,3.854C56.726,75.365,54.993,77.096,52.871,77.096z M55.222,59.922  c-1.335,0-2.422-1.068-2.422-2.409v-5.481c0-1.328,0.97-2.513,2.422-3.19c0,0,5.892-2.018,14.59-2.018  c8.685,0,14.622,2.018,14.622,2.018c1.901,0.963,2.415,2.591,2.415,3.933v4.739c0,1.341-1.08,2.409-2.415,2.409H55.222z   M79.929,77.669H59.694c-0.378,0-0.684-0.3-0.684-0.677c0-0.365,0.306-0.678,0.684-0.678h20.234c0.364,0,0.677,0.312,0.677,0.678  C80.605,77.37,80.293,77.669,79.929,77.669z M79.929,73.815H59.694c-0.378,0-0.684-0.312-0.684-0.689  c0-0.378,0.306-0.678,0.684-0.678h20.234c0.364,0,0.677,0.3,0.677,0.678C80.605,73.502,80.293,73.815,79.929,73.815z M79.929,69.935  H59.694c-0.378,0-0.684-0.3-0.684-0.677c0-0.365,0.306-0.678,0.684-0.678h20.234c0.364,0,0.677,0.312,0.677,0.678  C80.605,69.635,80.293,69.935,79.929,69.935z M86.712,77.096c-2.122,0-3.841-1.731-3.841-3.854c0-2.123,1.719-3.854,3.841-3.854  c2.116,0,3.842,1.731,3.842,3.854C90.554,75.365,88.828,77.096,86.712,77.096z"></path></svg>