<svg xmlns="http://www.w3.org/2000/svg" xmlns:xlink="http://www.w3.org/1999/xlink" version="1.1" x="0px" y="0px" viewBox="0 0 100 98.685" enable-background="new 0 0 100 98.685" xml:space="preserve"><path d="M93.633,13.099c-0.222-0.403-0.378-0.742-0.56-1.12c0.156-0.781,0.273-1.784,0.104-2.904  c-0.325-1.719-0.149-3.411,0.43-4.323c1.081-1.719,3.503-2.474,6.394-2.865c-0.677,1.498-2.976,2.917-3.105,4.935  c-0.078,1.51,0.144,3.412-0.437,4.323C95.84,12.135,94.876,12.747,93.633,13.099z"></path><path d="M95.195,36.849c-0.228-0.195-0.449-0.338-0.671-0.508c-0.469-0.364-0.95-0.69-1.426-0.938  c-0.247-0.13-0.494-0.234-0.735-0.325c-0.462-0.183-0.918-0.339-1.36-0.443c-0.215-0.052-0.43-0.104-0.632-0.143  c-0.488-0.078-0.95-0.117-1.38-0.13c-0.117,0-0.241-0.013-0.346-0.013c-0.611,0-1.152,0.065-1.549,0.117  c-0.261,0.039-0.476,0.065-0.605,0.091c-0.053,0.013-0.183,0.039-0.209,0.039c-0.02,0-0.025-0.013-0.02-0.013  c0.502-0.807,10.756-9.362,6.049-16.862C86.895,9.075,86.628,4.739,89.707,0c-0.124,0.182-9.603,4.792-8.906,10.469  c0.195,1.575,0.156,2.93,0.013,4.153c-0.025,0.248-0.045,0.508-0.091,0.755c-0.188,1.107-0.481,2.057-0.872,2.838  c-0.072,0.13-0.15,0.222-0.229,0.339c-0.384,0.664-0.826,1.198-1.314,1.575c-0.085,0.065-0.15,0.156-0.234,0.208  c-0.534,0.365-1.088,0.534-1.628,0.56c-0.059,0.013-0.104,0.065-0.156,0.065c-0.071,0-0.117-0.065-0.176-0.078  c-0.554-0.039-1.081-0.182-1.523-0.56c-4.18-3.606,0.176-9.258,1.895-10.299c-0.625-0.482-1.38-0.833-2.181-1.094  c-0.254-0.091-0.515-0.117-0.781-0.169c-0.561-0.13-1.12-0.234-1.699-0.26c-0.261,0-0.521,0.013-0.781,0.026  c-1.12,0.052-2.246,0.222-3.21,0.651c-8.027,3.528-2.761,15.091-8.718,17.461c-0.403,0.156-0.774,0.234-1.106,0.234  c-0.078,0-0.13-0.052-0.202-0.065c-0.188-0.013-0.357-0.078-0.527-0.156c-0.208-0.078-0.423-0.169-0.605-0.312  c-0.143-0.117-0.273-0.247-0.391-0.403c-0.169-0.183-0.306-0.391-0.436-0.625c-0.104-0.183-0.202-0.365-0.287-0.56  c-0.11-0.273-0.201-0.521-0.293-0.807c-0.064-0.208-0.13-0.417-0.182-0.638c-0.078-0.287-0.131-0.573-0.176-0.859  c-0.046-0.221-0.085-0.417-0.111-0.625c-0.039-0.287-0.064-0.534-0.098-0.794c-0.013-0.182-0.039-0.352-0.045-0.521  c-0.02-0.234-0.026-0.391-0.026-0.573c-0.007-0.13-0.02-0.273-0.02-0.364c0-0.222,0-0.365,0.007-0.365  c-1.191,1.276-2.148,2.552-2.995,3.815c-0.241,0.365-0.456,0.729-0.677,1.094c-0.573,0.964-1.055,1.914-1.439,2.878  c-0.072,0.143-0.137,0.299-0.189,0.456c-0.072,0.169-0.169,0.352-0.228,0.521c-0.43,1.224-0.735,2.435-0.892,3.606  c-0.033,0.222-0.02,0.43-0.039,0.638c-0.085,0.99-0.098,1.953-0.013,2.904c0.033,0.338,0.072,0.69,0.124,1.028  c0.137,0.886,0.339,1.745,0.612,2.591c0.071,0.234,0.124,0.469,0.202,0.69c0.391,1.042,0.873,2.019,1.438,2.969  c0.144,0.234,0.319,0.456,0.476,0.703c0.481,0.703,1.003,1.394,1.575,2.044c0.222,0.248,0.437,0.495,0.678,0.742  c0.689,0.716,1.438,1.393,2.232,2.018c0.111,0.078,0.202,0.169,0.3,0.248c0.905,0.677,1.882,1.263,2.884,1.797  c0.293,0.156,0.6,0.3,0.898,0.442c0.775,0.365,1.576,0.69,2.39,0.977c0.312,0.117,0.625,0.234,0.944,0.312  c1.094,0.326,2.213,0.6,3.346,0.742c0.15,0.026,0.3,0.014,0.449,0.039c0.938,0.104,1.889,0.117,2.832,0.092  c0.788-0.014,1.576-0.131,2.363-0.248c0.554-0.078,1.113-0.13,1.66-0.273c0.092-0.013,0.176-0.064,0.273-0.091  c0.703-0.169,1.406-0.442,2.097-0.716c0.515-0.195,1.028-0.339,1.53-0.6c0.84-0.403,1.627-0.976,2.422-1.536  c0.41-0.287,0.833-0.495,1.23-0.82c1.152-0.963,2.252-2.07,3.268-3.398c0.547-0.703,1.133-1.302,1.745-1.849  c0.208-0.182,0.41-0.325,0.618-0.495c0.43-0.338,0.859-0.651,1.303-0.938c0.24-0.143,0.481-0.287,0.723-0.417  c0.43-0.234,0.853-0.456,1.282-0.638c0.228-0.104,0.456-0.195,0.684-0.287c0.469-0.182,0.918-0.325,1.36-0.456  c0.17-0.052,0.332-0.104,0.495-0.156c0.599-0.156,1.172-0.273,1.687-0.352c0.045-0.013,0.078-0.013,0.13-0.013  c0.476-0.078,0.898-0.117,1.27-0.143c0.124-0.013,0.202-0.013,0.319-0.013c0.149-0.013,0.332-0.026,0.462-0.026  c0.071,0,0.052,0.013,0.117,0.013c0.339,0.013,0.579,0.026,0.599,0.052C96.543,38.203,95.872,37.474,95.195,36.849z"></path><path d="M46.217,41.667c-2.356-5.417-2.109-11.263,0.449-16.862l-2.832-2.839L0,65.807h10.97v32.878h27.402V76.757h10.944v21.928  h27.402V65.807h10.964L76.536,54.662c-2.389,0.859-4.889,1.432-7.545,1.432C59.265,56.093,49.896,50.156,46.217,41.667z"></path></svg>