<svg xmlns="http://www.w3.org/2000/svg" xmlns:xlink="http://www.w3.org/1999/xlink" version="1.1" x="0px" y="0px" viewBox="0 0 94.212 100" enable-background="new 0 0 94.212 100" xml:space="preserve"><path d="M60.797,79.368l-0.064,1.699l-12.81-1.302L55.218,100L40.605,84.896l-4.531,8.776L31.68,82.708L14.697,96.901l5.707-20.202  l-8.043,1.472l4.974-5.131L0,62.91l19.154,1.341c-2.025-4.18-5.651-11.113-5.651-11.113l11.963,2.644l-4.245-21.667l13.425,17.285  L39.58,38.6l3.271,13.717l11.729-12.142l-4.463,19.251l4.898,0.521c0.144,0.208,0.195,0.462,0.352,0.657  c1.498,1.855,3.613,3.027,5.971,3.313l-0.026,0.697l-11.784,7.545L60.797,79.368z"></path><path d="M85.394,8.49c0,4.694-3.802,8.496-8.477,8.496c-4.7,0-8.516-3.802-8.516-8.496c0-4.694,3.815-8.49,8.516-8.49  C81.592,0,85.394,3.795,85.394,8.49z"></path><path d="M94.196,54.583c0.17,1.562-0.977,2.976-2.539,3.139c-0.104,0.006-0.208,0.013-0.312,0.013c-1.445,0-2.682-1.094-2.825-2.565  L86.28,32.025l-0.561,17.969l1.641,46.439c0.117,1.842-1.263,3.424-3.099,3.561C84.17,100,84.098,100,84.027,100  c-1.745,0-3.216-1.335-3.347-3.093l-3.775-38.262l-3.789,38.262C72.985,98.665,71.514,100,69.769,100c-0.065,0-0.137,0-0.228-0.007  c-1.83-0.137-3.21-1.719-3.093-3.561l1.634-46.439L67.53,32.025l-2.24,23.144c-0.149,1.472-1.393,2.565-2.838,2.565  c-0.104,0-0.195-0.007-0.3-0.013c-1.575-0.163-2.708-1.576-2.539-3.139c0,0,2.188-26.634,3.229-28.763  c2.083-4.271,5.312-6.849,13.248-6.849h0.814h0.807c7.937,0,11.166,2.578,13.242,6.849C92.002,27.949,94.196,54.583,94.196,54.583z"></path></svg>