<svg xmlns="http://www.w3.org/2000/svg" xmlns:xlink="http://www.w3.org/1999/xlink" version="1.1" x="0px" y="0px" viewBox="0 0 100 90.912" enable-background="new 0 0 100 90.912" xml:space="preserve"><g><path d="M76.185,82.611c0.007,0.123,0.104,0.221,0.104,0.345c0,4.401-11.433,7.956-25.54,7.956c-13.835,0-25.02-3.418-25.469-7.689   h-0.078V69.251h0.065c0.377,4.297,11.602,7.721,25.482,7.721c13.73,0,24.83-3.359,25.436-7.584V82.611z"></path><path d="M50.749,58.919c-14.108,0-25.547,3.541-25.547,7.942c0,0.071,0.059,0.137,0.065,0.208   c0.377,4.297,11.602,7.722,25.482,7.722c13.73,0,24.83-3.359,25.436-7.578c0.007-0.13,0.104-0.241,0.104-0.352   C76.289,62.46,64.856,58.919,50.749,58.919z"></path></g><polygon points="7.142,53.593 26.042,57.416 19.557,36.139 34.134,44.323 37.767,21.673 47.467,41.289 59.512,26.868 62.754,47.591   81.106,36.68 79.485,59.056 88.665,56.875 84.258,77.421 100,45.95 84.772,51.1 89.362,22.721 66.374,40.774 65.859,8.782   49.512,30.456 34.694,0 29.818,37.246 9.525,24.114 20.098,52.5 0,46.627 17.324,77.421 "></polygon></svg>