<svg xmlns="http://www.w3.org/2000/svg" xmlns:xlink="http://www.w3.org/1999/xlink" version="1.1" x="0px" y="0px" viewBox="0 0 84.935 100" enable-background="new 0 0 84.935 100" xml:space="preserve"><path d="M73.841,83.535c0.222,1.888-1.12,3.606-3.008,3.828c-1.849,0.208-3.594-1.113-3.828-3.008l-1.816-15.059l-12.239-5.065  l6.816,11.979c0.501,0.898,0.566,1.953,0.215,2.903L52.773,97.78c-0.527,1.38-1.836,2.22-3.217,2.22c-0.41,0-0.82-0.071-1.224-0.228  c-1.777-0.671-2.669-2.663-1.992-4.434l6.101-16.035L43.906,67.91L26.634,53.581L15.084,56.55c-0.326,0.104-0.664,0.156-1.003,0.156  c-0.801,0-1.602-0.28-2.227-0.808l-10.638-9.01c-1.452-1.23-1.628-3.405-0.404-4.851c1.224-1.458,3.398-1.634,4.844-0.403  l9.212,7.799c0,0,12.129-2.207,16.471-5.052c4.342-2.845,14.453-8.112,14.453-8.112c1.009-0.957,2.507-1.211,3.77-0.658l14.727,6.55  c1.731,0.762,2.513,2.799,1.751,4.531c-0.774,1.745-2.806,2.52-4.544,1.758l-12.624-5.612l-5.572,2.734l8.294,6.725l17.278,10.651  c1.504,0.254,2.663,1.465,2.839,2.976L73.841,83.535z"></path><path d="M34.095,37.162c0,4.251-3.438,7.695-7.663,7.695c-4.251,0-7.702-3.444-7.702-7.695c0-4.238,3.451-7.676,7.702-7.676  C30.657,29.486,34.095,32.923,34.095,37.162z"></path><polygon points="39.42,33.001 37.565,14.896 45.846,21.803 46.692,6.224 53.58,16.588 63.528,0 64.271,17.428 76.445,10.553   70.11,25.775 84.681,21.966 76.686,34.427 84.935,35.117 71.035,46.751 77.337,37.956 72.552,37.096 77.916,26.862 67.005,28.249   69.732,17.799 61.08,22.129 60.533,10.873 54.16,20.827 48.958,13.965 47.649,25.345 39.505,19.648 "></polygon></svg>