<svg xmlns="http://www.w3.org/2000/svg" xmlns:xlink="http://www.w3.org/1999/xlink" version="1.1" x="0px" y="0px" viewBox="0 0 70.74 100.001" enable-background="new 0 0 70.74 100.001" xml:space="preserve"><path d="M69.986,87.885c-0.833,1.765-2.376,2.871-4.128,3.288c0.814,1.602,1.016,3.503,0.209,5.267  c-1.394,3.061-5,4.401-8.047,3.015c-3.073-1.394-4.414-5-3.008-8.054c0.045-0.13,0.169-0.202,0.234-0.332l-19.939-8.952  l-20.189,8.393c0.065,0.123,0.173,0.201,0.222,0.325c1.312,3.093-0.127,6.667-3.232,7.982c-3.093,1.295-6.651-0.156-7.962-3.256  c-0.752-1.79-0.498-3.679,0.358-5.254c-1.732-0.469-3.262-1.628-4.027-3.405c-1.295-3.092,0.137-6.673,3.246-7.962  c3.093-1.309,6.65,0.144,7.962,3.229c0.049,0.13,0.033,0.267,0.082,0.391l12.747-5.3l-12.594-5.657  c-0.045,0.123-0.033,0.267-0.091,0.391c-1.39,3.053-4.997,4.4-8.057,3.014c-3.043-1.393-4.388-5-2.998-8.06  c0.811-1.765,2.373-2.858,4.121-3.294c-0.827-1.596-1.029-3.497-0.218-5.261c1.39-3.061,4.997-4.401,8.057-3.015  c3.06,1.387,4.404,4.993,2.998,8.054c-0.049,0.13-0.176,0.208-0.222,0.319l19.938,8.971l20.176-8.392  c-0.064-0.13-0.176-0.202-0.234-0.332c-1.302-3.112,0.137-6.667,3.242-7.976c3.093-1.302,6.654,0.137,7.963,3.242  c0.748,1.784,0.501,3.691-0.371,5.268c1.744,0.462,3.274,1.602,4.036,3.404c1.302,3.086-0.13,6.647-3.242,7.956  c-3.093,1.309-6.653-0.137-7.962-3.229c-0.059-0.123-0.033-0.267-0.085-0.391l-12.734,5.293l12.585,5.664  c0.045-0.123,0.032-0.267,0.091-0.391c1.406-3.053,4.993-4.4,8.04-3.014C70.032,81.218,71.373,84.818,69.986,87.885z"></path><path d="M59.791,22.826C59.791,10.228,48.839,0,35.37,0C21.88,0,10.952,10.228,10.952,22.826c0,4.583,1.475,8.828,3.955,12.409  c-1.595,1.438-2.598,3.438-2.598,5.67c0,3.685,2.731,6.647,6.371,7.552v2.748c0,4.759,3.896,8.658,8.662,8.658h16.055  c4.766,0,8.659-3.899,8.659-8.658v-2.761c3.62-0.905,6.341-3.867,6.341-7.539c0-2.22-0.996-4.219-2.578-5.658  C58.306,31.66,59.791,27.416,59.791,22.826z M24.595,31.009c-3.714,0-6.758-2.917-6.758-6.523s3.043-6.53,6.758-6.53  c3.721,0,6.748,2.923,6.748,6.53S28.315,31.009,24.595,31.009z M35.806,40.638l-6.729,3.269l6.791-11.302l6.553,11.081  L35.806,40.638z M46.144,31.009c-3.724,0-6.744-2.917-6.744-6.523s3.021-6.53,6.744-6.53c3.711,0,6.745,2.923,6.745,6.53  S49.855,31.009,46.144,31.009z"></path></svg>