<svg xmlns="http://www.w3.org/2000/svg" xmlns:xlink="http://www.w3.org/1999/xlink" version="1.1" x="0px" y="0px" viewBox="0 0 100 100" enable-background="new 0 0 100 100" xml:space="preserve"><path d="M50.006,0C22.435,0,0,22.435,0,50.006C0,77.578,22.435,100,50.006,100C77.578,100,100,77.578,100,50.006  C100,22.435,77.578,0,50.006,0z M72.78,19.115L50,41.895l-22.78-22.78c6.399-4.733,14.231-7.63,22.786-7.63  C58.555,11.484,66.387,14.381,72.78,19.115z M11.484,50.006c0-8.542,2.897-16.374,7.617-22.767l22.78,22.767L19.115,72.78  C14.381,66.387,11.484,58.555,11.484,50.006z M27.227,80.892L50,58.125l22.78,22.78c-6.394,4.72-14.226,7.617-22.774,7.617  C41.452,88.522,33.62,85.625,27.227,80.892z M80.892,72.786l-22.779-22.78l22.779-22.78c4.733,6.393,7.631,14.225,7.631,22.78  C88.522,58.562,85.625,66.394,80.892,72.786z"></path></svg>