<svg xmlns="http://www.w3.org/2000/svg" xmlns:xlink="http://www.w3.org/1999/xlink" version="1.1" x="0px" y="0px" viewBox="0 0 100 68.086" enable-background="new 0 0 100 68.086" xml:space="preserve"><path d="M92.761,24.779l-8.269,10.182l8.269,10.183c1.113,1.367,0.898,3.372-0.456,4.479c-0.593,0.469-1.302,0.703-2.005,0.703  c-0.925,0-1.83-0.391-2.461-1.172L80.403,40l-7.435,9.153c-0.612,0.781-1.53,1.172-2.461,1.172c-0.703,0-1.419-0.234-2.005-0.703  c-1.361-1.106-1.562-3.111-0.463-4.479l8.275-10.183L68.04,24.779c-1.1-1.367-0.898-3.359,0.463-4.479  c1.354-1.106,3.372-0.898,4.466,0.469l7.435,9.154l7.436-9.154c1.106-1.367,3.105-1.575,4.466-0.469  C93.659,21.419,93.874,23.412,92.761,24.779z"></path><path d="M62.161,20.312c-1.36-1.12-3.372-0.898-4.466,0.469l-7.438,9.154l-7.429-9.154c-1.1-1.367-3.102-1.588-4.473-0.469  c-1.357,1.107-1.559,3.099-0.459,4.453l8.271,10.195l-8.271,10.183c-1.1,1.367-0.898,3.359,0.459,4.479  c0.596,0.469,1.309,0.703,2.015,0.703c0.921,0,1.83-0.391,2.458-1.172L50.257,40l7.438,9.153c0.612,0.781,1.53,1.172,2.461,1.172  c0.703,0,1.419-0.234,2.005-0.703c1.354-1.119,1.576-3.111,0.456-4.479l-8.274-10.183l8.274-10.195  C63.737,23.412,63.516,21.419,62.161,20.312z"></path><path d="M31.276,20.299c-1.374-1.12-3.372-0.885-4.473,0.469l-7.435,9.154l-7.435-9.154c-1.104-1.354-3.102-1.588-4.453-0.469  c-1.38,1.107-1.579,3.112-0.462,4.479l8.262,10.182L7.018,45.144C5.902,46.511,6.1,48.516,7.48,49.622  c0.583,0.469,1.295,0.703,1.996,0.703c0.921,0,1.829-0.391,2.458-1.172L19.369,40l7.435,9.153c0.628,0.781,1.533,1.172,2.458,1.172  c0.706,0,1.419-0.234,2.015-0.703c1.357-1.106,1.56-3.111,0.459-4.479L23.46,34.961l8.274-10.182  C32.835,23.412,32.633,21.406,31.276,20.299z"></path><path d="M5.947,11.914H94.05c3.274,0,5.95-2.669,5.95-5.977C100,2.669,97.324,0,94.05,0H5.947C2.66,0,0,2.669,0,5.938  C0,9.245,2.66,11.914,5.947,11.914z"></path><path d="M94.05,56.172H5.947C2.66,56.172,0,58.854,0,62.136c0,3.268,2.66,5.95,5.947,5.95H94.05c3.274,0,5.95-2.683,5.95-5.95  C100,58.854,97.324,56.172,94.05,56.172z"></path></svg>