<svg xmlns="http://www.w3.org/2000/svg" xmlns:xlink="http://www.w3.org/1999/xlink" version="1.1" x="0px" y="0px" viewBox="0 0 82.526 100" enable-background="new 0 0 82.526 100" xml:space="preserve"><path d="M78.659,92.239H67.213c-0.364-2.552-0.846-5.755-1.497-9.883c-1.445-9.18-3.567-22.422-6.394-39.752V19.193h4.18L40.69,0  L19.05,19.193h4.297v23.854h0.143c-4.349,24.44-7.096,40.82-8.229,49.192H3.867C1.719,92.239,0,93.972,0,96.133  C0,98.269,1.719,100,3.867,100h74.792c2.136,0,3.867-1.731,3.867-3.867C82.526,93.972,80.794,92.239,78.659,92.239z M59.518,83.75  L45.482,67.864l9.349-10.599L59.518,83.75z M41.563,64.427L28.919,50.338l0.951-6.393l22.682-0.052l1.094,6.719L41.563,64.427z   M28.529,19.245H54.01v8.047H28.529V19.245z M27.409,56.028L38.32,68.177L21.797,86.575L27.409,56.028z M22.943,92.239  l18.542-20.221l18.268,20.221H22.943z"></path></svg>