<svg xmlns="http://www.w3.org/2000/svg" xmlns:xlink="http://www.w3.org/1999/xlink" version="1.1" x="0px" y="0px" viewBox="0 0 100 96.966" enable-background="new 0 0 100 96.966" xml:space="preserve"><path d="M49.121,70.091c0,0.625-0.443,1.549-1.283,2.773c-2.116,2.942-7.858,10.977-17.188,24.102l-17.52-24.232  c-0.846-1.133-1.27-2.018-1.27-2.643c0-1.328,0.788-1.992,2.39-2.006l10.807,2.656V0L35.43,0.013v70.951l11.458-2.878  C48.366,68.085,49.102,68.763,49.121,70.091z"></path><path d="M88.899,26.875c0-0.625-0.423-1.523-1.27-2.669L70.104,0.013c-9.336,13.112-15.072,21.146-17.188,24.062  c-0.834,1.237-1.276,2.175-1.276,2.8c0.02,1.328,0.749,1.979,2.22,1.979l11.465-2.877v70.976l10.378,0.014V26.211l10.801,2.643  C88.112,28.854,88.899,28.203,88.899,26.875z"></path><rect y="38.932" width="18.659" height="7.474"></rect><rect x="41.12" y="38.932" width="18.653" height="7.474"></rect><rect x="81.335" y="38.932" width="18.665" height="7.474"></rect></svg>