<svg xmlns="http://www.w3.org/2000/svg" xmlns:xlink="http://www.w3.org/1999/xlink" version="1.1" x="0px" y="0px" viewBox="0 0 93.435 100" enable-background="new 0 0 93.435 100" xml:space="preserve"><path d="M89.542,57.132L77.697,68.46l3.591,1.046c-5.147,8.468-14.453,12.186-25.051,12.916V39.516h9.829  c0.825,0.825,1.959,1.33,3.213,1.33c2.495,0,4.53-2.022,4.53-4.524s-2.035-4.53-4.53-4.53c-1.254,0-2.388,0.51-3.213,1.335h-9.829  v-5.172c4.782-1.865,8.19-6.49,8.19-11.92c0-7.057-5.745-12.809-12.814-12.809c-2.577,0-4.965,0.781-6.975,2.092  C40.984,2.054,36.227,0,30.973,0H20.64C9.293,0,0,9.293,0,20.64v10.333C0,42.32,9.293,51.613,20.64,51.613h10.333  c7.062,0,13.325-3.604,17.048-9.061v39.844c-11.17-0.831-20.917-5.173-25.806-14.34l3.579-0.794L14.717,55.186L9.791,70.811  l4.177-0.927c6.105,13.37,20.01,24.137,35.723,25.177L52.129,100l2.432-4.927c14.944-1.002,28.238-10.824,34.822-23.198l4.052,1.185  L89.542,57.132z M49.03,30.973c0,9.955-8.103,18.057-18.057,18.057H20.64c-9.955,0-18.057-8.103-18.057-18.057V20.64  c0-9.955,8.102-18.057,18.057-18.057h10.333c9.955,0,18.057,8.103,18.057,18.057V30.973z M51.613,22.606V20.64  c0-3.806-1.115-7.333-2.93-10.402c0.895-0.454,1.858-0.769,2.93-0.769c3.623,0,6.571,2.942,6.571,6.565  C58.184,19.657,55.236,22.606,51.613,22.606z"></path><polygon points="39.012,13.735 43.573,18.296 21.717,40.159 8.039,26.487 12.601,21.925 21.717,31.036 "></polygon></svg>