<svg xmlns="http://www.w3.org/2000/svg" xmlns:xlink="http://www.w3.org/1999/xlink" version="1.1" x="0px" y="0px" viewBox="0 0 98.733 100" enable-background="new 0 0 98.733 100" xml:space="preserve"><path d="M98.733,74.918V64.541L56.697,38.187V8.298c0-1.355-0.523-2.545-1.524-3.547c-1.009-1.021-2.212-1.525-3.554-1.525h-0.252  c-1.354,0-2.489,0.504-3.428,1.525c-0.718,0.781-1.077,1.708-1.241,2.709C42.906,2.942,37.292,0,30.973,0H20.64  C9.293,0,0,9.293,0,20.64v10.333C0,42.32,9.293,51.613,20.64,51.613h4.479L4.492,64.541v10.377L46.547,61.24v22.555l-9.375,9.123  V100l14.447-4.303L65.789,100v-7.082l-9.092-9.123V61.24L98.733,74.918z M49.03,30.973c0,9.955-8.103,18.057-18.057,18.057H20.64  c-9.955,0-18.057-8.103-18.057-18.057V20.64c0-9.955,8.103-18.057,18.057-18.057h10.333c9.955,0,18.057,8.103,18.057,18.057V30.973z  "></path><polygon points="36.303,40.864 25.806,30.368 15.31,40.864 10.749,36.303 21.245,25.807 10.749,15.31 15.31,10.749 25.806,21.245   36.303,10.749 40.864,15.31 30.368,25.807 40.864,36.303 "></polygon></svg>