<svg xmlns="http://www.w3.org/2000/svg" xmlns:xlink="http://www.w3.org/1999/xlink" version="1.1" x="0px" y="0px" viewBox="0 0 100 85.925" enable-background="new 0 0 100 85.925" xml:space="preserve"><path d="M71.364,33.077c-3.213,0-5.853,2.621-5.853,5.859c0,3.213,2.64,5.847,5.853,5.847c3.239,0,5.859-2.634,5.859-5.847  C77.224,35.698,74.604,33.077,71.364,33.077z M71.364,42.086c-1.726,0-3.149-1.424-3.149-3.15c0-1.764,1.424-3.15,3.149-3.15  c1.752,0,3.157,1.386,3.157,3.15C74.521,40.663,73.116,42.086,71.364,42.086z"></path><path d="M71.364,44.784H46.346c-0.151,0.201,2.64-3.44,3.654-5.847h14.176c0-3.982,3.22-7.22,7.188-7.22  c3.988,0,7.221,3.238,7.221,7.22h5.286v-4.385h-1.128c0-5.695-3.56-6.389-3.56-6.389c-5.204-0.718-14.183-1.083-14.183-1.083  c-0.818-1.437-4.624-9.778-6.836-9.778c-0.289,0-3.578,0-6.893,0C49.653,7.535,41.18,0,30.973,0H20.64C9.293,0,0,9.299,0,20.64  v10.333c0,5.507,2.211,10.497,5.759,14.202c-0.158-0.127-0.347-0.24-0.492-0.391H3.226v41.142h19.109  c-0.063-0.794-0.12-1.601-0.12-2.42c0-16.078,13.029-29.107,29.101-29.107c16.072,0,29.102,13.029,29.102,29.107  c0,0.819-0.057,1.626-0.119,2.42H100V44.784H71.364z M57.599,18.397c1.486,0,4.788,6.868,5.708,8.632H51.613V20.64  c0-0.769-0.146-1.487-0.228-2.243C53.352,18.397,56.641,18.397,57.599,18.397z M30.973,49.03H20.64  c-9.955,0-18.057-8.103-18.057-18.057V20.64c0-9.955,8.103-18.057,18.057-18.057h10.333c9.955,0,18.057,8.103,18.057,18.057v10.333  C49.03,40.927,40.927,49.03,30.973,49.03z"></path><rect x="7.737" y="22.593" width="36.139" height="6.452"></rect></svg>