<svg xmlns="http://www.w3.org/2000/svg" xmlns:xlink="http://www.w3.org/1999/xlink" version="1.1" x="0px" y="0px" viewBox="0 0 100 85.925" enable-background="new 0 0 100 85.925" xml:space="preserve"><path d="M71.364,33.077c-3.213,0-5.853,2.621-5.853,5.859c0,3.213,2.64,5.846,5.853,5.846c3.239,0,5.859-2.633,5.859-5.846  C77.224,35.698,74.604,33.077,71.364,33.077z M71.364,42.086c-1.726,0-3.149-1.424-3.149-3.15c0-1.764,1.424-3.15,3.149-3.15  c1.752,0,3.157,1.386,3.157,3.15C74.521,40.663,73.116,42.086,71.364,42.086z"></path><path d="M71.364,44.783H46.182c1.569-1.726,2.898-3.673,3.818-5.846h14.176c0-3.982,3.22-7.22,7.188-7.22  c3.988,0,7.221,3.238,7.221,7.22h5.286v-4.385h-1.128c0-5.695-3.56-6.389-3.56-6.389c-5.204-0.718-14.183-1.083-14.183-1.083  c-0.818-1.437-4.624-9.778-6.836-9.778c-0.296,0-3.521,0-6.893,0C49.653,7.535,41.18,0,30.973,0H20.64C9.293,0,0,9.293,0,20.64  v10.333c0,5.317,2.098,10.137,5.431,13.81H3.226v41.143h19.109c-0.063-0.794-0.12-1.601-0.12-2.42  c0-16.078,13.029-29.107,29.101-29.107c16.072,0,29.102,13.029,29.102,29.107c0,0.819-0.057,1.626-0.119,2.42H100V44.783H71.364z   M57.599,18.397c1.486,0,4.788,6.868,5.708,8.632l-11.693,0.208V20.64c0-0.769-0.146-1.493-0.228-2.243  C53.282,18.397,56.603,18.397,57.599,18.397z M30.973,49.03H20.64c-9.955,0-18.057-8.103-18.057-18.057V20.64  c0-9.955,8.103-18.057,18.057-18.057h10.333c9.955,0,18.057,8.103,18.057,18.057v10.333C49.03,40.927,40.927,49.03,30.973,49.03z"></path><polygon points="15.31,40.864 25.807,30.368 36.303,40.864 40.864,36.303 30.368,25.806 40.864,15.31 36.303,10.749 25.807,21.245   15.31,10.749 10.749,15.31 21.245,25.806 10.749,36.303 "></polygon></svg>