<svg xmlns="http://www.w3.org/2000/svg" xmlns:xlink="http://www.w3.org/1999/xlink" version="1.1" x="0px" y="0px" viewBox="0 0 99.924 100" enable-background="new 0 0 99.924 100" xml:space="preserve"><path d="M99.924,100L74.137,3.299H42.023C38.813,1.234,35.029,0,30.95,0H20.625C9.286,0,0,9.28,0,20.625v10.325  c0,9.834,7.007,18.119,16.268,20.134L3.224,100H99.924z M54.797,96.468h-6.447V83.562h6.447V96.468z M54.797,70.662h-6.447V57.763  h6.447V70.662z M54.797,44.856h-6.447v-2.978c1.838-2.908,2.94-6.289,3.123-9.922h3.324V44.856z M48.351,6.157h6.447v12.9h-3.381  c-0.264-3.419-1.322-6.611-3.066-9.368V6.157z M2.582,30.949V20.625c0-9.947,8.096-18.043,18.043-18.043H30.95  c9.947,0,18.043,8.096,18.043,18.043v10.325c0,9.947-8.096,18.043-18.043,18.043H20.625C10.678,48.993,2.582,40.896,2.582,30.949z"></path><rect x="7.731" y="22.563" width="36.112" height="6.447"></rect></svg>