<svg xmlns="http://www.w3.org/2000/svg" xmlns:xlink="http://www.w3.org/1999/xlink" version="1.1" x="0px" y="0px" viewBox="0 0 100 93.951" enable-background="new 0 0 100 93.951" xml:space="preserve"><path d="M51.613,9.274l-2.237,2.237C45.98,4.731,39.031,0,30.973,0H20.64C9.293,0,0,9.293,0,20.64v10.333  c0,8.058,4.731,15.007,11.511,18.403l-8.285,8.285h12.097v36.29h30.242V69.758h12.097v24.193h30.242v-36.29H100L51.613,9.274z   M49.03,30.973c0,9.955-8.103,18.057-18.057,18.057H20.64c-9.955,0-18.057-8.102-18.057-18.057V20.64  c0-9.955,8.103-18.057,18.057-18.057h10.333c9.955,0,18.057,8.102,18.057,18.057V30.973z"></path><polygon points="30.368,25.806 40.864,36.303 36.303,40.864 25.807,30.368 15.31,40.864 10.749,36.303 21.245,25.806 10.749,15.31   15.31,10.748 25.807,21.245 36.303,10.748 40.864,15.31 "></polygon></svg>