<svg xmlns="http://www.w3.org/2000/svg" xmlns:xlink="http://www.w3.org/1999/xlink" version="1.1" x="0px" y="0px" viewBox="0 0 83.871 100" enable-background="new 0 0 83.871 100" xml:space="preserve"><path d="M41.917,3.226C38.729,1.209,34.993,0,30.973,0H20.64C9.293,0,0,9.293,0,20.64v10.333C0,41.879,8.613,50.8,19.355,51.48V100  h25.806V80.646h12.903V100h25.807V3.226H41.917z M38.71,64.517H25.807V51.613h5.166c2.734,0,5.343-0.567,7.737-1.544V64.517z   M30.973,49.03H20.64c-9.955,0-18.057-8.103-18.057-18.057V20.64c0-9.955,8.103-18.057,18.057-18.057h10.333  c9.955,0,18.058,8.103,18.058,18.057v10.333C49.03,40.927,40.928,49.03,30.973,49.03z M58.064,64.517H45.161V45.867  c0.239-0.227,0.473-0.466,0.706-0.706h12.197V64.517z M58.064,32.258H51.48c0.031-0.435,0.133-0.844,0.133-1.286V20.64  c0-2.734-0.567-5.343-1.544-7.737h7.995V32.258z M77.419,64.517H64.517V45.161h12.902V64.517z M77.419,32.258H64.517V12.903h12.902  V32.258z"></path><polygon points="40.864,15.31 36.303,10.749 25.807,21.245 15.31,10.749 10.749,15.31 21.245,25.807 10.749,36.303 15.31,40.864   25.807,30.368 36.303,40.864 40.864,36.303 30.368,25.807 "></polygon></svg>