<svg xmlns="http://www.w3.org/2000/svg" xmlns:xlink="http://www.w3.org/1999/xlink" version="1.1" x="0px" y="0px" viewBox="0 0 98.733 100" enable-background="new 0 0 98.733 100" xml:space="preserve"><path d="M98.733,74.918V64.541L56.697,38.187V8.298c0-1.355-0.523-2.545-1.524-3.547c-1.009-1.021-2.212-1.525-3.554-1.525h-0.252  c-1.354,0-2.489,0.504-3.428,1.525c-0.68,0.737-1.027,1.613-1.209,2.545c-0.113-0.113-0.151-0.069-0.151-0.069  C42.786,2.816,37.197,0,30.973,0H20.64C9.293,0,0,9.293,0,20.64v10.333C0,42.32,9.293,51.613,20.64,51.613h4.479L4.492,64.541  v10.377L46.547,61.24v22.555l-9.375,9.123V100l14.447-4.303L65.789,100v-7.082l-9.092-9.123V61.24L98.733,74.918z M49.03,30.973  c0,9.955-8.103,18.057-18.057,18.057H20.64c-9.955,0-18.057-8.103-18.057-18.057V20.64c0-9.955,8.103-18.057,18.057-18.057h10.333  c9.955,0,18.057,8.103,18.057,18.057V30.973z"></path><polygon points="38.294,12.122 42.855,16.684 20.999,38.546 7.321,24.874 11.882,20.312 20.999,29.423 "></polygon></svg>