<svg xmlns="http://www.w3.org/2000/svg" xmlns:xlink="http://www.w3.org/1999/xlink" version="1.1" x="0px" y="0px" viewBox="0 0 65.953 100" enable-background="new 0 0 65.953 100" xml:space="preserve"><path d="M64.67,48.497c-1.712,3.151-2.956,5.104-3.724,5.873c-3.041,3.906-6.85,7.09-11.406,9.576  c-4.004,2.188-8.236,3.444-12.715,3.724c-4.46,0.28-8.809-0.215-12.995-1.49c-4.18-1.309-8.021-3.32-11.491-6.087  c-3.47-2.773-6.256-6.205-8.346-10.307c-2.194-4.206-3.477-8.561-3.867-13.092c-0.371-4.538,0.072-8.88,1.367-13.007  c1.289-4.154,3.359-7.969,6.211-11.452c2.852-3.477,6.367-6.367,10.56-8.659c5.905-3.06,12.891-4.147,20.989-3.294L28.544,3.295  c-3.711,1.985-6.804,4.518-9.271,7.571c-2.48,3.054-4.258,6.4-5.358,10.007c-1.094,3.633-1.478,7.383-1.146,11.243  c0.326,3.848,1.445,7.604,3.353,11.224c1.907,3.633,4.336,6.686,7.278,9.173c2.943,2.474,6.211,4.251,9.785,5.357  c3.567,1.088,7.253,1.491,11.062,1.211c3.802-0.279,7.513-1.38,11.146-3.294L64.67,48.497z"></path><rect x="4.417" y="74.395" width="52.253" height="25.605"></rect><polygon points="57.249,26.596 60.667,36.199 52.522,30.47 44.397,36.199 47.678,26.596 39.404,20.743 49.541,20.743 52.522,11.713   55.947,20.743 65.953,20.743 "></polygon></svg>