<svg xmlns="http://www.w3.org/2000/svg" xmlns:xlink="http://www.w3.org/1999/xlink" version="1.1" x="0px" y="0px" viewBox="0 0 84.557 100" enable-background="new 0 0 84.557 100" xml:space="preserve"><path d="M43.919,33.359h-3.574V0h3.574v2.754c2.917-1.159,5.657-1.784,8.223-1.784c0.769,0,1.673,0.13,2.767,0.397  c1.081,0.248,2.26,0.541,3.496,0.931c1.289,0.384,2.448,0.729,3.562,0.95c1.067,0.28,1.999,0.397,2.741,0.397  c1.419,0,2.676-0.273,3.834-0.769v15.085c-1.399,0.371-2.656,0.54-3.834,0.54c-0.742,0-1.674-0.104-2.741-0.358  c-1.113-0.26-2.272-0.566-3.562-0.97c-1.236-0.352-2.461-0.664-3.606-0.95c-1.126-0.254-2.097-0.378-2.852-0.378  c-0.391,0-0.983,0.085-1.804,0.287c-0.84,0.182-1.692,0.443-2.578,0.755c-0.904,0.325-1.68,0.625-2.402,0.885  c-0.514,0.189-0.904,0.234-1.243,0.293V33.359z"></path><path d="M68.314,44.746v-8.685h-52.07v8.685H0V100h28.841v-7.513h26.511V100h29.205V44.746H68.314z M38.972,69.974  c0,3.757-0.169,6.413-0.508,7.963c-0.339,1.556-0.964,2.871-1.888,3.932c-0.924,1.081-2.148,1.928-3.698,2.559  c-1.523,0.639-3.542,0.957-6.016,0.957c-3.008,0-5.273-0.352-6.81-1.028c-1.549-0.71-2.773-1.595-3.672-2.702  c-0.898-1.106-1.484-2.271-1.771-3.482c-0.417-1.791-0.625-4.44-0.625-7.949V53.509h6.328v16.967c0,2.701,0.078,4.446,0.234,5.24  c0.273,1.283,0.912,2.318,1.94,3.093c1.016,0.781,2.409,1.165,4.167,1.165c1.81,0,3.164-0.371,4.076-1.1  c0.911-0.729,1.458-1.641,1.641-2.709c0.195-1.061,0.286-2.832,0.286-5.325V53.509h6.315V69.974z M70.573,84.851h-6.354  L51.588,64.407v20.443h-5.872V53.509h6.159l12.812,20.925V53.509h5.885V84.851z"></path></svg>