<svg xmlns="http://www.w3.org/2000/svg" xmlns:xlink="http://www.w3.org/1999/xlink" version="1.1" x="0px" y="0px" viewBox="0 0 61.517 100" enable-background="new 0 0 61.517 100" xml:space="preserve"><rect x="3.802" y="73.796" width="53.483" height="26.204"></rect><path d="M46.178,12.012c-3.73,3.737-7.467,5.605-11.185,5.605c-5.657,0-10.599-3.047-14.863-9.134l2.409-1.588  c2.233,3.405,5.371,5.117,9.414,5.117c3.509,0,6.393-1.712,8.633-5.117L46.178,12.012z"></path><polygon points="32.591,8.652 27.649,4.316 32.591,0 36.914,4.798 "></polygon><path d="M50.65,18.568c-5.221,0-8.574,3.477-10.064,10.403c-0.104-0.104-0.378-0.156-0.808-0.156h-0.632  c-3.301,0-6.985,1.712-11.028,5.117l-0.957-0.95c0.208-0.755,0.437-1.523,0.645-2.324c0.215-0.801,0.312-1.634,0.312-2.494  c0-3.945-1.165-7.135-3.509-9.596c-2.344-2.455-5.384-3.691-9.102-3.691c-1.491,0-2.878,0.149-4.154,0.423  c-1.289,0.254-2.669,0.814-4.154,1.673l2.865,7.044c1.595-0.859,3.17-1.569,4.72-2.155c1.536-0.599,3.008-0.885,4.381-0.885  c1.92,0,3.451,0.391,4.564,1.191c1.113,0.794,1.673,2.109,1.673,3.919c0,4.492-3.301,7.63-9.896,9.446l2.708,6.738  c1.491-0.657,2.871-1.458,4.154-2.409c1.283-0.97,2.344-2.188,3.203-3.678c2.025,2.122,3.587,4.323,4.701,6.549  c1.126,2.259,1.68,4.642,1.68,7.213c0,2.559-0.931,4.747-2.793,6.569c-1.862,1.811-4.076,2.702-6.621,2.702  c-5.117,0-9.492-2.278-13.105-6.882c-3.62-4.583-6.022-10.722-7.201-18.405L0,34.577c0.332,4.369,1.178,8.444,2.565,12.168  c1.38,3.724,3.164,6.966,5.352,9.681c2.168,2.734,4.655,4.831,7.428,6.328c2.761,1.491,5.742,2.227,8.945,2.227  c3.933,0,7.136-1.113,9.583-3.359c2.448-2.227,3.666-5.208,3.666-8.952c0-4.485-1.843-9.062-5.586-13.776  c2.767-1.803,5.059-2.708,6.868-2.708c2.122,0,3.196,1.914,3.196,5.755v3.054c0,4.043,0.541,6.953,1.596,8.717  c1.074,1.765,2.936,2.63,5.605,2.63c3.717,0,6.692-1.692,8.945-5.117c2.227-3.411,3.353-8.32,3.353-14.726  C61.517,24.544,57.891,18.568,50.65,18.568z M55.911,46.348c-1.797,2.396-4.043,3.6-6.692,3.6c-2.878,0-4.33-2.467-4.33-7.37v-7.832  c0-2.455-0.787-4.167-2.389-5.13c1.602-3.32,4.153-4.948,7.669-4.948c2.448,0,4.473,1.166,6.074,3.496  c1.595,2.363,2.39,5.404,2.39,9.134C58.633,40.931,57.728,43.939,55.911,46.348z"></path></svg>