<svg xmlns="http://www.w3.org/2000/svg" xmlns:xlink="http://www.w3.org/1999/xlink" version="1.1" x="0px" y="0px" viewBox="0 0 100 99.922" enable-background="new 0 0 100 99.922" xml:space="preserve"><polygon points="95.84,33.255 50,10.469 4.16,33.255 0,24.883 49.935,0.059 49.955,0 50,0.026 50.045,0 50.065,0.059 100,24.883 "></polygon><polygon points="26.725,84.304 26.725,71.087 37.272,76.751 48.203,70.677 48.203,95 "></polygon><polygon points="73.281,84.304 51.804,94.993 51.804,70.638 62.8,76.751 73.281,71.126 "></polygon><path d="M89.98,47.962l-2.878-1.556L63.294,33.431l-13.125,7.155l-13.477-7.331L10.02,47.76l2.838,1.602l10.404,5.782l-0.13,0.059  h-0.006v0.013l-12.877,7.012l12.877,6.921v17.396l26.869,13.379l26.875-13.379V69.199l12.982-6.973l-12.917-7.019L89.98,47.962z   M17.474,47.806l19.219-10.469l9.524,5.195L26.771,52.976L17.474,47.806z M37.233,72.644L17.799,62.207l9.519-5.195l19.414,10.501  L37.233,72.644z M63.294,37.526l19.219,10.462l-9.303,5.176L53.77,42.728L63.294,37.526z M82.278,62.2L62.839,72.644l-9.336-5.131  l19.244-10.501L82.278,62.2z"></path></svg>