<svg xmlns="http://www.w3.org/2000/svg" xmlns:xlink="http://www.w3.org/1999/xlink" version="1.1" x="0px" y="0px" viewBox="0 0 100 100" enable-background="new 0 0 100 100" xml:space="preserve"><polygon points="83.479,40.312 49.449,54.127 15.419,40.312 49.449,26.497 "></polygon><path d="M49.449,68.983c-9.037,0-16.764-0.645-20.41-1.575c-1.419,2.962-2.279,6.237-2.279,9.733  c0,12.525,10.15,22.688,22.689,22.688c12.52,0,22.688-10.163,22.688-22.688c0-3.496-0.859-6.771-2.278-9.733  C66.214,68.339,58.485,68.983,49.449,68.983z"></path><path d="M49.449,56.386L26.76,47.18v14.369c0,1.536,10.15,2.767,22.689,2.767s22.688-1.23,22.688-2.767V47.18L49.449,56.386z"></path><path d="M79.378,55.931V44.257l-1.361,0.547v11.126c-0.918,0.352-1.588,1.36-1.588,2.591c0,1.042,0.475,1.901,1.178,2.376  l-0.729,3.418h3.626l-0.729-3.418c0.703-0.475,1.191-1.334,1.191-2.376C80.966,57.291,80.289,56.282,79.378,55.931z"></path><polygon points="99.449,24.713 49.514,-0.111 49.495,-0.17 49.449,-0.144 49.404,-0.17 49.384,-0.111 -0.551,24.713 3.609,33.085   49.449,10.299 95.289,33.085 "></polygon></svg>