<svg xmlns="http://www.w3.org/2000/svg" xmlns:xlink="http://www.w3.org/1999/xlink" version="1.1" x="0px" y="0px" viewBox="0 0 100 68.034" enable-background="new 0 0 100 68.034" xml:space="preserve"><path d="M100,2.331v12.188c-1.133,0.299-2.148,0.436-3.093,0.436c-0.605,0-1.36-0.084-2.213-0.287  c-0.905-0.215-1.836-0.462-2.878-0.788c-1.009-0.28-1.999-0.534-2.917-0.768c-0.918-0.202-1.699-0.306-2.311-0.306  c-0.307,0-0.795,0.072-1.459,0.234c-0.67,0.15-1.36,0.358-2.076,0.612c-0.729,0.261-1.361,0.501-1.947,0.716  c-0.416,0.15-0.723,0.189-0.996,0.234v53.431H77.22V0h2.891v2.227c2.351-0.938,4.564-1.438,6.641-1.438  c0.625,0,1.354,0.104,2.233,0.319c0.872,0.202,1.823,0.436,2.832,0.755c1.042,0.306,1.973,0.586,2.878,0.768  c0.853,0.221,1.607,0.319,2.213,0.319C98.054,2.949,99.069,2.728,100,2.331z"></path><polygon points="0,34.57 0,68.034 23.307,68.034 23.307,61.965 44.733,61.965 44.733,68.034 68.333,68.034 68.333,34.57 "></polygon><path d="M32.435,13.04c-4.375,0.423-8.21,2.018-11.426,4.785c-3.255,2.845-5.371,6.367-6.374,10.592c0,0-3.118-0.521-3.118,2.962  h45.507c0-3.099-3.418-2.962-3.418-2.962c-0.931-4.225-3.04-7.748-6.36-10.592c-3.216-2.767-7.025-4.362-11.439-4.785H32.435z"></path></svg>