<svg xmlns="http://www.w3.org/2000/svg" xmlns:xlink="http://www.w3.org/1999/xlink" version="1.1" x="0px" y="0px" viewBox="0 0 100 72.76" enable-background="new 0 0 100 72.76" xml:space="preserve"><polygon points="66.484,23.06 34.681,7.253 2.877,23.06 0,17.266 34.648,0.039 34.648,0 34.681,0 34.713,0 34.713,0.039   69.362,17.266 "></polygon><g><polygon points="25.541,69.297 25.541,49.088 43.822,49.088 43.822,69.297 53.177,69.297 53.177,23.06 43.822,23.06 43.822,41.25    25.541,41.25 25.541,23.06 16.185,23.06 16.185,69.297  "></polygon></g><path d="M96.784,5.039c-0.632,0-1.42-0.104-2.305-0.325c-0.944-0.195-1.908-0.482-2.995-0.808c-1.048-0.325-2.038-0.573-2.942-0.781  c-0.918-0.221-1.674-0.338-2.324-0.338c-2.162,0-4.467,0.534-6.914,1.498V1.979h-3.002V72.76h3.002V17.162  c0.286-0.039,0.605-0.078,1.041-0.234c0.605-0.234,1.264-0.482,2.025-0.755c0.742-0.26,1.458-0.469,2.161-0.625  c0.69-0.169,1.198-0.247,1.517-0.247c0.632,0,1.445,0.104,2.402,0.312c0.957,0.247,1.986,0.508,3.034,0.807  c1.087,0.338,2.051,0.586,2.995,0.82c0.885,0.208,1.673,0.287,2.305,0.287c0.982,0,2.037-0.13,3.216-0.443V4.401  C99.03,4.818,97.976,5.039,96.784,5.039z"></path></svg>