<svg xmlns="http://www.w3.org/2000/svg" xmlns:xlink="http://www.w3.org/1999/xlink" version="1.1" x="0px" y="0px" viewBox="0 0 100 99.987" enable-background="new 0 0 100 99.987" xml:space="preserve"><path d="M60.872,49.987c0,6.015-4.856,10.873-10.846,10.873c-6.016,0-10.872-4.857-10.872-10.873  c0-6.003,4.856-10.847,10.872-10.847C56.016,39.141,60.872,43.984,60.872,49.987z"></path><polygon points="54.688,99.987 54.688,83.086 59.714,83.073 50.013,66.29 40.306,83.086 45.326,83.086 45.326,99.987 "></polygon><polygon points="0,54.662 16.927,54.662 16.927,59.701 33.724,50 16.92,40.287 16.927,45.312 0.006,45.312 "></polygon><polygon points="100,45.312 83.093,45.312 83.093,40.3 66.296,50 83.093,59.688 83.093,54.674 100,54.662 "></polygon><polygon points="45.332,0 45.332,16.901 40.306,16.914 50.013,33.711 59.714,16.914 54.688,16.914 54.688,0 "></polygon></svg>