<svg xmlns="http://www.w3.org/2000/svg" xmlns:xlink="http://www.w3.org/1999/xlink" version="1.1" x="0px" y="0px" viewBox="0 0 100 99.922" enable-background="new 0 0 100 99.922" xml:space="preserve"><polygon points="95.84,33.255 50,10.469 4.16,33.255 0,24.883 49.935,0.059 49.955,0 50,0.026 50.045,0 50.065,0.059 100,24.883 "></polygon><path d="M74.531,40.234l-8.75,8.158H34.219l-8.744-8.158c0,0,4.355-6.1,11.537-6.881c7.031-0.781,9.473,3.516,12.995,3.691  c3.509-0.176,5.958-4.473,12.982-3.691C70.183,34.134,74.531,40.234,74.531,40.234z"></path><path d="M68.138,53.64H31.869c0,0-17.435,13.704-11.712,38.978c0,0,1.908,7.305,10.67,7.305h38.36c8.75,0,10.657-7.305,10.657-7.305  C85.566,67.344,68.138,53.64,68.138,53.64z M64.694,61.36c0,0-4.245,12.572-8.203,8.633C52.571,66.048,63.398,61.66,64.694,61.36z   M54.59,58.938c0,0-2.845,2.253-0.886,7.429c2.194,5.813-1.939,7.175-3.606,5.515C46.387,68.157,53.223,59.395,54.59,58.938z   M49.225,64.29c0,0-2.838,2.266-0.885,7.429c2.213,5.827-1.94,7.181-3.594,5.515C41.009,73.522,47.884,64.739,49.225,64.29z   M40.599,87.864l-5.183,4.375c-1.042,1.055-2.311-1.074-1.816-1.588l4.401-5.378c0.442-0.456,0.638,0.534,1.354,1.257  C40.072,87.239,41.048,87.422,40.599,87.864z M39.225,82.754c-3.73-3.711,3.125-12.487,4.492-12.937c0,0-2.845,2.246-0.885,7.422  C45.026,83.06,40.873,84.427,39.225,82.754z M43.223,86.758c-1.673-1.667-0.312-5.813,5.508-3.626  c5.163,1.966,7.422-0.866,7.422-0.866C55.703,83.613,46.94,90.469,43.223,86.758z M48.73,81.237c-1.673-1.66-0.299-5.82,5.515-3.627  c5.176,1.967,7.435-0.859,7.435-0.859C61.23,78.086,52.448,84.961,48.73,81.237z M54.089,75.872  c-1.654-1.66-0.312-5.801,5.514-3.613c5.17,1.979,7.422-0.865,7.422-0.865C66.575,72.741,57.806,79.597,54.089,75.872z"></path></svg>