<svg xmlns="http://www.w3.org/2000/svg" xmlns:xlink="http://www.w3.org/1999/xlink" version="1.1" x="0px" y="0px" viewBox="0 0 100 87.5" enable-background="new 0 0 100 87.5" xml:space="preserve"><path d="M50,0L0,50h12.5v37.5h75V50H100L50,0z M67.78,28.294c2.415,0,4.4,1.973,4.4,4.395c0,2.441-1.985,4.401-4.4,4.401  c-2.441,0-4.408-1.959-4.408-4.401C63.372,30.267,65.339,28.294,67.78,28.294z M49.994,55.052c1.503,0,2.708,1.191,2.708,2.689  c0,1.484-1.205,2.695-2.708,2.695c-1.491,0-2.715-1.211-2.715-2.695C47.279,56.243,48.502,55.052,49.994,55.052z M32.213,28.301  c2.441,0,4.414,1.966,4.414,4.401c0,2.429-1.973,4.401-4.414,4.401c-2.422,0-4.395-1.973-4.395-4.401  C27.819,30.267,29.792,28.301,32.213,28.301z M36.576,62.839l-0.879,16.23c0,0.566-0.462,1.035-1.022,1.035  c-0.586,0-1.042-0.469-1.042-1.035l-0.951-16.23h-0.983l-0.892,16.23c0,0.566-0.456,1.035-1.035,1.035  c-0.553,0-1.016-0.469-1.016-1.035l-0.898-16.23h-2.864l2.969-18.21L21.986,56.53c-0.222,0.521-0.84,0.781-1.367,0.566  c-0.515-0.234-0.769-0.827-0.534-1.361c0,0,4.395-11.849,5.456-14.042c1.087-2.227,2.161-3.568,6.263-3.568h0.833  c4.115,0,5.182,1.341,6.256,3.568c1.094,2.194,5.462,14.042,5.462,14.042c0.221,0.534-0.013,1.127-0.541,1.361  c-0.527,0.215-1.133-0.046-1.348-0.566l-5.977-11.901l2.956,18.21H36.576z M58.405,58.386c-0.117,0.176-2.52,3.887-3.926,4.739  c-1.361,0.827-1.406,0.462-1.523,1.66l-0.176,3.567l0.508,10.371c0.02,0.092,0,0.586-0.014,0.612  c-0.143,0.437-0.553,0.769-1.028,0.769s-0.866-0.3-1.048-0.71c0-0.013-1.205-8.464-1.205-8.464s-1.211,8.451-1.211,8.464  c-0.163,0.41-0.566,0.71-1.035,0.71s-0.886-0.332-1.016-0.769c-0.033-0.026-0.039-0.521-0.033-0.612l0.514-10.371l-0.169-3.567  c-0.117-1.198-0.169-0.833-1.53-1.66c-1.406-0.853-3.809-4.563-3.926-4.739s-0.345-0.521-0.377-0.71  c-0.078-0.391,0.169-0.749,0.553-0.813c0.28-0.053,0.508,0.11,0.684,0.299c0.195,0.195,2.956,3.861,5,4.213  c0.469-0.059,0.983-0.3,2.292-0.3h0.521c1.302,0,1.817,0.241,2.286,0.3c2.051-0.352,4.805-4.018,4.98-4.213  c0.182-0.188,0.423-0.352,0.703-0.299c0.377,0.064,0.625,0.423,0.547,0.813C58.743,57.864,58.522,58.21,58.405,58.386z   M79.362,57.077c-0.521,0.221-1.14-0.033-1.361-0.561l-5.364-11.895l-0.293,9.564h-0.013l0.846,24.062  c0.059,0.95-0.645,1.783-1.595,1.849c-0.052,0.007-0.091,0.007-0.13,0.007c-0.898,0-1.667-0.69-1.719-1.615l-1.967-19.811  l-1.953,19.811c-0.078,0.925-0.84,1.615-1.725,1.615c-0.053,0-0.085,0-0.131-0.007c-0.943-0.065-1.666-0.898-1.607-1.849  l0.859-24.062l-0.293-9.564l-5.391,11.895c-0.215,0.527-0.82,0.781-1.348,0.561c-0.527-0.222-0.762-0.834-0.541-1.367  c0,0,3.77-11.843,4.857-14.037c1.074-2.207,2.754-3.555,6.855-3.555h0.846c4.102,0,5.769,1.348,6.85,3.555  c1.087,2.194,4.869,14.037,4.869,14.037C80.149,56.243,79.896,56.855,79.362,57.077z"></path></svg>