<svg xmlns="http://www.w3.org/2000/svg" xmlns:xlink="http://www.w3.org/1999/xlink" version="1.1" x="0px" y="0px" viewBox="0 0 69.831 100" enable-background="new 0 0 69.831 100" xml:space="preserve"><rect x="10.312" y="75.892" width="49.206" height="24.108"></rect><path d="M66.348,31.439c-1.354,0-2.441,0.723-3.256,2.135c-0.318-6.764-2.767-12.643-7.337-17.637  c0.664,0.156,1.165,0.234,1.504,0.234c2.259,0,3.379-1.159,3.379-3.496s-1.165-3.477-3.503-3.477c-2.344,0-3.521,1.126-3.521,3.385  c0,0.345,0.084,0.84,0.234,1.458c-4.987-4.596-10.854-7.044-17.598-7.35c1.451-0.84,2.174-1.921,2.174-3.236  C38.424,1.146,37.252,0,34.916,0c-2.344,0-3.509,1.146-3.509,3.457c0,1.348,0.71,2.428,2.129,3.236  c-6.36,0-12.213,2.454-17.559,7.35c0.163-0.645,0.254-1.152,0.254-1.504c0-2.233-1.172-3.34-3.522-3.34  c-2.344,0-3.502,1.139-3.502,3.477s1.113,3.496,3.359,3.496c0.345,0,0.84-0.078,1.478-0.234c-4.551,5.091-6.985,10.97-7.298,17.637  c-0.781-1.413-1.862-2.135-3.255-2.135c-2.324,0-3.49,1.146-3.49,3.45c0,2.324,1.166,3.483,3.49,3.483  c1.393,0,2.474-0.71,3.255-2.155c0.312,6.66,2.747,12.526,7.298,17.63c-0.638-0.156-1.133-0.241-1.478-0.241  c-2.246,0-3.359,1.166-3.359,3.483c0,2.337,1.159,3.483,3.502,3.483c2.35,0,3.522-1.081,3.522-3.288  c0-0.384-0.091-0.892-0.254-1.562c5.345,4.87,11.198,7.317,17.559,7.317c-1.419,0.82-2.129,1.895-2.129,3.262  c0,2.318,1.166,3.483,3.509,3.483c2.337,0,3.509-1.165,3.509-3.483c0-1.321-0.723-2.422-2.174-3.262  c6.744-0.318,12.61-2.734,17.598-7.266c-0.15,0.632-0.234,1.127-0.234,1.459c0,2.232,1.178,3.34,3.521,3.34  c2.338,0,3.503-1.146,3.503-3.483c0-2.317-1.12-3.483-3.379-3.483c-0.339,0-0.84,0.085-1.504,0.241  c4.57-4.994,7.019-10.873,7.337-17.63c0.814,1.445,1.901,2.155,3.256,2.155c2.33,0,3.482-1.159,3.482-3.483  C69.831,32.584,68.678,31.439,66.348,31.439z M37.389,17.767c0.69-0.879,1.035-1.608,1.035-2.207c0-0.417-0.084-0.931-0.279-1.562  c3.353,0.67,6.445,1.94,9.271,3.815c-1.257,0.716-1.979,1.797-2.175,3.197c-2.057,0.254-3.216,1.399-3.47,3.483  c-1.438,0.189-2.513,0.892-3.196,2.162l-0.43-0.144c0.195-0.645,0.279-1.172,0.279-1.543c0-0.631-0.345-1.38-1.035-2.272  c0.69-0.84,1.035-1.686,1.035-2.533C38.424,19.434,38.08,18.639,37.389,17.767z M31.641,13.998  c-0.163,0.631-0.234,1.146-0.234,1.562c0,0.612,0.332,1.367,0.996,2.207c-0.664,0.872-0.996,1.719-0.996,2.5  s0.332,1.588,0.996,2.428c-0.664,0.892-0.996,1.641-0.996,2.272c0,0.371,0.072,0.898,0.234,1.543l-0.377,0.195  c-0.69-1.289-1.771-2.024-3.197-2.168c-0.28-2.083-1.452-3.229-3.483-3.483c-0.215-1.478-0.931-2.526-2.155-3.19  C25.248,15.938,28.32,14.668,31.641,13.998z M17.865,22.363c0.69,1.27,1.777,1.986,3.255,2.174c0.202,2.103,1.36,3.255,3.463,3.47  c0.163,1.458,0.866,2.559,2.129,3.288l-0.15,0.384c-0.664-0.169-1.178-0.28-1.549-0.28c-0.67,0-1.413,0.345-2.259,1.042  c-0.84-0.697-1.673-1.042-2.448-1.042c-0.781,0-1.608,0.345-2.5,1.042c-0.84-0.697-1.569-1.042-2.207-1.042  c-0.417,0-0.957,0.11-1.608,0.28C14.688,28.307,15.964,25.208,17.865,22.363z M21.12,45.215c-1.478,0.169-2.565,0.905-3.255,2.162  c-1.901-2.812-3.177-5.898-3.874-9.226c0.651,0.163,1.191,0.222,1.556,0.222c0.664,0,1.419-0.345,2.259-1.029  c0.892,0.684,1.719,1.029,2.5,1.029c0.775,0,1.608-0.345,2.448-1.029c0.879,0.684,1.634,1.029,2.259,1.029  c0.371,0,0.885-0.098,1.549-0.287l0.15,0.436c-1.263,0.677-1.966,1.758-2.129,3.21C22.48,41.953,21.322,43.112,21.12,45.215z   M32.402,52.005c-0.664,0.84-0.996,1.602-0.996,2.253c0,0.391,0.072,0.886,0.234,1.517c-3.32-0.65-6.393-1.927-9.212-3.821  c1.224-0.703,1.94-1.764,2.155-3.242c2.031-0.248,3.203-1.413,3.483-3.496c1.426-0.163,2.507-0.859,3.197-2.123l0.377,0.137  c-0.163,0.664-0.234,1.191-0.234,1.556c0,0.638,0.332,1.38,0.996,2.272c-0.664,0.847-0.996,1.654-0.996,2.448  C31.406,50.28,31.738,51.133,32.402,52.005z M34.916,39.551c-1.302,0-2.396-0.443-3.314-1.361c-0.911-0.911-1.374-2.024-1.374-3.327  c0-1.289,0.462-2.396,1.374-3.294c0.918-0.885,2.012-1.354,3.314-1.354c1.302,0,2.402,0.469,3.313,1.354  c0.925,0.898,1.381,2.005,1.381,3.294c0,1.302-0.456,2.416-1.381,3.327C37.318,39.108,36.217,39.551,34.916,39.551z M38.145,55.774  c0.195-0.631,0.279-1.126,0.279-1.517c0-0.632-0.345-1.38-1.035-2.253c0.69-0.84,1.035-1.679,1.035-2.5  c0-0.794-0.345-1.602-1.035-2.448c0.69-0.892,1.035-1.627,1.035-2.227c0-0.397-0.084-0.924-0.279-1.562l0.43-0.176  c0.684,1.263,1.758,1.979,3.196,2.168c0.254,2.083,1.413,3.242,3.47,3.483c0.195,1.432,0.918,2.48,2.175,3.209  C44.59,53.848,41.498,55.124,38.145,55.774z M51.959,47.376c-0.684-1.257-1.764-1.953-3.235-2.116  c-0.215-2.096-1.36-3.255-3.431-3.502c-0.183-1.426-0.898-2.506-2.155-3.236l0.124-0.371c0.67,0.163,1.185,0.222,1.562,0.222  c0.631,0,1.367-0.332,2.207-0.983c0.918,0.651,1.764,0.983,2.539,0.983c0.755,0,1.562-0.332,2.447-0.983  c0.879,0.684,1.635,1.029,2.266,1.029c0.371,0,0.879-0.084,1.518-0.267C55.13,41.478,53.868,44.564,51.959,47.376z M54.284,31.4  c-0.631,0-1.387,0.345-2.266,1.042c-0.885-0.697-1.705-1.042-2.486-1.042c-0.762,0-1.582,0.345-2.5,1.042  c-0.84-0.697-1.576-1.042-2.207-1.042c-0.378,0-0.893,0.11-1.562,0.28l-0.124-0.417c1.257-0.716,1.973-1.797,2.155-3.255  c2.07-0.254,3.216-1.432,3.431-3.516c1.472-0.156,2.552-0.859,3.235-2.129c1.908,2.845,3.171,5.944,3.842,9.316  C55.163,31.51,54.655,31.4,54.284,31.4z"></path></svg>