<svg xmlns="http://www.w3.org/2000/svg" xmlns:xlink="http://www.w3.org/1999/xlink" version="1.1" x="0px" y="0px" viewBox="0 0 100 92.5" enable-background="new 0 0 100 92.5" xml:space="preserve"><path d="M45.229,15.576L27.847,28.213V14.131h4.185V7.915h7.104V2.524C39.136,1.138,43.999,0,50,0s10.864,1.138,10.864,2.524v5.391  h7.104v6.216h4.18v14.072L54.771,15.576C52.144,13.672,47.856,13.672,45.229,15.576z"></path><path d="M76.221,35.098l-4.072-2.964L54.771,19.507c-0.991-0.718-2.236-1.074-3.521-1.255v42.163c0,0.688-0.562,1.25-1.25,1.25  s-1.25-0.562-1.25-1.25V18.252c-1.284,0.181-2.529,0.537-3.521,1.255L27.847,32.144l-4.067,2.954  c-2.627,1.904-3.95,5.986-2.954,9.072l10.01,25.449c0.776,0.322,1.602,0.527,2.534,0.552c3.325-0.078,5.547-2.012,7.305-6.27  c0.034-0.127,0.083-0.225,0.137-0.332c0.181-0.264,0.43-0.439,0.732-0.439c0.298,0,0.557,0.176,0.742,0.439h0.005  c0.015,0.049,0.029,0.059,0.039,0.098c0.029,0.068,0.068,0.107,0.088,0.176c1.797,4.404,4.058,6.357,7.534,6.357h0.024  c3.442,0,5.703-1.943,7.495-6.299c0.034-0.127,0.083-0.225,0.137-0.332c0.176-0.264,0.43-0.439,0.732-0.439s0.566,0.176,0.742,0.439  h0.005c0.015,0.049,0.039,0.059,0.049,0.098c0.029,0.068,0.059,0.107,0.078,0.176c1.772,4.336,3.999,6.279,7.373,6.338  c0.952-0.015,1.792-0.229,2.573-0.562L79.175,44.17C80.171,41.084,78.848,37.002,76.221,35.098z M43.066,36.128  c-1.089,0-1.968-0.879-1.968-1.968c0-1.084,0.879-1.963,1.968-1.963c1.084,0,1.963,0.879,1.963,1.963  C45.029,35.249,44.15,36.128,43.066,36.128z M57.08,36.128c-1.089,0-1.968-0.879-1.968-1.968c0-1.084,0.879-1.963,1.968-1.963  c1.084,0,1.963,0.879,1.963,1.963C59.043,35.249,58.164,36.128,57.08,36.128z"></path><g><path d="M100,75.088h-0.127V92.5H0.068V75.088H0c3.442,0,5.718-1.943,7.515-6.299c0.029-0.127,0.068-0.225,0.132-0.332l0,0   c0.176-0.264,0.439-0.439,0.732-0.439c0.317,0,0.566,0.176,0.728,0.439h0.029c0.005,0.049,0.02,0.059,0.039,0.098   c0.029,0.068,0.054,0.107,0.078,0.176c1.797,4.404,4.062,6.357,7.529,6.357h0.015c3.442,0,5.723-1.943,7.52-6.299   c0.024-0.127,0.063-0.225,0.127-0.332h0.01c0.166-0.264,0.425-0.439,0.737-0.439c0.303,0,0.562,0.176,0.728,0.439h0.015   c0.005,0.049,0.024,0.059,0.039,0.098c0.029,0.068,0.054,0.107,0.073,0.176c1.768,4.307,3.989,6.25,7.324,6.328   c3.325-0.078,5.547-2.012,7.305-6.27c0.034-0.127,0.083-0.225,0.137-0.332l0,0c0.181-0.264,0.43-0.439,0.732-0.439   c0.298,0,0.557,0.176,0.742,0.439h0.005c0.015,0.049,0.029,0.059,0.039,0.098c0.029,0.068,0.068,0.107,0.088,0.176   c1.797,4.404,4.058,6.357,7.534,6.357h0.024c3.442,0,5.703-1.943,7.495-6.299c0.034-0.127,0.083-0.225,0.137-0.332l0,0   c0.176-0.264,0.43-0.439,0.732-0.439s0.566,0.176,0.742,0.439h0.005c0.015,0.049,0.039,0.059,0.049,0.098   c0.029,0.068,0.059,0.107,0.078,0.176c1.772,4.336,3.999,6.279,7.373,6.338c3.35-0.059,5.576-2.002,7.354-6.279   c0.024-0.127,0.068-0.225,0.132-0.332l0,0c0.176-0.264,0.425-0.439,0.728-0.439c0.312,0,0.571,0.176,0.732,0.439h0.02   c0.01,0.049,0.029,0.059,0.054,0.098c0.02,0.068,0.044,0.107,0.068,0.176c1.792,4.404,4.062,6.357,7.529,6.357h0.024   c3.447,0,5.713-1.943,7.505-6.299c0.029-0.127,0.073-0.225,0.137-0.332l0,0c0.176-0.264,0.435-0.439,0.737-0.439   c0.312,0,0.566,0.176,0.732,0.439h0.01c0.02,0.049,0.034,0.059,0.059,0.098c0.015,0.068,0.044,0.107,0.059,0.176   C94.272,73.135,96.533,75.088,100,75.088z"></path></g></svg>