<svg xmlns="http://www.w3.org/2000/svg" xmlns:xlink="http://www.w3.org/1999/xlink" version="1.1" x="0px" y="0px" viewBox="0 0 100 70.912" enable-background="new 0 0 100 70.912" xml:space="preserve"><path d="M100,28.398v42.513H79.642c0.065-0.82,0.124-1.654,0.124-2.5c0-16.615-13.464-30.078-30.072-30.078  S19.623,51.796,19.623,68.412c0,0.846,0.059,1.68,0.124,2.5H0V28.398H100z"></path><path d="M29.694,16.302c-3.353,0-6.055,2.708-6.055,6.055c0,3.32,2.702,6.042,6.055,6.042c3.333,0,6.048-2.722,6.048-6.042  C35.742,19.01,33.027,16.302,29.694,16.302z M29.694,25.612c-1.797,0-3.262-1.471-3.262-3.255c0-1.823,1.465-3.255,3.262-3.255  c1.784,0,3.255,1.432,3.255,3.255C32.949,24.141,31.478,25.612,29.694,25.612z"></path><path d="M70.41,16.302c-3.32,0-6.048,2.708-6.048,6.055c0,3.32,2.728,6.042,6.048,6.042c3.347,0,6.055-2.722,6.055-6.042  C76.465,19.01,73.757,16.302,70.41,16.302z M70.41,25.612c-1.784,0-3.255-1.471-3.255-3.255c0-1.823,1.471-3.255,3.255-3.255  c1.81,0,3.262,1.432,3.262,3.255C73.672,24.141,72.22,25.612,70.41,25.612z"></path><path d="M82.168,17.825c0-5.885-3.679-6.602-3.679-6.602c-5.377-0.742-14.654-1.12-14.654-1.12C62.988,8.62,59.056,0,56.771,0  C56.003,0,39.577,0,36.68,0c-2.923,0-7.676,8.398-8.73,10.312c0,0-3.666,0.612-5.391,1.016c-0.944,0.221-3.594,0.273-3.594,7.669  h-2.298v3.359h5.566c0-4.114,3.347-7.461,7.461-7.461c4.115,0,7.448,3.347,7.448,7.461h25.839c0-4.114,3.327-7.461,7.429-7.461  c4.121,0,7.461,3.347,7.461,7.461h5.462v-4.531H82.168z M46.504,9.531H34.896c1.575-4.896,4.473-8.398,5.696-8.398  c1.556,0,5.912,0,5.912,0V9.531z M48.666,9.531V1.133c0,0,5.99,0,7.519,0c1.537,0,4.948,7.096,5.898,8.919L48.666,9.531z"></path></svg>