<svg xmlns="http://www.w3.org/2000/svg" xmlns:xlink="http://www.w3.org/1999/xlink" version="1.1" x="0px" y="0px" viewBox="0 0 86.432 100" enable-background="new 0 0 86.432 100" xml:space="preserve"><path d="M82.409,55.703L70.169,67.409l3.711,1.08c-5.319,8.75-14.935,12.592-25.886,13.347V37.5h10.156  c0.854,0.853,2.025,1.374,3.32,1.374c2.578,0,4.682-2.09,4.682-4.674s-2.104-4.681-4.682-4.681c-1.295,0-2.467,0.527-3.32,1.38  H47.995v-5.345c4.941-1.927,8.464-6.706,8.464-12.317C56.458,5.944,50.521,0,43.216,0S29.974,5.944,29.974,13.236  c0,6.002,4.043,11.035,9.531,12.649v5.013h-11.23c-0.846-0.853-2.018-1.38-3.314-1.38c-2.578,0-4.681,2.097-4.681,4.681  s2.103,4.674,4.681,4.674c1.296,0,2.468-0.521,3.314-1.374h11.23v44.31c-11.543-0.859-21.615-5.345-26.667-14.817l3.698-0.82  L5.091,53.691L0,69.837l4.316-0.957c6.309,13.815,20.677,24.941,36.914,26.016L43.75,100l2.513-5.091  c15.442-1.035,29.18-11.186,35.983-23.972l4.186,1.224L82.409,55.703z M36.426,13.236c0-3.744,3.047-6.784,6.791-6.784  c3.743,0,6.79,3.041,6.79,6.784c0,3.743-3.047,6.79-6.79,6.79C39.473,20.026,36.426,16.979,36.426,13.236z"></path></svg>