<svg xmlns="http://www.w3.org/2000/svg" xmlns:xlink="http://www.w3.org/1999/xlink" version="1.1" x="0px" y="0px" viewBox="0 0 100 49.349" enable-background="new 0 0 100 49.349" xml:space="preserve"><path d="M23.848,33.001c-4.551,0-8.184,3.639-8.184,8.177c0,4.512,3.633,8.171,8.184,8.171c4.505,0,8.151-3.659,8.151-8.171  C31.999,36.64,28.353,33.001,23.848,33.001z M23.828,45.26c-2.246,0-4.095-1.829-4.095-4.089c0-2.252,1.849-4.095,4.095-4.095  c2.266,0,4.088,1.843,4.088,4.095C27.917,43.431,26.094,45.26,23.828,45.26z"></path><path d="M76.179,33.001c-4.525,0-8.184,3.639-8.184,8.177c0,4.512,3.658,8.171,8.184,8.171c4.505,0,8.17-3.659,8.17-8.171  C84.349,36.64,80.684,33.001,76.179,33.001z M76.179,45.26c-2.266,0-4.102-1.829-4.102-4.089c0-2.252,1.836-4.095,4.102-4.095  c2.246,0,4.082,1.843,4.082,4.095C80.261,43.431,78.425,45.26,76.179,45.26z"></path><path d="M87.461,19.212L80.144,4.668C78.854,2.103,75.442,0,72.565,0H5.228C2.357,0,0,2.356,0,5.228v38.497h14.056  c-0.208-0.82-0.365-1.667-0.365-2.546c0-5.599,4.551-10.149,10.156-10.149c5.573,0,10.124,4.551,10.124,10.149  c0,0.879-0.156,1.726-0.364,2.546h32.792c-0.215-0.82-0.364-1.667-0.364-2.546c0-5.599,4.538-10.149,10.144-10.149  c5.586,0,10.137,4.551,10.137,10.149c0,0.879-0.15,1.726-0.365,2.546H100V32.389C100,29.511,95.69,20.182,87.461,19.212z   M21.328,19.212H3.998V3.874h17.331V19.212z M41.322,19.212H23.991V3.874h17.331V19.212z M61.309,19.212H43.984V3.874h17.324V19.212  z M66.263,19.212V3.874h5.176c1.836,0,4.011,1.341,4.831,2.975l6.218,12.363H66.263z"></path></svg>