<svg xmlns="http://www.w3.org/2000/svg" xmlns:xlink="http://www.w3.org/1999/xlink" version="1.1" x="0px" y="0px" viewBox="0 0 97.305 100" enable-background="new 0 0 97.305 100" xml:space="preserve"><path d="M91.643,17.124c1.166-1.159,2.56-2.421,4.236-3.94l1.426-1.289l-4.277-4.707L91.621,8.47  c-5.827,5.267-9.349,8.45-11.062,14.974c-1.699,6.484-1.771,13.054-1.595,19.193c0.188,6.328,0.423,10.501,2.2,15.156l0.671,1.719  c1.706,4.271,4.284,10.723,4.284,19.017c0,10.026-4.082,15.111-12.129,15.111c-7.324,0-11.276-4.863-11.738-14.473  c-0.209-4.258,0.989-9.512,2.252-15.065c1.068-4.688,2.168-9.538,2.709-14.688c0.599-5.677-0.15-9.459-2.344-11.895  c-2.812-3.125-7.143-3.125-10.957-3.125h-0.957V4.583C52.956,2.051,50.905,0,48.373,0H4.583C2.051,0,0,2.051,0,4.583v93.581h52.956  V40.755h0.957c2.61,0,5.312,0,6.23,1.022c0.494,0.547,1.25,2.181,0.748,6.973c-0.501,4.778-1.568,9.434-2.591,13.938  c-1.36,5.99-2.649,11.654-2.396,16.791C56.53,92.52,63.125,100,73.991,100c11.575,0,18.489-8.027,18.489-21.472  c0-9.518-2.962-16.939-4.739-21.38l-0.639-1.621c-1.277-3.357-1.565-6.465-1.741-11.891c2.043-0.045,4.515-0.095,5.628-0.095  c2.546,0,4.311-1.484,4.857-4.056c0.318-1.498,0.312-3.464,0.312-7.031V31.51C96.159,22.079,94.224,19.386,91.643,17.124z   M46.361,34.987H6.602V8.945h39.759V34.987z M89.798,32.461c0,1.842,0,3.607-0.059,4.727c-1.269,0.018-2.975,0.053-4.462,0.086  c0.054-4.072,0.387-8.217,1.435-12.208c0.279-1.066,0.627-2.002,1.056-2.875c1.133,1.082,2.03,2.705,2.03,9.321V32.461z"></path></svg>