<svg xmlns="http://www.w3.org/2000/svg" xmlns:xlink="http://www.w3.org/1999/xlink" version="1.1" x="0px" y="0px" viewBox="0 0 93.748 100.001" enable-background="new 0 0 93.748 100.001" xml:space="preserve"><path d="M20.214,31.305L67.277,9c1.191,0.495,2.552,0.547,3.802-0.052c2.344-1.107,3.347-3.906,2.239-6.263  c-1.113-2.343-3.919-3.346-6.263-2.226c-1.256,0.586-2.076,1.667-2.447,2.89L5.605,31.305H0v68.696h93.748V31.305H20.214z   M14.082,85.73h-3.125V63.166h3.125V85.73z M25.416,85.73h-3.125V63.166h3.125V85.73z M36.757,85.73h-3.125V63.166h3.125V85.73z   M48.085,85.73H44.96V63.166h3.125V85.73z M71.509,85.73c-6.224,0-11.275-5.052-11.275-11.289c0-6.224,5.052-11.275,11.275-11.275  c6.23,0,11.282,5.052,11.282,11.275C82.791,80.679,77.739,85.73,71.509,85.73z M82.791,52.307H10.957V40.614h71.834V52.307z"></path></svg>