<svg id="Layer_1" data-name="Layer 1" xmlns="http://www.w3.org/2000/svg" viewBox="0 0 9.67 15"><defs><style>.cls-1{fill:#1d1d1b;}</style></defs><title>mobile</title><path class="cls-1" d="M6.57,6.78H5.11V5.21a0.47,0.47,0,0,0,.2-0.38,0.47,0.47,0,0,0-.95,0,0.47,0.47,0,0,0,.2.38V6.78H3.1a0.44,0.44,0,0,0-.44.44v7.35A0.44,0.44,0,0,0,3.1,15H6.57A0.44,0.44,0,0,0,7,14.56V7.21A0.44,0.44,0,0,0,6.57,6.78Zm-0.2,3.94a0.44,0.44,0,0,1-.44.44H3.73a0.44,0.44,0,0,1-.44-0.44V8.12a0.44,0.44,0,0,1,.44-0.44H5.94a0.44,0.44,0,0,1,.44.44v2.59Zm3.3-5.88a0.27,0.27,0,1,1-.53,0,4.3,4.3,0,0,0-8.6,0,0.27,0.27,0,0,1-.27.27A0.27,0.27,0,0,1,0,4.84,4.84,4.84,0,1,1,9.67,4.84Zm-1.39,0a0.27,0.27,0,1,1-.53,0,2.91,2.91,0,0,0-5.83,0,0.27,0.27,0,1,1-.53,0A3.45,3.45,0,1,1,8.28,4.84Zm-1.21,0a0.27,0.27,0,1,1-.53,0,1.7,1.7,0,1,0-3.41,0,0.27,0.27,0,1,1-.53,0A2.24,2.24,0,0,1,7.07,4.84Z"/></svg>