<svg xmlns="http://www.w3.org/2000/svg" xmlns:xlink="http://www.w3.org/1999/xlink" version="1.1" x="0px" y="0px" viewBox="0 0 38.203 100" enable-background="new 0 0 38.203 100" xml:space="preserve"><path d="M34.714,31.133V6.862c0.794-0.729,1.328-1.745,1.328-2.917C36.042,1.771,34.271,0,32.083,0s-3.958,1.771-3.958,3.945  c0,1.172,0.534,2.188,1.328,2.917v23.919h-7.722v-8.724c0-1.445-1.185-2.617-2.63-2.617c-1.458,0-2.63,1.172-2.63,2.617v8.724  h-5.885v-4.818c0-2.174-1.771-3.932-3.945-3.932s-3.945,1.758-3.945,3.932v5.573C1.12,32.448,0,34.088,0,36.029v21.224  c0,2.891,0.807,6.549,1.797,8.138s1.797,5.247,1.797,8.138v21.211c0,2.891,2.37,5.261,5.26,5.261h20.495  c2.891,0,5.261-2.37,5.261-5.261V73.528c0-2.891,0.808-6.549,1.797-8.138s1.797-5.247,1.797-8.138V36.029  C38.203,33.763,36.731,31.875,34.714,31.133z M34.609,56.602H3.594v-2.63h31.016V56.602z M34.609,51.081H3.594v-2.63h31.016V51.081z   M34.609,45.547H3.594v-2.63h31.016V45.547z M34.609,40.026H3.594v-2.63h31.016V40.026z"></path></svg>