<svg xmlns="http://www.w3.org/2000/svg" xmlns:xlink="http://www.w3.org/1999/xlink" version="1.1" x="0px" y="0px" viewBox="0 0 100 100" enable-background="new 0 0 100 100" xml:space="preserve"><polygon points="17.702,71.042 9.297,62.644 37.37,62.644 37.37,90.703 28.965,82.305 11.27,100 0,88.737 "></polygon><polygon points="88.743,100 100,88.737 82.305,71.042 90.703,62.644 62.649,62.644 62.644,90.703 71.042,82.305 "></polygon><polygon points="100,11.263 88.743,0 71.042,17.708 62.644,9.31 62.644,37.357 90.71,37.37 82.298,28.958 "></polygon><polygon points="9.303,37.37 37.357,37.37 37.376,9.297 28.971,17.708 11.27,0 0,11.276 17.702,28.958 "></polygon><path d="M50,37.787c-6.745,0-12.213,5.469-12.213,12.213c0,6.758,5.469,12.227,12.213,12.227c6.745,0,12.22-5.469,12.22-12.227  C62.22,43.255,56.745,37.787,50,37.787z"></path></svg>