<svg xmlns="http://www.w3.org/2000/svg" xmlns:xlink="http://www.w3.org/1999/xlink" version="1.1" x="0px" y="0px" viewBox="0 0 96.13 99.999" enable-background="new 0 0 96.13 99.999" xml:space="preserve"><path d="M44.121,36.954c0.587,1.717,1.952,1.949,0,2.597l-5.197,2.597l-5.2-5.194c-0.684-2.032,0.163-3.339,2.6-5.2l5.2,2.597  C42.161,35.148,43.918,36.35,44.121,36.954z"></path><path d="M38.924,16.149c-1.57-0.764-3.447-0.582-5.2,0c-0.914,0.305-1.531,1.678-2.6,2.603v7.802l7.8-2.603  c2.143-2.437,3.106-3.677,2.6-5.2C41.117,17.539,40.502,16.941,38.924,16.149z"></path><path d="M60.307,26.626l-0.587-0.072c-0.299,0.1-2.525-1.767-5.194-2.603c-1.285-0.443-1.302,0.509-2.603,0  c-1.844,0.625-2.151,2.165-2.6,5.2c-0.449,3.045-1.022,7.343,0,10.399c0.271,0.825,1.575,1.567,2.6,2.597l2.603,2.603h2.592  c3.389-1.479,4.685-5.022,5.205-5.2c1.218-0.731,2.171-2.902,2.603-5.2c0.41-2.309,0.709-3.051,0-5.2  C64.106,26.715,61.946,26.083,60.307,26.626z"></path><path d="M59.72,49.95v5.2c1.307,1.151,2.663,2.221,5.205,2.603l5.194-2.603l-2.597-7.803L59.72,49.95z"></path><path d="M90.918,49.95c-3.467-3.843-5.315-4.303-10.399-2.603h-2.597c-2.415,2.132-3.527,3.782-5.2,7.803  c-1.634,3.837-3.334,8.195-2.603,10.399c0.066,0.177,2.126,2.441,5.205,5.199c3.245,2.675,4.796,4.303,5.194,5.2l10.399-2.603  c1.119-0.365,5.466-9.619,5.2-10.395C94.031,56.684,93.045,52.348,90.918,49.95z"></path><path d="M83.205,99.86c-0.027-0.172-0.172-0.515-0.083-0.515c-1.949-2.77-10.289-9.342-10.399-10.399  c-0.122-1.125-2.447-5.167-5.199-7.797c-1.18-1.866-1.291-3.295-2.598-5.2c-1.307-1.889-3.743-5.781-5.205-7.803l-9.805-6.157  c-1.423-0.765-9.613-0.493-21.015-12.548l-0.376-7.293c-1.537-1.872-4.718-6.346-5.2-7.797c-3.004-8.96-1.01-16.275-2.6-28.596  L14.94,1.879L8.024,0.555C5.546,0,0,0,0,0v99.999h10.325h72.908h0.199L83.205,99.86z"></path></svg>