<svg xmlns="http://www.w3.org/2000/svg" xmlns:xlink="http://www.w3.org/1999/xlink" version="1.1" x="0px" y="0px" viewBox="0 0 81.198 100.003" enable-background="new 0 0 81.198 100.003" xml:space="preserve"><path d="M29.004,81.156c0,5.599-4.544,10.149-10.156,10.149c-5.612,0-10.149-4.551-10.149-10.149c0-4.043,2.383-7.507,5.801-9.141  V47.809h8.704v24.206C26.621,73.649,29.004,77.113,29.004,81.156z"></path><rect x="43.502" y="26.058" width="37.695" height="5.797"></rect><path d="M29.004,65.316V10.146c0-0.006,0-0.023,0-0.036C28.978,4.528,24.434,0,18.854,0C13.262,0,8.724,4.528,8.698,10.111v55.205  C3.32,68.773,0,74.769,0,81.156c0,10.384,8.457,18.848,18.848,18.848c10.397,0,18.848-8.464,18.848-18.848  C37.695,74.769,34.375,68.766,29.004,65.316z M18.848,97.1c-8.789,0-15.95-7.148-15.95-15.944c0-5.638,3.06-10.918,7.981-13.776  l0.716-0.416V10.146c0-3.998,3.255-7.246,7.259-7.246c3.997,0,7.239,3.249,7.239,7.246v56.817l0.723,0.416  c4.922,2.852,7.988,8.139,7.988,13.776C34.805,89.952,27.644,97.1,18.848,97.1z"></path></svg>