<svg xmlns="http://www.w3.org/2000/svg" xmlns:xlink="http://www.w3.org/1999/xlink" version="1.1" x="0px" y="0px" viewBox="0 0 100.002 89.559" enable-background="new 0 0 100.002 89.559" xml:space="preserve"><path d="M66.042,19.556c-1.157-0.684-1.753-1.445-1.323-1.694c0.435-0.249,1.729,0.107,2.871,0.796  c1.147,0.684,3.511,0.425,5.254-0.576c1.748-1.006,1.748-2.651,0-3.667c-1.743-1.006-4.106-1.274-5.254-0.596  c-1.143,0.688-2.437,1.045-2.871,0.796c-0.43-0.244,0.166-1.001,1.323-1.689C67.2,12.246,67,11.021,65.593,10.21  c-1.411-0.811-2.388-1.777-2.183-2.144c0.205-0.371,1.523-0.005,2.93,0.806s2.573,0.371,2.593-0.967  c0.015-1.343,0.376-2.246,0.791-2.002c0.415,0.249,0.747,1.543,0.737,2.891c-0.01,1.343,1.357,3.237,3.037,4.214  s3.057,0.171,3.057-1.787s-0.967-4.102-2.139-4.756c-1.182-0.664-2.134-1.602-2.129-2.08c0.015-0.483,0.977-0.347,2.148,0.303  c1.162,0.649,2.119-0.142,2.119-1.753C76.555,1.318,76.887,0,77.297,0s0.747,1.328,0.747,2.959s0.952,2.407,2.124,1.738  c1.162-0.674,2.119-0.815,2.119-0.308c0,0.503-0.957,1.445-2.119,2.095c-1.172,0.649-2.124,2.778-2.124,4.736  s1.372,2.764,3.052,1.787s3.057-2.871,3.047-4.214c-0.01-1.348,0.322-2.642,0.732-2.891c0.41-0.244,0.767,0.659,0.791,2.002  c0.02,1.338,1.182,1.777,2.588,0.967c1.396-0.811,2.715-1.177,2.93-0.806c0.205,0.366-0.771,1.333-2.178,2.144  c-1.401,0.811-1.597,2.036-0.43,2.715c1.162,0.688,1.768,1.445,1.328,1.689c-0.43,0.249-1.733-0.107-2.891-0.796  c-1.162-0.679-3.53-0.41-5.269,0.596c-1.738,1.016-1.738,2.661,0,3.667c1.738,1.001,4.106,1.26,5.269,0.576  c1.157-0.688,2.461-1.045,2.891-0.796c0.439,0.249-0.166,1.011-1.328,1.694c-1.167,0.679-0.972,1.904,0.43,2.715  c1.406,0.815,2.383,1.782,2.178,2.153c-0.215,0.366-1.533,0-2.93-0.806c-1.406-0.815-2.568-0.385-2.588,0.942  c-0.024,1.333-0.381,2.231-0.791,1.992c-0.41-0.234-0.742-1.528-0.732-2.881c0.01-1.352-1.367-3.247-3.047-4.218  s-3.052-0.171-3.052,1.782s0.952,4.086,2.124,4.736c1.162,0.654,2.119,1.606,2.119,2.109s-0.957,0.371-2.119-0.298  c-1.172-0.669-2.124,0.098-2.124,1.709c0,1.616-0.337,2.93-0.747,2.93s-0.742-1.309-0.742-2.915c0-1.602-0.957-2.378-2.119-1.724  c-1.172,0.654-2.134,0.786-2.148,0.298c-0.005-0.488,0.947-1.436,2.129-2.095c1.172-0.659,2.139-2.797,2.139-4.75  s-1.377-2.754-3.057-1.782s-3.047,2.866-3.037,4.218c0.01,1.353-0.322,2.646-0.737,2.881c-0.415,0.239-0.776-0.659-0.791-1.992  c-0.02-1.328-1.187-1.757-2.593-0.942c-1.406,0.806-2.725,1.172-2.93,0.806c-0.205-0.371,0.771-1.337,2.183-2.153  C67,21.46,67.2,20.234,66.042,19.556z M52.678,24.702L83.66,50.517v-7.744h2.583v12.905h-12.91V53.1h7.744L50.098,27.285  L52.678,24.702z M21.703,11.792c2.043,2.031,3.589,5.327,5.161,7.749c2.429,3.726,3.825,7.666,7.746,10.322  c5.405,3.672,10.466,3.496,15.488,7.744c3.156,2.671,10.964,11.26,7.746,15.493c-13.815-1.763-19.021-9.248-23.234-12.91  c-4.302-3.726-11.806-5.664-15.488-10.327c-4.763-6.021-4.675-15.893-5.166-23.232C14.039,7.837,20.709,10.801,21.703,11.792z"></path><path d="M63.005,55.678c0,0-14.206,9.258-33.559-15.488c0,0-25.205-0.913-20.451-37.919L0.062,0.02c0,0-0.139,89.54,0,89.54  s99.94,0,99.94,0S64.836,57.353,63.005,55.678z"></path><path d="M65.593,22.271c-1.411,0.815-2.388,1.782-2.183,2.153c0.205,0.366,1.523,0,2.93-0.806c1.406-0.815,2.573-0.385,2.593,0.942  c0.015,1.333,0.376,2.231,0.791,1.992c0.415-0.234,0.747-1.528,0.737-2.881c-0.01-1.352,1.357-3.247,3.037-4.218  s3.057-0.171,3.057,1.782s-0.967,4.091-2.139,4.75c-1.182,0.659-2.134,1.606-2.129,2.095c0.015,0.488,0.977,0.356,2.148-0.298  c1.162-0.654,2.119,0.122,2.119,1.724c0,1.606,0.332,2.915,0.742,2.915s0.747-1.313,0.747-2.93c0-1.611,0.952-2.378,2.124-1.709  c1.162,0.669,2.119,0.801,2.119,0.298s-0.957-1.455-2.119-2.109c-1.172-0.649-2.124-2.783-2.124-4.736s1.372-2.754,3.052-1.782  s3.057,2.866,3.047,4.218c-0.01,1.353,0.322,2.646,0.732,2.881c0.41,0.239,0.767-0.659,0.791-1.992  c0.02-1.328,1.182-1.757,2.588-0.942c1.396,0.806,2.715,1.172,2.93,0.806c0.205-0.371-0.771-1.337-2.178-2.153  c-1.401-0.811-1.597-2.036-0.43-2.715c1.162-0.684,1.768-1.445,1.328-1.694c-0.43-0.249-1.733,0.107-2.891,0.796  c-1.162,0.684-3.53,0.425-5.269-0.576c-1.738-1.006-1.738-2.651,0-3.667c1.738-1.006,4.106-1.274,5.269-0.596  c1.157,0.688,2.461,1.045,2.891,0.796c0.439-0.244-0.166-1.001-1.328-1.689c-1.167-0.679-0.972-1.904,0.43-2.715  c1.406-0.811,2.383-1.777,2.178-2.144c-0.215-0.371-1.533-0.005-2.93,0.806c-1.406,0.811-2.568,0.371-2.588-0.967  c-0.024-1.343-0.381-2.246-0.791-2.002c-0.41,0.249-0.742,1.543-0.732,2.891c0.01,1.343-1.367,3.237-3.047,4.214  s-3.052,0.171-3.052-1.787s0.952-4.087,2.124-4.736c1.162-0.649,2.119-1.592,2.119-2.095c0-0.508-0.957-0.366-2.119,0.308  c-1.172,0.669-2.124-0.107-2.124-1.738S77.708,0,77.297,0s-0.742,1.318-0.742,2.935c0,1.611-0.957,2.402-2.119,1.753  c-1.172-0.649-2.134-0.786-2.148-0.303c-0.005,0.479,0.947,1.416,2.129,2.08c1.172,0.654,2.139,2.798,2.139,4.756  s-1.377,2.764-3.057,1.787s-3.047-2.871-3.037-4.214c0.01-1.348-0.322-2.642-0.737-2.891c-0.415-0.244-0.776,0.659-0.791,2.002  c-0.02,1.338-1.187,1.777-2.593,0.967s-2.725-1.177-2.93-0.806c-0.205,0.366,0.771,1.333,2.183,2.144  c1.406,0.811,1.606,2.036,0.449,2.715c-1.157,0.688-1.753,1.445-1.323,1.689c0.435,0.249,1.729-0.107,2.871-0.796  c1.147-0.679,3.511-0.41,5.254,0.596c1.748,1.016,1.748,2.661,0,3.667c-1.743,1.001-4.106,1.26-5.254,0.576  c-1.143-0.688-2.437-1.045-2.871-0.796c-0.43,0.249,0.166,1.011,1.323,1.694C67.2,20.234,67,21.46,65.593,22.271z"></path><polygon points="73.333,53.1 73.333,55.678 86.243,55.678 86.243,42.773 83.66,42.773 83.66,50.517 52.678,24.702 50.098,27.285   81.077,53.1 "></polygon><path d="M34.61,40.19c4.214,3.662,9.419,11.147,23.234,12.91c3.218-4.233-4.59-12.822-7.746-15.493  c-5.022-4.248-10.083-4.072-15.488-7.744c-3.921-2.656-5.317-6.596-7.746-10.322c-1.572-2.422-3.118-5.718-5.161-7.749  c-0.994-0.991-7.664-3.955-7.747-5.161c0.491,7.339,0.403,17.211,5.166,23.232C22.804,34.526,30.308,36.464,34.61,40.19z"></path></svg>