<svg xmlns="http://www.w3.org/2000/svg" xmlns:xlink="http://www.w3.org/1999/xlink" version="1.1" x="0px" y="0px" viewBox="0 0 81.198 100" enable-background="new 0 0 81.198 100" xml:space="preserve"><path d="M29.004,81.159c0,5.599-4.544,10.143-10.156,10.143c-5.612,0-10.149-4.544-10.149-10.143c0-4.043,2.383-7.5,5.801-9.141  V30.163h8.698v41.856C26.621,73.659,29.004,77.116,29.004,81.159z"></path><polygon points="81.198,26.055 65.241,26.055 65.241,10.111 59.447,10.111 59.447,26.055 43.502,26.055 43.502,31.862   59.447,31.862 59.447,47.806 65.241,47.806 65.241,31.862 81.198,31.862 "></polygon><path d="M29.004,65.312V10.15c0-0.007,0-0.02,0-0.039C28.978,4.531,24.427,0,18.848,0C13.262,0,8.724,4.531,8.698,10.111  L8.691,65.319C3.314,68.776,0,74.772,0,81.159C0,91.543,8.457,100,18.848,100c10.397,0,18.848-8.457,18.848-18.841  C37.695,74.772,34.375,68.776,29.004,65.312z M18.848,97.103c-8.789,0-15.95-7.154-15.95-15.943c0-5.645,3.06-10.918,7.975-13.776  l0.723-0.417V10.15c0-3.998,3.249-7.246,7.252-7.246c3.998,0,7.246,3.249,7.246,7.246v56.816l0.723,0.417  c4.922,2.852,7.982,8.132,7.982,13.776C34.798,89.948,27.644,97.103,18.848,97.103z"></path></svg>