<svg xmlns="http://www.w3.org/2000/svg" xmlns:xlink="http://www.w3.org/1999/xlink" version="1.1" x="0px" y="0px" viewBox="0 0 100 91.67" enable-background="new 0 0 100 91.67" xml:space="preserve"><path d="M100,49.995v18.491c-2.231-0.952-4.878-2.505-5.552-4.595c-0.869-2.637-2.007-7.91,2.778-8.335  c0,0-6.035-7.041-11.113,2.783c-3.838,7.485-6.567,10.757-8.33,11.108h-2.778c-1.758-0.425-4.531-2.402-5.557-5.557  c-0.869-2.637-2.007-7.91,2.778-8.335c0,0-6.04-7.041-11.113,2.783c-3.857,7.485-6.558,10.757-8.335,11.108h-2.773  c-1.763-0.425-4.531-2.402-5.557-5.557c-0.869-2.637-2.007-7.91,2.778-8.335c0,0-6.045-7.041-11.113,2.783  c-3.857,7.485-6.558,10.757-8.33,11.108H25c-1.748-0.425-4.526-2.402-5.552-5.557c-0.859-2.637-2.017-7.91,2.778-8.335  c0,0-6.05-7.041-11.113,2.783C8.325,63.74,3.276,66.914,0,68.413V39.839C6.284,18.242,22.441,0,38.892,0  c8.423,0,14.526,1.86,16.67,5.566c2.046,3.462,2.124,9.854-2.783,11.104c-2.056,0.527-7.08-0.908-8.33-2.778  c-0.869-1.304-2.603-2.173,0-5.557c-14.458-3.691-25.166,31.45,8.33,36.113c4.443-17.012,17.544-30.557,30.557-30.557  c6.484,0,9.463,2.695,11.113,5.552c1.558,2.666,0.986,7.383-2.778,8.335c-1.582,0.425-4.78-1.221-5.557-2.769  c-0.776-1.562-0.605-4.429,2.778-5.566C77.222,16.455,69.17,48.413,100,49.995z"></path><path d="M19.448,69.448c0,0-6.05-7.046-11.113,2.778C6.26,76.25,2.93,79.023,0,80.811V91.67h100v-8.335  c-1.763-0.425-7.31-2.397-8.33-5.552c-0.869-2.646-2.007-7.91,2.778-8.335c0,0-6.03-7.046-11.113,2.778  c-3.838,7.49-6.567,10.757-8.33,11.108h-2.778c-1.758-0.425-4.531-2.397-5.557-5.552c-0.869-2.646-2.007-7.91,2.778-8.335  c0,0-6.04-7.046-11.113,2.778c-3.857,7.49-6.558,10.757-8.33,11.108h-2.778c-1.763-0.425-4.531-2.397-5.557-5.552  c-0.864-2.646-2.007-7.91,2.778-8.335c0,0-6.045-7.046-11.108,2.778c-3.862,7.49-6.558,10.757-8.34,11.108h-2.773  c-1.753-0.425-4.531-2.397-5.557-5.552C15.811,75.137,14.653,69.873,19.448,69.448z"></path></svg>