<svg xmlns="http://www.w3.org/2000/svg" xmlns:xlink="http://www.w3.org/1999/xlink" version="1.1" x="0px" y="0px" viewBox="0 0 66.417 100" enable-background="new 0 0 66.417 100" xml:space="preserve"><path d="M66.38,60.085c0.234,1.314-0.657,2.578-1.979,2.812c-0.137,0.02-0.287,0.032-0.424,0.032c-1.165,0-2.188-0.833-2.389-2.019  l-3.867-17.558l-0.593,19.095h-0.013l1.712,31.568c0.11,1.908-1.309,3.549-3.203,3.679c-0.085,0.013-0.163,0.013-0.261,0.013  c-1.783,0-3.32-1.38-3.418-3.196L48.015,64.72l-3.9,29.792c-0.143,1.816-1.653,3.196-3.457,3.196c-0.071,0-0.149,0-0.24-0.013  c-1.889-0.13-3.32-1.771-3.197-3.679l1.674-31.568l-0.58-19.095L24.414,56.452c-0.462,0.416-1.042,0.625-1.621,0.625  c-0.664,0-1.328-0.28-1.816-0.814c-0.885-0.996-0.807-2.539,0.195-3.438c0,0,11.061-12.78,12.311-15.384  c2.162-4.42,5.501-7.09,13.705-7.09h1.667c8.209,0,11.529,2.669,13.697,7.09C63.978,40.345,66.38,60.085,66.38,60.085z"></path><path d="M48.04,9.844c-5.117,0-9.251,4.127-9.251,9.219c0,5.104,4.134,9.238,9.251,9.238c5.085,0,9.213-4.134,9.213-9.238  C57.253,13.971,53.125,9.844,48.04,9.844z"></path><path d="M22.956,71.907l-2.402-1.602L16.66,28.711l1.081-0.58l-0.208-1.946l-1.146-0.41l-0.912-9.603l3.359-0.326l-0.156-1.614  l-3.34,0.312l-2.135,0.182l-0.944-10.13l0.312-0.026L12.129,0L9.707,0.228l0.417,4.557L10.84,4.74l0.944,10.149l-0.709,0.059  l0.521,33.73l1.198,1.009l-0.241,0.619L0.449,49.987L0,57.298l7.93,0.476l0.345,0.481l1.94,0.209l0.202,2.363  c-0.684-0.144-1.66-0.222-2.688,0.071c-0.423,0.169-0.762,0.449-0.944,0.853c-0.169,0.365-0.182,0.801-0.156,1.218  c0.065,0.579,0.215,1.081,0.312,1.309c-0.137,0.918,0.026,1.335,1.042,2.546c0.286,0.318,0.423,0.599,0.456,0.794  c-1.751,1.022-3.945,2.168-6.068,2.845l2.52,4.154l3.451-1.445c0,0,0.905-2.129,2.123-2.246c1.224-0.124,2.239,0.904,2.317,1.621  l0.951,0.156l0.801,7.812l-4.291,18.438c5.241-0.886,9.812,1.048,9.812,1.048l-1.478-16.855l2.572-6.426l-0.417-4.434l1.406,0.625  L22.956,71.907z M7.48,62.051c0.104-0.188,0.273-0.339,0.482-0.43c0.97-0.3,1.946-0.144,2.52,0.026l0.182,2.22  c-0.553,0.449-1.504,0.69-3.001,0.169C7.513,63.633,7.213,62.649,7.48,62.051z M9.193,67.188c-0.163-0.247-0.352-0.547-0.625-0.879  c-0.749-0.859-0.905-1.165-0.912-1.543c0.631,0.286,1.862,0.651,3.131,0.339l0.072,1.074C10.436,66.438,9.844,66.797,9.193,67.188z"></path></svg>