<svg xmlns="http://www.w3.org/2000/svg" xmlns:xlink="http://www.w3.org/1999/xlink" version="1.1" x="0px" y="0px" viewBox="0 0 89.862 100" enable-background="new 0 0 89.862 100" xml:space="preserve"><path d="M34.439,62.188l-4.296,7.891c-0.208,0.462-0.794,1.236-2.253,1.236c-1.784,0-4.778-1.126-6.705-1.946l-0.378,0.813  l-2.917-1.347l0.377-0.814c-2.565-1.282-5.742-3.15-6.328-4.759l-0.234-0.886l0.234-0.625l3.281-8.463  c-3.373,2.136-6.289,6.797-9.961,14.264l-4.167,8.776C0.742,77.103,0.391,77.884,0,78.691l24.921,11.523  c0.377-0.808,0.729-1.595,1.094-2.356l3.997-8.841C33.333,71.374,34.999,66.146,34.439,62.188z M26.445,81.425l-3.099,6.719  L2.591,78.542l3.112-6.719c0.885-1.888,3.177-2.864,6.055-2.864c2.148,0,4.635,0.554,7.096,1.687  C24.583,73.301,27.994,78.119,26.445,81.425z"></path><path d="M24.804,78.417c0.312,0.873,0.325,1.635,0.039,2.266l-2.357,5.111L4.948,77.676l2.37-5.104  c0.534-1.152,2.187-1.843,4.44-1.843c1.966,0,4.218,0.541,6.354,1.53C21.406,73.783,23.971,76.139,24.804,78.417z"></path><path d="M29.53,53.894c0.612,0.261,1.25,0.43,1.914,0.481c0.104,0.632,0.144,1.276,0.078,1.934c1.836,1.133,2.943,2.077,2.748,2.48  l-5.729,10.527c-0.326,0.696-3.919-0.286-8.06-2.194c-4.115-1.914-7.213-4.023-6.888-4.732l4.322-11.172  c0.195-0.403,1.615-0.176,3.646,0.481c1.263-1.295,2.93-1.985,4.57-1.985c0.117,0.58,0.299,1.179,0.664,1.804  c-1.12-0.202-2.279,0.137-3.281,0.872c1.002,0.384,2.07,0.833,3.164,1.348c1.106,0.515,2.135,1.028,3.06,1.536  c-0.026-0.462-0.039-0.924-0.195-1.354C29.543,53.907,29.543,53.901,29.53,53.894z"></path><path d="M72.107,55.71c-0.248,1.348,0.064,3.899,0.638,5.143l14.648,31.783c0.741,1.621,1.601,3.464,0.325,5.469  c-0.755,1.172-2.07,1.895-3.464,1.895l0,0c-2.461,0-3.567-1.869-4.466-3.359L61.69,66.218l-4.908,9.96  c-1.146,2.331-3.425,5.645-5.183,7.532L41.73,94.348c-1.289,1.381-2.292,2.461-4.18,2.461c-1.575,0-3.007-0.904-3.698-2.324  c-1.146-2.402,0.248-4.141,1.484-5.67l9.739-12.07c1.042-1.295,2.422-3.938,2.877-5.547l3.62-12.636  c0.521-1.855,1.133-5.156,1.289-7.07l1.602-19.413c-7.878,2.604-15.599,12.903-18.216,17.213c-1.107,1.803-2.044,3.359-4.388,3.365  h-0.013c-1.432,0-2.787-0.768-3.516-2.018c-1.211-2.051-0.326-3.666,0.703-5.521c0.599-1.074,15.169-26.763,34.817-25.22  c8.489,0.729,11.197,7.109,12.994,11.328c0.417,0.983,0.82,1.94,1.289,2.793l11.21,20.266c1.068,1.94,0.43,4.453-1.471,5.572  c-1.914,1.127-4.323,0.6-5.495-1.275l-8.346-13.32L72.107,55.71z"></path><path d="M76.977,7.906c0.847,5.136-2.643,9.986-7.773,10.826c-5.143,0.846-9.986-2.643-10.819-7.78  c-0.847-5.136,2.63-9.986,7.76-10.826C71.287-0.72,76.131,2.77,76.977,7.906z"></path></svg>