<svg xmlns="http://www.w3.org/2000/svg" xmlns:xlink="http://www.w3.org/1999/xlink" version="1.1" x="0px" y="0px" viewBox="0 0 89.365 100" enable-background="new 0 0 89.365 100" xml:space="preserve"><path d="M49.222,26.979c0.885,0.873,0.885,2.305,0,3.19L35.244,44.134c-0.873,0.885-2.314,0.885-3.181,0.026  c-0.892-0.912-0.882-2.331-0.013-3.223l13.981-13.958C46.917,26.094,48.336,26.094,49.222,26.979z"></path><path d="M55.863,67.942c0.885,0.886,2.311,0.886,3.189,0.014l13.972-13.979c0.892-0.885,0.886-2.317,0-3.203  c-0.872-0.872-2.305-0.872-3.19,0L55.863,64.746C54.977,65.638,54.977,67.07,55.863,67.942z"></path><path d="M62.926,0h-46.12v73.894L0,89.616L10.374,100l6.433-6.875v1.074h72.558V27.455L62.926,0z M64.164,12.292l12.454,12.93  H64.164V12.292z M81.735,86.562H24.443v-1.608l24.765-26.471l5.144,5.143l14.349-14.362L50.746,31.295L36.387,45.67l5.117,5.118  L24.443,66.745V7.637h33.991v23.307h23.301V86.562z"></path></svg>