<svg xmlns="http://www.w3.org/2000/svg" xmlns:xlink="http://www.w3.org/1999/xlink" version="1.1" x="0px" y="0px" viewBox="0 0 100 79.074" enable-background="new 0 0 100 79.074" xml:space="preserve"><polygon points="22.5,40.872 22.5,74.855 20.853,76.959 0,79.074 0,37.695 20.853,38.971 "></polygon><path d="M76.19,30.735l11.399,1.777h11.113c0,0,1.166-2.455,1.289-8.19c0.124-5.735-1.289-8.476-1.289-8.476H87.369l-10.547,4.323  H66.165V4.935H52.499v-0.95C51.556,0.117,46.275,0,45.611,0h-0.006L5.625,0.774c-0.215,0-5.143,0.065-5.41,6.198v1.914  c0.267,6.087,5.182,6.166,5.404,6.166l39.993,0.781h0.039c0.605,0,5.905-0.111,6.868-4.206v-0.742h4.115v9.284h-0.932l-8.854,22.598  h-2.109v29.557v1.022v3.613h35.885l3.587-4.636h9.896c0,0,2.955-4.219,3.164-14.46c0.201-10.24-3.164-15.097-3.164-15.097H64.368  V30.735H76.19z"></path><path d="M38.45,44.029l-4.459-3.157h-9.486v33.983h9.486l4.459-3.594h4.284V44.029H38.45z M25.755,46.126h8.236  c0.137,0,0.273,0.025,0.391,0.091l4.173,2.09c0.437,0.215,0.605,0.742,0.391,1.172c-0.149,0.306-0.462,0.481-0.781,0.481  c-0.13,0-0.267-0.025-0.391-0.091l-3.991-1.999h-8.027c-0.481,0-0.872-0.391-0.872-0.872S25.273,46.126,25.755,46.126z   M25.755,51.224h8.236c0.084,0,0.169,0.006,0.247,0.032l4.173,1.237c0.462,0.137,0.729,0.625,0.592,1.087  c-0.11,0.384-0.462,0.625-0.84,0.625c-0.084,0-0.163-0.007-0.247-0.032l-4.056-1.205h-8.105c-0.481,0-0.872-0.391-0.872-0.872  S25.273,51.224,25.755,51.224z M38.6,66.842l-4.173,2.376c-0.137,0.071-0.287,0.11-0.436,0.11h-8.236  c-0.481,0-0.872-0.391-0.872-0.872s0.391-0.872,0.872-0.872h8.001l3.971-2.266c0.417-0.241,0.957-0.092,1.198,0.325  C39.167,66.066,39.017,66.601,38.6,66.842z M24.883,62.499c0-0.481,0.391-0.872,0.872-0.872h8.236l3.991-0.873  c0.462-0.156,0.938,0.202,1.035,0.671c0.104,0.476-0.195,0.938-0.67,1.035l-4.173,0.892l-8.418,0.02  C25.273,63.371,24.883,62.98,24.883,62.499z M38.164,58.449H25.755c-0.481,0-0.872-0.391-0.872-0.872s0.391-0.872,0.872-0.872  h12.409c0.482,0,0.873,0.391,0.873,0.872S38.646,58.449,38.164,58.449z"></path></svg>