<svg xmlns="http://www.w3.org/2000/svg" xmlns:xlink="http://www.w3.org/1999/xlink" version="1.1" x="0px" y="0px" viewBox="0 0 42.03 100" enable-background="new 0 0 42.03 100" xml:space="preserve"><path d="M0.114,35.684h41.804c0.006,0.28,0.091,0.508,0.091,0.781v5.625H0.017v-5.625C0.017,36.205,0.114,35.951,0.114,35.684z"></path><rect x="0.017" y="48.77" width="41.992" height="6.406"></rect><path d="M29.834,15.599V8.066h1.641c1.498,0,2.702-1.354,2.702-3.014V3.014c0-1.66-1.204-3.014-2.702-3.014H10.544  C9.046,0,7.842,1.354,7.842,3.014v2.038c0,1.66,1.204,3.014,2.702,3.014h1.777v7.533c-3.73,1.868-6.725,4.7-8.952,8.496  c-0.925,1.575-1.55,3.235-2.083,4.922H41C39.385,23.047,35.707,18.542,29.834,15.599z"></path><path d="M0.017,92.005c0,0-0.684,7.995,6.686,7.995h26.915c9.251,0,8.392-9.095,8.392-9.095v-29.05H0.017V92.005z"></path></svg>