<svg xmlns="http://www.w3.org/2000/svg" xmlns:xlink="http://www.w3.org/1999/xlink" version="1.1" x="0px" y="0px" viewBox="0 0 31.502 100" enable-background="new 0 0 31.502 100" xml:space="preserve"><path d="M24.697,100c0,0,4.35-0.696,5.541-6.387c1.27-6.107-0.039-10.144-0.788-13.568c-0.742-3.438-0.495-5.176,0.645-10.723  c1.823-8.913,1.673-24.317,0.696-31.72c-0.989-7.402-4.531-12.051-6.237-15.554c-2.812-5.755-2.852-12.897-2.852-12.897h1.569V6.41  l-0.566-0.423V0.446c0,0-2.552-0.566-6.953-0.423C11.35-0.12,8.798,0.446,8.798,0.446v5.541L8.218,6.41v2.741h1.569  c0,0-0.026,7.142-2.839,12.897c-1.706,3.502-5.26,8.151-6.237,15.554s-1.126,22.807,0.696,31.72  c1.126,5.547,1.387,7.285,0.632,10.723c-0.736,3.425-2.058,7.461-0.775,13.568C2.457,99.304,6.806,100,6.806,100H24.697z"></path></svg>