<svg xmlns="http://www.w3.org/2000/svg" xmlns:xlink="http://www.w3.org/1999/xlink" version="1.1" x="0px" y="0px" viewBox="0 0 100 92.357" enable-background="new 0 0 100 92.357" xml:space="preserve"><path d="M62.507,65.039c-0.014,3.21-5.397,5.827-12.077,5.827c-6.667,0-12.051-2.617-12.07-5.827c0.02-3.216,5.404-5.82,12.07-5.833  C57.109,59.218,62.493,61.823,62.507,65.039z"></path><path d="M50.43,52.968c-13.802,0.014-24.974,5.397-24.994,12.07c0.02,6.68,11.191,12.064,24.994,12.064  c13.815,0,24.974-5.385,25.007-12.064C75.403,58.366,64.245,52.982,50.43,52.968z M50.43,73.353c-9.512,0-17.233-3.711-17.233-8.314  c0-4.596,7.721-8.32,17.233-8.32c9.524,0,17.233,3.725,17.233,8.32C67.663,69.642,59.954,73.353,50.43,73.353z"></path><path d="M50,40.469c-27.604,0-50,11.608-50,25.937c0,14.343,22.396,25.951,50,25.951c27.617,0,50-11.608,50-25.951  C100,52.077,77.617,40.469,50,40.469z M50.43,85.423c-23.32,0-42.227-9.135-42.227-20.385c0-11.243,18.906-20.384,42.227-20.384  c23.333,0,42.239,9.141,42.239,20.384C92.669,76.289,73.763,85.423,50.43,85.423z"></path><path d="M50.43,47.142c-20.462,0.013-37.018,8.014-37.07,17.896c0.052,9.87,16.608,17.871,37.07,17.897  c20.469-0.026,37.024-8.027,37.058-17.897C87.454,55.156,70.898,47.155,50.43,47.142z M50.43,79.603  c-16.667,0-30.169-6.523-30.169-14.564c0-8.04,13.503-14.57,30.169-14.57c16.66,0,30.176,6.53,30.176,14.57  C80.605,73.08,67.09,79.603,50.43,79.603z"></path><path d="M64.147,22.506C55.163,30.188,67.591,37.2,67.591,37.2s-4.31-4.811,2.266-10.364c9.936-8.347-0.098-15.137-0.098-15.137  S72.266,15.579,64.147,22.506z"></path><path d="M51.731,24.492c0,0,11.804-2.604,5.664-14.03C53.333,2.884,59.095,0,59.095,0s-14.147,1.946-8.613,12.396  C55.481,21.823,51.731,24.492,51.731,24.492z"></path><path d="M34.199,23.307c-6.68,9.766,7.168,13.262,7.168,13.262s-5.417-3.509-0.527-10.58c7.389-10.67-4.076-14.577-4.076-14.577  S40.208,14.479,34.199,23.307z"></path></svg>