<svg xmlns="http://www.w3.org/2000/svg" xmlns:xlink="http://www.w3.org/1999/xlink" version="1.1" x="0px" y="0px" viewBox="0 0 100 80.69" enable-background="new 0 0 100 80.69" xml:space="preserve"><polygon points="82.136,80.69 82.136,75.079 39.766,75.079 39.766,75.079 17.838,75.079 17.838,80.69 0,71.315 17.838,61.973   17.838,67.565 40.391,67.565 40.391,67.565 82.136,67.565 82.136,61.973 100,71.329 "></polygon><path d="M53.997,5.515l2.683-3.451L54.011,0l-2.148,2.767l-0.014-0.02v0.02L49.688,0l-2.643,2.064l2.682,3.451L14.062,56.146h25  c8.932-7.773,12.956-17.682,12.956-17.682h0.143c0,0,3.906,9.538,12.592,17.682l21.953-0.065L53.997,5.515z"></path></svg>