<svg xmlns="http://www.w3.org/2000/svg" xmlns:xlink="http://www.w3.org/1999/xlink" version="1.1" x="0px" y="0px" viewBox="0 0 100 100" enable-background="new 0 0 100 100" xml:space="preserve"><path d="M95.974,35.408L100,27.306L51.676,3.283l-0.019-0.057l-0.044,0.025l-0.045-0.025L51.55,3.283l-5.884,2.923  C41.917,2.388,36.712,0,30.973,0H20.64C9.293,0,0,9.293,0,20.64v10.333c0,7.315,3.894,13.735,9.677,17.402c0,0.907,0,1.909,0,3.055  v46.838H44.21c1.178,1.008,3.995,1.732,7.289,1.732c3.309,0,6.118-0.725,7.309-1.732h34.741V51.43c0-4.158,0-6.873,0-7.031  c-21.856-9.627-39.315,0.561-41.521,2.596c-0.768-0.731-2.52-1.947-5.071-3.15c2.867-3.547,4.656-7.989,4.656-12.872V20.64  c0-2.35-0.479-4.574-1.216-6.678l1.216-0.605L95.974,35.408z M54.567,55.683c0-6.98,9.281-10.735,20.723-10.735  c5.506,0,10.496,1.298,14.194,3.434v45.665c-18.712-11.775-34.917-0.982-34.917,0.863V55.683z M48.929,55.683v39.227  c0-1.846-16.205-12.639-34.929-0.863V50.41c2.098,0.724,4.31,1.204,6.641,1.204h10.333c4.448,0,8.556-1.462,11.939-3.888  C46.629,49.54,48.929,52.211,48.929,55.683z M49.03,30.973c0,9.955-8.103,18.057-18.057,18.057H20.64  c-9.955,0-18.057-8.103-18.057-18.057V20.64c0-9.955,8.103-18.057,18.057-18.057h10.333c9.955,0,18.057,8.103,18.057,18.057V30.973z  "></path><rect x="7.737" y="22.587" width="36.139" height="6.452"></rect></svg>