<svg xmlns="http://www.w3.org/2000/svg" xmlns:xlink="http://www.w3.org/1999/xlink" version="1.1" x="0px" y="0px" viewBox="0 0 100 100" enable-background="new 0 0 100 100" xml:space="preserve"><path d="M59.177,80.191c-22.408,0-40.559,4.479-40.559,9.999c0,5.521,18.151,10,40.559,10c22.396,0,40.546-4.479,40.546-10  C99.723,84.67,81.572,80.191,59.177,80.191z M59.763,94.787c-11.953,0-21.64-2.396-21.64-5.339c0-2.955,9.688-5.338,21.64-5.338  c11.953,0,21.641,2.383,21.641,5.338C81.403,92.392,71.716,94.787,59.763,94.787z"></path><path d="M99.261,44.033c-0.625-0.592-1.608-0.592-2.239,0l-5.527,5.638H76.631V42.9h12.624c1.204,0,2.396-0.104,3.535-0.319  c1.152-0.228,2.115-0.82,2.884-1.816c0.664-0.775,1.003-1.855,1.003-3.308c0-1.002-0.3-2.239-0.84-3.782l-4.779-11.393  c-1.523-3.502-3.535-5.951-6.021-7.318c-2.468-1.399-5.078-2.063-7.825-2.063H58.083V3.832h5.599  c0.332,0.56,0.736,0.912,1.172,1.068c0.424,0.175,0.808,0.247,1.14,0.247h26.9c0.873,0,1.523-0.247,1.96-0.735  s0.716-1.068,0.82-1.732c0-0.56-0.208-1.107-0.645-1.647c-0.456-0.56-1.159-0.84-2.136-0.84H66.989  c-1.211,0-1.992,0.156-2.383,0.417c-0.384,0.287-0.696,0.631-0.925,1.087H48.35c-0.208-0.228-0.456-0.508-0.735-0.84  c-0.261-0.332-0.788-0.488-1.556-0.488h-27.22c-0.436,0-0.944,0.188-1.575,0.579c-0.593,0.397-0.892,1.016-0.892,1.908  c0,0.853,0.299,1.537,0.892,1.959c0.631,0.456,1.106,0.664,1.419,0.664h27.376c0.208,0,0.56-0.091,1.068-0.248  c0.488-0.156,0.892-0.573,1.224-1.243h5.775V12.9H19.679c-0.768-1.875-2.012-3.451-3.711-4.707  c-1.712-1.263-3.659-1.895-5.859-1.895c-2.858,0-5.287,1.016-7.337,3.047c-2.044,2.031-3.047,4.479-3.047,7.35  c0,2.852,1.003,5.267,3.047,7.246c2.051,1.999,4.479,2.975,7.337,2.975c3.288,0,5.878-1.205,7.734-3.639l22.435,8.418l2.962,7.402  c0.436,0.892,1.016,1.732,1.731,2.578c0.716,0.82,2.24,1.224,4.551,1.224h9.974v6.771H43.24c-0.879,0-1.595,0.703-1.595,1.576  c0,0.872,0.716,1.575,1.595,1.575h49.003c0.494,0,0.898-0.26,1.158-0.631l5.859-5.912C99.879,45.66,99.879,44.664,99.261,44.033z   M81.006,17.522c1.419,0.417,2.663,1.12,3.698,2.044c1.048,0.944,2.012,2.396,2.903,4.375c0.208,0.664,0.488,1.387,0.82,2.155  c0.319,0.749,0.651,1.576,0.983,2.467h-8.405V17.522z M8.214,19.339c0.807,0.541,1.667,0.983,2.559,1.296l3.307,1.328  c-1.224,0.879-2.559,1.315-3.971,1.315c-1.875,0-3.47-0.631-4.798-1.888c-1.315-1.263-1.959-2.819-1.959-4.694  c0-1.888,0.645-3.444,1.959-4.707c1.328-1.263,2.923-1.888,4.798-1.888c2.304,0,4.108,0.924,5.442,2.799h-4.622  c-1.087,0-2.031,0.312-2.8,0.996c-0.768,0.645-1.139,1.575-1.139,2.799C6.99,17.907,7.394,18.779,8.214,19.339z M69.457,17.028  h7.422v11.38h-7.422V17.028z M58.083,28.564v-11.38h7.259v11.38H58.083z M74.008,49.67H62.106V42.9h11.901V49.67z"></path></svg>